<?xml version="1.0" standalone="no"?>
<!DOCTYPE svg PUBLIC "-//W3C//DTD SVG 1.1//EN" "http://www.w3.org/Graphics/SVG/1.1/DTD/svg11.dtd" >
<svg xmlns="http://www.w3.org/2000/svg" xmlns:xlink="http://www.w3.org/1999/xlink" version="1.1">
<metadata>
Created by FontForge 20170731 at Mon Mar 26 22:41:50 2018
 By Aleksey,,,
Copyright (c) 2017 by Deni Anggara. All rights reserved.
</metadata>
<defs>
<font id="Gelion-Regular" horiz-adv-x="456" >
  <font-face 
    font-family="Gelion Regular"
    font-weight="400"
    font-stretch="normal"
    units-per-em="2048"
    panose-1="0 0 5 0 0 0 0 0 0 0"
    ascent="1638"
    descent="-410"
    x-height="903"
    cap-height="1313"
    bbox="-1044 -479 3803 1859"
    underline-thickness="0"
    underline-position="0"
    unicode-range="U+000D-FB02"
  />
<missing-glyph horiz-adv-x="950" 
d="M475 586l-379 549h758zM455 563l-383 -547v1094zM496 563l383 547v-1094zM475 541l379 -549h-758z" />
    <glyph glyph-name="uniFB01" unicode="fi" horiz-adv-x="1067" 
d="M963 0h-170v762h-459v-762h-170v762h-123v141h123v141q0 176 106.5 282t294.5 106q178 0 282.5 -98.5t113.5 -262.5h-166q-8 102 -68.5 156.5t-159.5 54.5q-106 0 -169.5 -61.5t-63.5 -176.5v-141h629v-903z" />
    <glyph glyph-name="uniFB02" unicode="fl" horiz-adv-x="1110" 
d="M862.5 1327.5q106.5 -104.5 106.5 -280.5v-1047h-170v1047q0 113 -62.5 174t-169.5 61q-113 0 -173 -63.5t-60 -174.5v-141h334v-141h-334v-762h-170v762h-123v141h123v141q0 180 107.5 284t295.5 104q189 0 295.5 -104.5z" />
    <glyph glyph-name="f_f.liga" unicode="ff" horiz-adv-x="1220" 
d="M1006.5 1242q-33.5 -28 -42 -65.5t-8.5 -93.5v-180h222v-141h-222v-762h-170v762h-411v-762h-170v762h-164v141h164v213q0 297 295 297q55 0 96 -8v-141q-23 6 -66 6q-72 0 -105.5 -28t-41.5 -65.5t-8 -93.5v-180h411v213q0 297 295 297q55 0 97 -8v-141q-23 6 -66 6
q-72 0 -105.5 -28z" />
    <glyph glyph-name="f_f_i.liga" unicode="ffi" horiz-adv-x="1646" 
d="M926 903h614v-903h-170v762h-444v-762h-170v762h-424v-762h-168v762h-123v141h123v162q0 164 103.5 265.5t275.5 101.5q98 0 177 -39t122 -107q100 145 309 146q172 0 276.5 -95.5t112.5 -265.5h-164q-8 104 -69.5 157.5t-157.5 53.5q-102 0 -162.5 -60.5t-60.5 -170.5
v-148zM756 1073q0 100 -55.5 154.5t-153.5 54.5t-156.5 -56.5t-58.5 -158.5v-164h424v170z" />
    <glyph glyph-name="f_f_l.liga" unicode="ffl" horiz-adv-x="1701" 
d="M1453.5 1328.5q105.5 -103.5 105.5 -286.5v-1042h-168v1042q0 117 -61.5 178.5t-170.5 61.5q-113 0 -173 -63.5t-60 -174.5v-141h334v-141h-334v-762h-170v762h-424v-762h-168v762h-123v141h123v162q0 162 102.5 264.5t272.5 102.5q96 0 175 -38t124 -106q51 70 134 107
t191 37q185 0 290.5 -103.5zM756 1073q0 100 -55.5 154.5t-153.5 54.5t-156.5 -56.5t-58.5 -158.5v-164h424v170z" />
    <glyph glyph-name="f_f_t.liga" unicode="fft" horiz-adv-x="1808" 
d="M1761 762h-202v-762h-168v762h-156v141h156v139q0 117 -61.5 178.5t-170.5 61.5q-113 0 -173 -63.5t-60 -174.5v-141h221v-141h-221v-762h-170v762h-424v-762h-168v762h-123v141h123v162q0 162 102.5 264.5t272.5 102.5q96 0 175 -38t124 -106q51 70 134 107t191 37
q184 0 290 -103.5t106 -286.5v-139h202v-141zM756 1073q0 100 -55.5 154.5t-153.5 54.5t-156.5 -56.5t-58.5 -158.5v-164h424v170z" />
    <glyph glyph-name="f_t.liga" unicode="ft" horiz-adv-x="1189" 
d="M1143 762h-174v-762h-170v762h-158v141h158v144q0 113 -62.5 174t-169.5 61q-113 0 -173 -63.5t-60 -174.5v-141h219v-141h-219v-762h-170v762h-123v141h123v141q0 180 107.5 284t295.5 104t295 -104.5t107 -280.5v-144h174v-141z" />
    <glyph glyph-name="f_y.liga" unicode="fy" horiz-adv-x="1472" 
d="M1446 903l-414 -1079q-49 -121 -123 -182t-202 -62q-68 0 -142 21v139q8 -2 41 -8t74 -6q88 0 129 34q41 35 68 107l32 86l-387 950h183l284 -737l277 737h180zM425 1242q-34 -28 -42 -65q-8 -38 -8 -94v-180h221v-141h-221v-762h-170v762h-164v141h164v213
q0 297 295 297q55 0 96 -8v-141q-23 6 -66 6q-71 0 -105 -28z" />
    <glyph glyph-name="i_j.liga" unicode="ij" horiz-adv-x="925" 
d="M321.5 1161q-34.5 -37 -90.5 -37q-53 0 -89 36t-36 89q0 51 36 86t89 35q55 0 90 -35t35 -86t-34.5 -88zM784.5 1335q34.5 -35 34.5 -86t-34.5 -88t-90.5 -37q-53 0 -89 36t-36 89q0 51 36 86t89 35q56 0 90.5 -35zM780 -403h-170v1165h-293v-762h-170v903h633v-1306z
" />
    <glyph glyph-name="i_t_i.liga" unicode="iti" horiz-adv-x="1540" 
d="M1401 1339.5q35 -34.5 35 -86.5q0 -53 -35 -89t-90 -36t-91 36t-36 89q0 51 35.5 86t91.5 35q55 0 90 -34.5zM321.5 1161q-34.5 -37 -90.5 -37q-53 0 -89 36t-36 89q0 51 36 86t89 35q55 0 90 -35t35 -86t-34.5 -88zM856 903h539v-903h-170v762h-369v-762h-170v762h-369
v-762h-170v903h539v240h170v-240z" />
    <glyph glyph-name="i_t_y.liga" unicode="ity" horiz-adv-x="1935" 
d="M321.5 1161q-34.5 -37 -90.5 -37q-53 0 -89 36t-36 89q0 51 36 86t89 35q55 0 90 -35t35 -86t-34.5 -88zM1907 903l-414 -1079q-47 -119 -122 -181.5t-202 -62.5q-70 0 -143 21l2 139q6 -2 39 -8t74 -6q88 0 129 33.5t69 107.5l31 84l-328 811h-221v-762h-170v762h-334
v-762h-170v903h504v240h170v-240h346l283 -739l276 739h181z" />
    <glyph glyph-name="t_i.liga" unicode="ti" horiz-adv-x="1079" 
d="M938 1339.5q35 -34.5 35 -86.5q0 -53 -35 -89t-90 -36t-91 36t-36 89q0 51 36 86t91 35t90 -34.5zM395 903h537v-903h-170v762h-367v-762h-172v762h-176v141h176v240h172v-240z" />
    <glyph glyph-name="t_t.liga" unicode="tt" horiz-adv-x="1200" 
d="M1153 762h-176v-762h-170v762h-412v-762h-172v762h-176v141h176v240h172v-240h412v240h170v-240h176v-141z" />
    <glyph glyph-name="t_u.liga" unicode="tu" horiz-adv-x="1671" 
d="M1538 903v-903h-139l-19 123q-45 -74 -120.5 -111t-169.5 -37q-158 0 -245 94.5t-87 254.5v438h-365v-762h-170v762h-176v141h176v240h170v-240h535v-547q0 -125 56 -178t159 -53q102 0 163.5 70.5t61.5 187.5v520h170z" />
    <glyph glyph-name="t_y.liga" unicode="ty" horiz-adv-x="1507" 
d="M1481 903l-414 -1079q-49 -121 -123 -182.5t-203 -61.5q-68 0 -141 21v139q8 -2 41 -8t74 -6q88 0 129 34.5t67 106.5l33 86l-330 809h-219v-762h-172v762h-176v141h176v240h172v-240h344l285 -737l276 737h181z" />
    <glyph glyph-name=".notdef" horiz-adv-x="950" 
d="M475 586l-379 549h758zM455 563l-383 -547v1094zM496 563l383 547v-1094zM475 541l379 -549h-758z" />
    <glyph glyph-name="glyph1" horiz-adv-x="0" 
 />
    <glyph glyph-name="uni000D" unicode="&#xd;" horiz-adv-x="479" 
 />
    <glyph glyph-name="space" unicode=" " horiz-adv-x="487" 
 />
    <glyph glyph-name="exclam" unicode="!" horiz-adv-x="581" 
d="M238 446l-45 867h196l-45 -867h-106zM188 14q-41 41 -41 101q0 61 42 101t104 40q57 0 99 -40t42 -101q0 -59 -41 -100.5t-100 -41.5q-64 0 -105 41z" />
    <glyph glyph-name="quotedbl" unicode="&#x22;" horiz-adv-x="663" 
d="M98.5 1234q30.5 32 77.5 32q45 0 75 -32t30 -81q0 -18 -5 -31l-73 -370h-60l-69 366q-6 31 -6 35q0 49 30.5 81zM412.5 1234q29.5 32 76.5 32t77 -32t30 -81q0 -12 -6 -31l-72 -370h-59l-72 366l-4 35q0 49 29.5 81z" />
    <glyph glyph-name="numbersign" unicode="#" horiz-adv-x="1282" 
d="M975 780l-49 -248h204l-30 -165h-207l-74 -367h-172l74 367h-283l-73 -367h-168l71 367h-186l31 165h190l47 248h-215l33 166h217l72 367h170l-74 -367h285l73 367h170l-73 -367h192l-31 -166h-194zM805 780h-285l-49 -248h283z" />
    <glyph glyph-name="dollar" unicode="$" horiz-adv-x="1189" 
d="M926.5 143.5q-103.5 -92.5 -275.5 -106.5v-187h-112v187q-168 14 -269.5 109.5t-111.5 242.5h174q4 -98 74.5 -154.5t191.5 -56.5q119 0 187.5 52.5t68.5 138.5q0 88 -49 130t-164 76l-170 50q-297 88 -297 323q0 145 99.5 241.5t265.5 110.5v189h112v-191
q152 -16 245 -110t101 -238h-170q-4 96 -71.5 153.5t-177.5 57.5q-109 0 -171.5 -53t-62.5 -143q0 -76 51 -119t144 -70l211 -61q150 -43 215 -128t65 -204q0 -147 -103.5 -239.5z" />
    <glyph glyph-name="percent" unicode="%" horiz-adv-x="1581" 
d="M231 0l1016 1335h144l-1018 -1335h-142zM133 1178.5q39 68.5 108.5 109.5t157.5 41t157 -41t106.5 -108.5t37.5 -147.5t-36.5 -147.5t-105.5 -107.5t-157 -40t-158.5 40t-109.5 108.5t-39 146.5t39 146.5zM278.5 915.5q47.5 -49.5 120.5 -49.5q74 0 120 50.5t46 115.5
q0 66 -46 116t-122 50q-74 0 -121 -48t-45 -122q0 -63 47.5 -112.5zM917.5 412.5q38.5 68.5 108.5 109.5t158 41t157.5 -41t107.5 -108.5t38 -147.5t-38 -146.5t-106.5 -106.5t-156.5 -40t-158 40t-109.5 107.5t-39.5 145.5t38.5 146.5zM1062 150.5q46 -50.5 120 -50.5
t120 50.5t46 115.5q0 66 -45.5 116t-120.5 50q-76 0 -122 -50t-44 -116q0 -65 46 -115.5z" />
    <glyph glyph-name="ampersand" unicode="&#x26;" horiz-adv-x="1419" 
d="M1102 -2l-125 133q-76 -76 -182.5 -113.5t-225.5 -37.5q-190 0 -306 93t-116 251q0 86 35 151.5t75 101t99 78.5l78 58l-57 59q-53 55 -91 119.5t-38 152.5q0 84 43 152t120.5 105.5t176.5 37.5q147 0 239.5 -79.5t92.5 -208.5q0 -96 -48.5 -165t-119.5 -124l-80 -64
l295 -315q43 109 43 272l-2 62h299v-139h-148q0 -94 -19.5 -177.5t-54.5 -144.5l242 -258h-225zM466 1154q-44 -44 -44 -112q0 -49 21.5 -84.5t46 -63.5t34.5 -38l45 -49l64 51q51 41 81.5 80t30.5 104q0 68 -43 112t-118 44q-74 0 -118 -44zM747.5 159.5
q71.5 28.5 122.5 84.5l-335 360l-78 -57q-55 -43 -89 -90t-34 -119q0 -96 68.5 -151.5t187.5 -55.5q86 0 157.5 28.5z" />
    <glyph glyph-name="quotesingle" unicode="'" horiz-adv-x="362" 
d="M105.5 1234q29.5 32 76.5 32q45 0 76 -32t31 -81q0 -12 -6 -31l-74 -370h-57l-72 366l-4 35q0 49 29.5 81z" />
    <glyph glyph-name="parenleft" unicode="(" horiz-adv-x="514" 
d="M369 -315q-129 162 -204 387t-75 467q0 233 74 460.5t205 391.5h145q-113 -152 -181.5 -377.5t-68.5 -474.5q0 -238 66.5 -466.5t183.5 -387.5h-145z" />
    <glyph glyph-name="parenright" unicode=")" horiz-adv-x="512" 
d="M183.5 73.5q66.5 227.5 66.5 465.5q0 244 -68.5 472t-181.5 380h143q133 -162 207 -390.5t74 -461.5q0 -242 -76 -467.5t-205 -386.5h-143q117 161 183.5 388.5z" />
    <glyph glyph-name="asterisk" unicode="*" horiz-adv-x="755" 
d="M582 969l102 -60l-47 -82l-102 60q-84 51 -125 90q14 -76 14 -152v-120h-94v120q0 82 16 152q-35 -33 -125 -90l-102 -60l-47 82l102 60q66 37 139 63q-74 23 -139 62l-102 59l47 82l102 -59q80 -47 125 -91q-16 70 -16 154v119h94v-119q0 -78 -14 -154q49 47 125 91
l102 59l47 -82l-102 -59q-68 -39 -140 -62q81 -30 140 -63z" />
    <glyph glyph-name="plus" unicode="+" horiz-adv-x="1218" 
d="M1030 557h-348v-358h-145v358h-347l-2 131h349v359h145v-359h348v-131z" />
    <glyph glyph-name="comma" unicode="," 
d="M325 203q44 -47 44 -129q0 -123 -81 -210t-212 -102v64q82 14 128 63.5t42 112.5q-20 -10 -47 -10q-51 0 -86 32.5t-35 90.5q0 59 39 97t100 38q64 0 108 -47z" />
    <glyph glyph-name="hyphen" unicode="-" horiz-adv-x="1040" 
d="M903 563v-155h-766v155h766z" />
    <glyph glyph-name="period" unicode="." horiz-adv-x="405" 
d="M105.5 13q-37.5 38 -37.5 91q0 55 37.5 94.5t97.5 39.5q57 0 95 -39t38 -95q0 -53 -38 -91t-95 -38q-60 0 -97.5 38z" />
    <glyph glyph-name="slash" unicode="/" horiz-adv-x="804" 
d="M573 1315h170l-512 -1315h-170z" />
    <glyph glyph-name="zero" unicode="0" horiz-adv-x="1161" 
d="M226 159q-126 179 -126 496q0 319 126 500.5t354 181.5q229 0 355 -181t126 -501q0 -317 -127 -496t-354 -179q-228 0 -354 179zM805 271.5q76 136.5 76 383.5q0 250 -76 386.5t-225 136.5q-147 0 -224 -135.5t-77 -387.5q0 -248 76.5 -384t224.5 -136q149 0 225 136.5z
" />
    <glyph glyph-name="one" unicode="1" horiz-adv-x="716" 
d="M76 1114q141 0 219 49t106 152h156v-1315h-174v981h-307v133z" />
    <glyph glyph-name="two" unicode="2" horiz-adv-x="1026" 
d="M395 162h533v-162h-793v129l465 518q72 80 114 152.5t42 156.5q0 98 -65.5 160t-172.5 62q-115 0 -183.5 -69t-68.5 -173l2 -29h-170l-2 37q0 115 55.5 204t153.5 139t221 50q119 0 211 -47t142.5 -132t50.5 -193q0 -121 -54.5 -216.5t-138.5 -191.5z" />
    <glyph glyph-name="three" unicode="3" horiz-adv-x="1114" 
d="M900.5 687.5q109.5 -109.5 109.5 -281.5q0 -125 -59.5 -222.5t-164 -150.5t-235.5 -53q-129 0 -231.5 53t-160 150.5t-55.5 224.5h172q0 -121 78 -198t199 -77q125 0 204 77t79 200q0 111 -65.5 179t-172.5 81q-45 6 -139 6h-74v123l363 360h-564v154h770v-164l-342 -342
q179 -10 288.5 -119.5z" />
    <glyph glyph-name="four" unicode="4" horiz-adv-x="1107" 
d="M1028 426v-147h-160v-279h-168v279h-620v135l563 899h225v-887h160zM700 426v698l-434 -698h434z" />
    <glyph glyph-name="five" unicode="5" horiz-adv-x="1132" 
d="M813 790.5q98 -55.5 154.5 -152.5t56.5 -222q0 -129 -60.5 -228.5t-167 -153.5t-237.5 -54t-233.5 54t-159.5 151.5t-57 222.5h172q0 -119 77.5 -196t200.5 -77q125 0 207 79t82 204t-79 201.5t-206 76.5q-82 0 -151.5 -32.5t-106.5 -88.5l-166 25l170 713h649v-154h-516
l-96 -385q98 72 244 72q125 0 223 -55.5z" />
    <glyph glyph-name="six" unicode="6" horiz-adv-x="1130" 
d="M822.5 799.5q101.5 -54.5 159.5 -151.5t58 -222q0 -129 -61 -230.5t-171 -158.5t-247 -57q-135 0 -239.5 56t-161 155.5t-56.5 226.5q0 121 43 218t117 206l314 471h190l-326 -484q63 25 150 25q129 0 230.5 -54.5zM781 216q85 81 85 208q0 125 -82 201.5t-206 76.5
q-129 0 -214 -77.5t-85 -206.5q0 -125 81.5 -204t206.5 -79q129 0 214 81z" />
    <glyph glyph-name="seven" unicode="7" horiz-adv-x="925" 
d="M872 1313v-139l-534 -1174h-186l524 1159h-623v154h819z" />
    <glyph glyph-name="eight" unicode="8" horiz-adv-x="1126" 
d="M965.5 569q60.5 -90 60.5 -204q0 -117 -60.5 -204t-165 -134t-235.5 -47q-133 0 -238.5 47t-166 135t-60.5 205t61.5 204.5t164.5 126.5q-84 41 -132.5 119t-48.5 174q0 100 53.5 179t148.5 123t216 44q123 0 217 -45t146.5 -123.5t52.5 -179.5q0 -96 -49 -174t-129 -117
q104 -39 164.5 -129zM384 1124.5q-67 -55.5 -67 -145.5q0 -92 69 -150.5t179 -58.5q109 0 176.5 57.5t67.5 147.5q0 94 -67.5 149.5t-180.5 55.5q-110 0 -177 -55.5zM768 200.5q82 65.5 82 176.5t-81 173t-206 62t-206 -61.5t-81 -171.5q0 -113 83 -178.5t204 -65.5
q123 0 205 65.5z" />
    <glyph glyph-name="nine" unicode="9" horiz-adv-x="1148" 
d="M824.5 1279q105.5 -56 162.5 -156.5t57 -227.5q0 -84 -24.5 -160t-55 -129t-81.5 -133l-314 -473h-190l326 481q-63 -25 -150 -24q-129 0 -231.5 55t-160 152.5t-57.5 222.5q0 129 61.5 231.5t170 159.5t244.5 57q137 0 242.5 -56zM362.5 687q81.5 -77 206.5 -77
q129 0 214 79t85 206t-81.5 204t-208.5 77q-129 0 -213 -81t-84 -206t81.5 -202z" />
    <glyph glyph-name="colon" unicode=":" horiz-adv-x="600" 
d="M210 695q-40 38 -40 89t40 90t91 39t90 -38.5t39 -90.5q0 -51 -38 -89t-91 -38q-51 0 -91 38zM209 28q-39 38 -39 89t39 90t92 39q51 0 90 -39t39 -90t-38 -89t-91 -38t-92 38z" />
    <glyph glyph-name="semicolon" unicode=";" horiz-adv-x="540" 
d="M182 695q-39 38 -39 89q0 53 39 91t92 38t91 -37.5t38 -91.5q0 -53 -37.5 -90t-91.5 -37q-53 0 -92 38zM379 203q43 -47 43 -129q0 -123 -81 -210t-212 -102v64q82 14 128 63.5t42 112.5q-18 -10 -47 -10q-51 0 -86 32.5t-35 90.5q0 59 39 97t100 38q66 0 109 -47z" />
    <glyph glyph-name="less" unicode="&#x3c;" horiz-adv-x="778" 
d="M63 545l631 350v-184l-456 -254l456 -256v-183l-631 351v176z" />
    <glyph glyph-name="equal" unicode="=" horiz-adv-x="1093" 
d="M879 883v-148h-664v148h664zM879 473v-149h-664v149h664z" />
    <glyph glyph-name="greater" unicode="&#x3e;" horiz-adv-x="784" 
d="M84 201l457 256l-457 254v184l629 -350v-176l-629 -351v183z" />
    <glyph glyph-name="question" unicode="?" horiz-adv-x="966" 
d="M695 1294q89 -43 139.5 -119.5t50.5 -177.5q0 -104 -53.5 -179t-151.5 -163q-80 -72 -119 -123t-41 -112v-35h-160v35q0 98 50.5 166.5t146.5 152.5q84 76 124 128.5t40 119.5q0 96 -63.5 151.5t-170.5 55.5q-111 0 -178 -67.5t-65 -174.5h-162q0 106 50 194.5
t144.5 139.5t215.5 51q114 0 203 -43zM542 206q40 -38 40 -97q0 -57 -40 -95.5t-98 -38.5q-57 0 -98 38t-41 96q0 59 41 97t98 38q58 0 98 -38z" />
    <glyph glyph-name="at" unicode="@" horiz-adv-x="1961" 
d="M1427.5 1230.5q194.5 -106.5 305 -292.5t110.5 -422q0 -145 -45 -254.5t-129 -169t-194 -59.5q-121 0 -192 66.5t-79 162.5q-39 -68 -110.5 -107.5t-161.5 -39.5q-160 0 -258.5 104.5t-98.5 272.5q0 111 46.5 196.5t129.5 133.5t191 48q90 0 163 -38.5t109 -106.5l9 125
h110v-543q0 -72 41 -113.5t105 -41.5q104 0 163.5 94t59.5 258q0 205 -91 364.5t-254 248.5t-372 89q-213 0 -379 -92t-258 -256t-92 -373q0 -213 93 -376.5t259 -254t373 -90.5q229 0 405 111l64 -119q-207 -123 -469 -123q-244 0 -440.5 107.5t-309 301.5t-112.5 443
q0 250 112.5 443.5t310 301t445.5 107.5q246 0 440.5 -106.5zM1129.5 298q68.5 75 68.5 196t-66.5 192.5t-175.5 71.5q-115 0 -182 -75t-67 -191q0 -119 68.5 -194t176.5 -75q109 0 177.5 75z" />
    <glyph glyph-name="A" unicode="A" horiz-adv-x="1218" 
d="M510 1313h197l489 -1313h-188l-119 328h-563l-123 -328h-180zM838 475l-119 326q-57 162 -78 217l-31 88q4 0 -110 -309l-123 -322h461z" />
    <glyph glyph-name="B" unicode="B" horiz-adv-x="1181" 
d="M1042.5 536.5q59.5 -81.5 59.5 -194.5q0 -160 -117 -251t-309 -91h-520v1313h510q197 0 310.5 -96.5t113.5 -253.5q0 -113 -55.5 -190t-155.5 -116q104 -39 163.5 -120.5zM326 1159v-434h340q119 0 184 60.5t65 154.5q0 92 -67.5 155.5t-183.5 63.5h-338zM863.5 213
q68.5 57 68.5 156q0 102 -70.5 159.5t-181.5 57.5h-354v-430h354q115 0 183.5 57z" />
    <glyph glyph-name="C" unicode="C" horiz-adv-x="1439" 
d="M398.5 61q-150.5 86 -234.5 241t-84 355q0 201 83 355.5t234.5 240.5t345.5 86q154 0 284 -53t217 -151.5t116 -229.5h-197q-37 119 -152.5 194t-271.5 75q-139 0 -246.5 -65t-167 -181.5t-59.5 -272.5t59.5 -272.5t167 -179t246.5 -62.5q154 0 269.5 73t154.5 196h197
q-27 -129 -113 -227.5t-217 -153t-287 -54.5q-194 0 -344.5 86z" />
    <glyph glyph-name="D" unicode="D" horiz-adv-x="1335" 
d="M936.5 1229q150.5 -84 234.5 -233.5t84 -342.5t-82.5 -340t-233.5 -230t-345 -83h-438v1313h438q192 0 342.5 -84zM836.5 225.5q109.5 61.5 170 173t60.5 254.5q0 147 -60.5 260t-170 174.5t-254.5 61.5h-248v-985h248q145 0 254.5 61.5z" />
    <glyph glyph-name="E" unicode="E" horiz-adv-x="1075" 
d="M332 1147v-410h573v-155h-573v-418h635v-164h-811v1313h811v-166h-635z" />
    <glyph glyph-name="F" unicode="F" horiz-adv-x="1019" 
d="M334 1149v-432h524v-156h-524v-561h-178v1313h802v-164h-624z" />
    <glyph glyph-name="G" unicode="G" horiz-adv-x="1460" 
d="M1380 698v-106q0 -182 -81.5 -322.5t-228 -217.5t-335.5 -77q-195 0 -343 83t-230 237t-82 354q0 205 84 361.5t234.5 242.5t344.5 86q152 0 279 -53t213 -149.5t115 -221.5h-191q-43 121 -157.5 190t-264.5 69q-143 0 -249.5 -66t-165 -183.5t-58.5 -273.5
q0 -236 129 -373t350 -137q193 0 316 106.5t137 297.5h-487v153h671z" />
    <glyph glyph-name="H" unicode="H" horiz-adv-x="1314" 
d="M156 1313h178v-572h655v572h178v-1313h-178v588h-655v-588h-178v1313z" />
    <glyph glyph-name="I" unicode="I" horiz-adv-x="481" 
d="M156 0v1313h178v-1313h-178z" />
    <glyph glyph-name="J" unicode="J" horiz-adv-x="1021" 
d="M872 367q0 -180 -111.5 -286t-295.5 -106q-186 0 -296 107.5t-110 286.5v55h174v-51q0 -117 61.5 -177.5t168.5 -60.5q115 0 173 63.5t58 174.5v776h-448v164h626v-946z" />
    <glyph glyph-name="K" unicode="K" horiz-adv-x="1189" 
d="M696 748l457 -748h-217l-361 602l-241 -297v-307h-178v1315h178v-735l604 735h221z" />
    <glyph glyph-name="L" unicode="L" horiz-adv-x="927" 
d="M881 162v-162h-725v1313h178v-1151h547z" />
    <glyph glyph-name="M" unicode="M" horiz-adv-x="1554" 
d="M1401 1311v-1311h-174v424q0 250 14 508l-385 -895h-166l-379 887q18 -227 19 -500v-424h-174v1313h168l452 -1075l457 1075z" />
    <glyph glyph-name="N" unicode="N" horiz-adv-x="1329" 
d="M1176 1313v-1313h-170l-672 1006v-1006h-178v1313h170l671 -1010v1010h179z" />
    <glyph glyph-name="O" unicode="O" horiz-adv-x="1517" 
d="M1346.5 304.5q-89.5 -154.5 -244 -242t-344.5 -87.5t-345 86t-244 241t-89 353q0 197 89 352.5t243.5 243.5t345.5 88q190 0 344.5 -87t244 -243.5t89.5 -353.5q0 -196 -89.5 -350.5zM1184.5 921.5q-64.5 116.5 -176 182t-248.5 65.5q-139 0 -252 -65.5t-177.5 -182
t-64.5 -266.5t64.5 -266.5t177.5 -182t250 -65.5t249.5 65.5t177 182.5t64.5 266q0 150 -64.5 266.5z" />
    <glyph glyph-name="P" unicode="P" horiz-adv-x="1163" 
d="M985 1198q115 -115 115 -307q0 -121 -52.5 -217t-149.5 -150.5t-228 -54.5h-336v-469h-178v1313h518q196 0 311 -115zM842.5 701.5q72.5 76.5 72.5 195.5q0 113 -70.5 184.5t-197.5 71.5h-313v-528h305q131 0 203.5 76.5z" />
    <glyph glyph-name="Q" unicode="Q" horiz-adv-x="1517" 
d="M1359 325.5q-77 -147.5 -213 -237.5t-306 -108v-103q0 -80 34.5 -115.5t116.5 -35.5q33 0 70 4v-140q-61 -12 -109 -12q-283 0 -282 277v125q-170 18 -304.5 108t-210 237.5t-75.5 329.5q0 197 89 352.5t243.5 243.5t345.5 88q190 0 344.5 -87t244 -243.5t89.5 -353.5
q0 -182 -77 -329.5zM330.5 389q64.5 -117 177.5 -182.5t250 -65.5t249.5 65.5t177 182.5t64.5 266q0 150 -64.5 266.5t-176 182t-248.5 65.5q-139 0 -252 -65.5t-177.5 -182t-64.5 -266.5q0 -149 64.5 -266z" />
    <glyph glyph-name="R" unicode="R" horiz-adv-x="1208" 
d="M156 1313h510q219 0 337.5 -103.5t118.5 -289.5q0 -139 -68.5 -235.5t-191.5 -133.5l262 -551h-198l-242 520h-350v-520h-178v1313zM668 680q129 0 198.5 64.5t69.5 173.5t-70.5 172t-199.5 63h-332v-473h334z" />
    <glyph glyph-name="S" unicode="S" horiz-adv-x="1110" 
d="M229 1233.5q123 105.5 324 105.5q131 0 232.5 -47t157.5 -132t56 -195h-182q-2 100 -75.5 160.5t-194.5 60.5q-117 0 -186.5 -58.5t-69.5 -152.5q0 -96 59.5 -138t151.5 -65l221 -59q125 -31 217 -116t92 -237q0 -176 -129 -280.5t-344 -104.5q-207 0 -338 100.5
t-143 276.5h186q2 -106 86 -166.5t215 -60.5t207 59.5t76 159.5q0 92 -55.5 135t-139.5 68l-223 57q-139 35 -231.5 119t-92.5 231q0 174 123 279.5z" />
    <glyph glyph-name="T" unicode="T" horiz-adv-x="1048" 
d="M1018 1149h-404v-1149h-178v1149h-407v164h989v-164z" />
    <glyph glyph-name="U" unicode="U" horiz-adv-x="1318" 
d="M141 1313h181v-850q0 -172 97 -248t240 -76q150 0 245 81t95 243v850h179v-856q0 -160 -69 -267.5t-186.5 -161t-263.5 -53.5q-143 0 -259.5 51.5t-187.5 160t-71 270.5v856z" />
    <glyph glyph-name="V" unicode="V" horiz-adv-x="1249" 
d="M215 1313l217 -555l195 -541q27 76 90 252t106 289l215 555h189l-508 -1313h-184l-512 1313h192z" />
    <glyph glyph-name="W" unicode="W" horiz-adv-x="1859" 
d="M219 1313l182 -617q49 -164 80 -279.5t37 -144.5q88 274 168 533l150 473h190q66 -201 156 -491.5t157 -514.5q8 31 41 151t80 277l180 613h189l-404 -1313h-170l-79 256q-8 29 -27 85t-45 144q-59 184 -108.5 340t-65.5 213l-246 -782l-80 -256h-172l-401 1313h188z" />
    <glyph glyph-name="X" unicode="X" horiz-adv-x="1214" 
d="M252 1313l209 -295q49 -72 93 -140.5t58 -93.5l353 529h217l-463 -656l467 -657h-225l-205 291q-49 74 -90 137.5t-56 85.5l-360 -514h-215l465 653l-471 660h223z" />
    <glyph glyph-name="Y" unicode="Y" horiz-adv-x="1136" 
d="M229 1313l177 -307q59 -100 105 -187.5t58 -111.5q14 25 58.5 105.5t109.5 193.5l176 307h199l-453 -772v-541h-178v541l-458 772h206z" />
    <glyph glyph-name="Z" unicode="Z" horiz-adv-x="1107" 
d="M1022 1176l-711 -1012h711v-164h-938v141l711 1008h-699v164h926v-137z" />
    <glyph glyph-name="bracketleft" unicode="[" horiz-adv-x="505" 
d="M496 -135h-387v1597h387v-139h-240v-1321h240v-137z" />
    <glyph glyph-name="backslash" unicode="\" horiz-adv-x="690" 
d="M522 0l-522 1313h172l518 -1313h-168z" />
    <glyph glyph-name="bracketright" unicode="]" horiz-adv-x="503" 
d="M250 2v1321h-240v139h387v-1597h-387v137h240z" />
    <glyph glyph-name="asciicircum" unicode="^" horiz-adv-x="882" 
d="M571 887l-131 268l-129 -268h-151l205 426h151l207 -426h-152z" />
    <glyph glyph-name="underscore" unicode="_" horiz-adv-x="747" 
d="M752 -35v-133h-756v133h756z" />
    <glyph glyph-name="grave" unicode="`" horiz-adv-x="509" 
d="M31 1655l96 96l266 -293l-55 -53z" />
    <glyph glyph-name="a" unicode="a" horiz-adv-x="1155" 
d="M1018 903v-903h-160v160q-45 -84 -138 -134.5t-210 -50.5q-125 0 -222.5 59.5t-151.5 167t-54 247.5q0 143 56.5 252.5t155.5 169t228 59.5q115 0 203 -46t137 -126l15 145h141zM762 218q82 89 82 239q0 145 -81 232t-212 87q-135 0 -215 -89t-80 -234t80 -234.5
t211 -89.5q133 0 215 89z" />
    <glyph glyph-name="b" unicode="b" horiz-adv-x="1161" 
d="M867.5 870.5q99.5 -59.5 155.5 -168t56 -249.5t-55 -250t-154.5 -168.5t-226.5 -59.5q-117 0 -208 50.5t-138 136.5l-14 -162h-140v1405h166v-637q47 76 135 119t197 43q127 0 226.5 -59.5zM826 218q81 89 81 235q0 145 -81 234t-214 89t-211.5 -86t-78.5 -233
q0 -150 79.5 -239t212.5 -89q131 0 212 89z" />
    <glyph glyph-name="c" unicode="c" horiz-adv-x="1067" 
d="M141.5 702.5q59.5 108.5 165 168t242.5 59.5q174 0 293 -89t143 -241h-174q-20 84 -91 132t-173 48q-131 0 -212 -88t-81 -241q0 -147 78 -236.5t215 -89.5q102 0 174 49t90 129h174q-25 -147 -144.5 -237.5t-289.5 -90.5q-139 0 -245.5 59.5t-165 168t-58.5 250.5
q0 141 59.5 249.5z" />
    <glyph glyph-name="d" unicode="d" horiz-adv-x="1150" 
d="M1018 1405v-1405h-139l-15 162q-43 -84 -136 -135.5t-210 -51.5q-127 0 -226 59.5t-154.5 168t-55.5 250.5q0 141 56.5 249.5t155.5 168t226 59.5q113 0 200 -43t134 -119v637h164zM762 218q82 89 82 239q0 145 -81 232t-212 87q-135 0 -215 -89t-80 -234t80 -234.5
t211 -89.5q133 0 215 89z" />
    <glyph glyph-name="e" unicode="e" horiz-adv-x="1042" 
d="M821 56q-119 -81 -278 -81q-137 0 -241.5 60.5t-162 169t-57.5 250.5q0 141 58.5 249.5t162 167t234.5 58.5q129 0 226 -54.5t151.5 -151.5t54.5 -222q0 -68 -8 -103h-711q4 -129 85 -206.5t208 -77.5q94 0 164.5 42t97.5 113h166q-31 -133 -150 -214zM797 522
q-2 121 -74 192.5t-188 71.5q-123 0 -201 -71.5t-82 -192.5h545z" />
    <glyph glyph-name="f" unicode="f" horiz-adv-x="641" 
d="M425 1242q-34 -28 -42 -65.5t-8 -93.5v-180h221v-141h-221v-762h-170v762h-164v141h164v213q0 297 295 297q55 0 96 -8v-141q-23 6 -66 6q-71 0 -105 -28z" />
    <glyph glyph-name="g" unicode="g" horiz-adv-x="1140" 
d="M1008 903v-899q0 -197 -125 -315.5t-336 -118.5q-184 0 -305 95t-144 261h168q20 -98 95 -152.5t186 -54.5q139 0 215 76t76 205v190q-47 -78 -133.5 -121.5t-196.5 -43.5q-127 0 -224.5 58t-149.5 160.5t-52 229.5q0 129 53 233.5t151.5 164t227.5 59.5q113 0 198 -46
t132 -128l10 147h154zM746.5 261q80.5 87 80.5 216t-79.5 216t-210.5 87q-129 0 -205 -87t-76 -218t77 -216t204 -85q129 0 209.5 87z" />
    <glyph glyph-name="h" unicode="h" horiz-adv-x="1071" 
d="M143 1405h170v-625q41 70 120 110t171 40q154 0 244 -97.5t90 -273.5v-559h-170v520q0 139 -58.5 197.5t-148.5 58.5q-102 0 -175 -62.5t-73 -178.5v-535h-170v1405z" />
    <glyph glyph-name="i" unicode="i" horiz-adv-x="462" 
d="M142 1160q-36 36 -36 89q0 51 36 86t89 35q55 0 90 -35t35 -86t-34.5 -88t-90.5 -37q-53 0 -89 36zM147 903h170v-903h-170v903z" />
    <glyph glyph-name="j" unicode="j" horiz-adv-x="462" 
d="M142 1160q-36 36 -36 89q0 51 36 86t89 35q55 0 90 -35t35 -86t-34.5 -88t-90.5 -37q-53 0 -89 36zM147 903h170v-1306h-170v1306z" />
    <glyph glyph-name="k" unicode="k" horiz-adv-x="980" 
d="M614 567l310 -567h-191l-239 444l-181 -188v-256h-170v1405h170v-938l416 436h209z" />
    <glyph glyph-name="l" unicode="l" 
d="M143 1405h170v-1405h-170v1405z" />
    <glyph glyph-name="m" unicode="m" horiz-adv-x="1609" 
d="M1387.5 843q89.5 -87 89.5 -247v-598h-168v561q0 113 -52.5 168t-144.5 55q-100 0 -158.5 -67.5t-58.5 -163.5v-553h-168v561q0 104 -53 163.5t-148 59.5q-96 0 -154.5 -67.5t-58.5 -161.5v-555h-170v905h152l12 -115q39 66 109.5 104t154.5 38q102 0 180 -49.5
t111 -132.5q37 86 115 134t178 48q143 0 232.5 -87z" />
    <glyph glyph-name="n" unicode="n" horiz-adv-x="1067" 
d="M844 832.5q92 -97.5 92 -273.5v-559h-172v520q0 256 -207 256q-113 0 -178.5 -67.5t-65.5 -173.5v-533h-170v901h142l16 -127q41 70 122 112t175 42q154 0 246 -97.5z" />
    <glyph glyph-name="o" unicode="o" horiz-adv-x="1136" 
d="M143.5 694.5q61.5 108.5 172 172t251.5 63.5t253 -63.5t173.5 -172t61.5 -243.5q0 -133 -62.5 -242t-173 -171.5t-252.5 -62.5q-139 0 -249.5 62.5t-173 171t-62.5 242.5q0 135 61.5 243.5zM345 219q87 -92 222 -92q139 0 226.5 92t87.5 232q0 141 -87 234t-227 93
q-135 0 -222 -93t-87 -234q0 -140 87 -232z" />
    <glyph glyph-name="p" unicode="p" horiz-adv-x="1161" 
d="M868.5 870.5q98.5 -59.5 154.5 -169t56 -250.5q0 -139 -56 -248t-155.5 -168.5t-226.5 -59.5q-111 0 -198 42t-134 118v-538h-166v1306h140l14 -160q45 84 138 135.5t208 51.5q127 0 225.5 -59.5zM826 217q81 90 81 234q0 147 -81 235t-212 88q-133 0 -212.5 -89
t-79.5 -239q0 -147 79.5 -233t210.5 -86q133 0 214 90z" />
    <glyph glyph-name="q" unicode="q" horiz-adv-x="1150" 
d="M1018 903v-1306h-164v540q-47 -76 -135 -119t-195 -43q-129 0 -229 59.5t-156.5 168t-56.5 250.5q0 141 56.5 249.5t155.5 168t224 59.5q117 0 210 -51.5t136 -137.5l15 162h139zM763 214q81 87 81 235q0 147 -82 237t-215 90q-131 0 -211 -89t-80 -234q0 -147 80 -236.5
t215 -89.5q131 0 212 87z" />
    <glyph glyph-name="r" unicode="r" horiz-adv-x="663" 
d="M633 903v-145q-23 4 -64 4q-123 0 -189.5 -73t-66.5 -202v-487h-170v903h150l20 -137q23 70 86.5 107.5t147.5 37.5q45 0 86 -8z" />
    <glyph glyph-name="s" unicode="s" horiz-adv-x="894" 
d="M191.5 51q-101.5 76 -109.5 201h166q6 -70 60 -108t143 -38q88 0 137 35t49 99q0 63 -39 90.5t-100 40.5l-160 37q-119 27 -175.5 91t-56.5 156q0 125 94.5 200t245.5 75q154 0 249.5 -77t99.5 -204h-166q-2 70 -53.5 110t-131.5 40q-76 0 -120.5 -34t-44.5 -95
q0 -57 35.5 -83t93.5 -38l182 -41q113 -25 168 -91.5t55 -160.5q0 -129 -98.5 -205t-263.5 -76q-158 0 -259.5 76z" />
    <glyph glyph-name="t" unicode="t" horiz-adv-x="618" 
d="M571 762h-178v-762h-170v762h-176v141h176v240h170v-240h178v-141z" />
    <glyph glyph-name="u" unicode="u" horiz-adv-x="1046" 
d="M913 903v-903h-139l-16 131q-43 -78 -119 -117t-174 -39q-158 0 -245 94.5t-87 254.5v579h170v-547q0 -125 56.5 -178t158.5 -53t163.5 70.5t61.5 187.5v520h170z" />
    <glyph glyph-name="v" unicode="v" horiz-adv-x="964" 
d="M211 903l106 -285q49 -131 97.5 -261t64.5 -177q18 49 67.5 179t100.5 259l113 285h178l-377 -903h-170l-364 903h184z" />
    <glyph glyph-name="w" unicode="w" horiz-adv-x="1447" 
d="M219 903l94 -301q88 -276 113 -379q33 113 186 594l23 70h178q29 -86 98.5 -310.5t108.5 -359.5q39 152 104 352l109 334h178l-309 -903h-168q-92 281 -146.5 462t-62.5 218q-57 -203 -213 -680h-172l-303 903h182z" />
    <glyph glyph-name="x" unicode="x" horiz-adv-x="907" 
d="M225 0h-192l311 449l-315 454h200l228 -338l225 338h197l-318 -454l313 -449h-200q-109 156 -228 330z" />
    <glyph glyph-name="y" unicode="y" horiz-adv-x="976" 
d="M950 903l-413 -1079q-49 -121 -123 -182.5t-203 -61.5q-68 0 -141 21v139q8 -2 40.5 -8t73.5 -6q88 0 129 34.5t68 106.5l33 86l-387 950h182l285 -737l276 737h180z" />
    <glyph glyph-name="z" unicode="z" horiz-adv-x="899" 
d="M98 145l494 609h-494v149h701v-149l-498 -602h498v-152h-701v145z" />
    <glyph glyph-name="braceleft" unicode="{" horiz-adv-x="579" 
d="M382 730q-28 -58 -91 -91q66 -33 92.5 -95.5t26.5 -154.5v-280q0 -102 39.5 -146.5t115.5 -48.5v-121q-154 -2 -229.5 80t-75.5 225v285q0 109 -40 153t-111 44v118q72 2 111.5 45t39.5 152v285q0 156 81 231.5t224 73.5v-123q-88 -4 -121.5 -52t-33.5 -141v-280
q0 -101 -28 -159z" />
    <glyph glyph-name="bar" unicode="|" horiz-adv-x="681" 
d="M410 1436v-1600h-138v1600h138z" />
    <glyph glyph-name="braceright" unicode="}" horiz-adv-x="591" 
d="M359 743q40 -43 110 -45v-118q-70 0 -110 -44t-40 -153v-285q0 -143 -75.5 -225t-229.5 -80v121q84 4 120 52t36 143v280q0 92 26.5 154.5t90.5 95.5q-61 33 -89 91t-28 159v280q0 98 -38 143.5t-118 49.5v123q143 2 224 -74t81 -231v-285q0 -109 40 -152z" />
    <glyph glyph-name="asciitilde" unicode="~" horiz-adv-x="831" 
d="M772 666q4 -121 -54.5 -187.5t-148.5 -66.5q-51 0 -90 18.5t-96 54.5q-43 29 -69.5 42.5t-57.5 13.5q-82 0 -80 -111h-117q-4 117 53.5 183.5t147.5 66.5q51 0 93 -19.5t96 -56.5q41 -29 69.5 -42t56.5 -13q82 0 80 117h117z" />
    <glyph glyph-name="uni00A0" unicode="&#xa0;" horiz-adv-x="487" 
 />
    <glyph glyph-name="exclamdown" unicode="&#xa1;" horiz-adv-x="581" 
d="M393 1295q41 -40 41 -99q0 -61 -42 -101t-99 -40q-61 0 -103.5 40t-42.5 101q0 59 41 99t105 40q59 0 100 -40zM389 -2h-196l34 864h127z" />
    <glyph glyph-name="cent" unicode="&#xa2;" horiz-adv-x="1200" 
d="M786.5 405.5q71.5 49.5 90.5 129.5h174q-23 -139 -129.5 -227.5t-262.5 -98.5v-209h-118v211q-180 25 -287 151.5t-107 321.5t107.5 323t286.5 150v178h118v-176q158 -10 263.5 -98t128.5 -230h-174q-20 84 -91 132.5t-174 48.5q-131 0 -212 -88t-81 -242
q0 -147 78 -236.5t215 -89.5q103 0 174.5 49.5z" />
    <glyph glyph-name="sterling" unicode="&#xa3;" horiz-adv-x="1228" 
d="M1106 375v-375h-969v156q104 14 162.5 98t58.5 197q0 61 -20 127h-193v133h140q-25 61 -37 109t-12 106q0 119 54 212t153.5 146t230.5 53q184 0 300 -101t120 -267h-170q-2 102 -72 159.5t-182 57.5q-123 0 -192.5 -72t-69.5 -192q0 -55 13 -101.5t42 -109.5h422v-133
h-377q12 -49 12 -113q0 -94 -39 -181t-116 -128l591 -2v221h150z" />
    <glyph glyph-name="currency" unicode="&#xa4;" horiz-adv-x="1251" 
d="M987 399l154 -131l-113 -112l-135 149q-121 -88 -268 -88t-269 88l-133 -149l-112 112l153 131q-86 119 -86 263q0 143 86 266l-153 131l112 115l133 -152q119 90 269 90q145 0 268 -90l135 152l113 -115l-156 -131q88 -121 88 -266q0 -144 -86 -263zM769 412
q67 39 105.5 105.5t38.5 144.5t-38.5 145t-105.5 106t-144 39q-78 0 -144.5 -39t-106.5 -106.5t-40 -144.5q0 -78 40 -144.5t107.5 -105.5t143.5 -39q77 0 144 39z" />
    <glyph glyph-name="yen" unicode="&#xa5;" horiz-adv-x="1339" 
d="M821 676h258v-137h-325v-156h325v-135h-325v-248h-170v248h-328v135h328v156h-328v137h262l-393 637h199l346 -606v4l346 602h198z" />
    <glyph glyph-name="brokenbar" unicode="&#xa6;" horiz-adv-x="698" 
d="M426 1440v-625h-154v625h154zM426 516v-643h-154v643h154z" />
    <glyph glyph-name="section" unicode="&#xa7;" horiz-adv-x="1005" 
d="M241.5 -294q-102.5 87 -104.5 235h164q2 -90 60.5 -139.5t150.5 -49.5q94 0 146.5 47t52.5 125q0 86 -53.5 121t-125.5 47l-120 23q-115 20 -200 92t-85 201q0 100 54.5 171.5t148.5 96.5q-106 35 -156.5 104.5t-50.5 161.5q0 90 48 161t133 109.5t194 38.5
q164 0 266 -87t104 -232h-168q-2 90 -59 139t-152 49q-92 0 -143 -47t-51 -125q0 -86 53 -120.5t125 -47.5l121 -22q121 -20 203 -94t82 -199q0 -102 -56.5 -173t-146.5 -95q102 -35 153.5 -104.5t51.5 -164.5q0 -90 -48.5 -160.5t-133.5 -109.5t-191 -39q-164 0 -266.5 87z
M665.5 313q57.5 49 57.5 125q0 78 -61.5 123t-161.5 45q-104 0 -160.5 -48t-56.5 -124q0 -78 61.5 -124t159.5 -46q104 0 161.5 49z" />
    <glyph glyph-name="dieresis" unicode="&#xa8;" horiz-adv-x="692" 
d="M97.5 1434.5q-29.5 29.5 -29.5 70.5q0 45 29.5 75t74.5 30t74.5 -30t29.5 -75q0 -41 -29.5 -70.5t-74.5 -29.5t-74.5 29.5zM441.5 1434.5q-29.5 29.5 -29.5 70.5q0 45 29.5 75t74.5 30q43 0 72.5 -30t29.5 -75q0 -41 -29.5 -70.5t-72.5 -29.5q-45 0 -74.5 29.5z" />
    <glyph glyph-name="copyright" unicode="&#xa9;" horiz-adv-x="1286" 
d="M391 234.5q-115 66.5 -182.5 182t-67.5 253.5q0 137 67.5 251.5t182.5 182t252 67.5q139 0 255 -67.5t182.5 -182t66.5 -251.5t-66.5 -252t-182.5 -182.5t-255 -67.5q-137 0 -252 66.5zM851 315.5q93 55.5 147.5 148.5t54.5 206t-54.5 206t-147.5 147t-206 54t-207 -54
t-148 -148.5t-54 -204.5q0 -111 54 -205t148 -149.5t207 -55.5t206 55.5zM473 856q70 72 184 72q82 0 145.5 -48.5t82.5 -123.5h-101q-12 39 -48 62.5t-85 23.5q-70 0 -110.5 -47t-40.5 -125t41 -124t110 -46q49 0 84 22.5t49 63.5h101q-18 -76 -84 -124t-150 -48
q-111 0 -179.5 70.5t-68.5 185.5q0 114 70 186z" />
    <glyph glyph-name="guillemotleft" unicode="&#xab;" horiz-adv-x="966" 
d="M336 451l211 -367h-187l-210 367l210 366h187zM692 451l209 -367h-184l-209 367l209 366h184z" />
    <glyph glyph-name="logicalnot" unicode="&#xac;" horiz-adv-x="1120" 
d="M834 262v248h-728v178h908v-426h-180z" />
    <glyph glyph-name="registered" unicode="&#xae;" horiz-adv-x="1107" 
d="M801.5 1274.5q111.5 -62.5 176 -172t64.5 -242.5q0 -135 -64.5 -244.5t-175 -173t-245.5 -63.5t-247.5 62.5t-178 173t-65.5 245.5q0 133 65.5 242.5t178 172t247.5 62.5q133 0 244.5 -62.5zM756 514q90 51 142 141t52 203t-52 203t-143 141t-200 51q-113 0 -202 -51
t-140 -142t-51 -202q0 -113 51 -203t140 -141t202 -51q111 0 201 51zM662 811l71 -154h-94l-66 140h-90v-140h-88v402h191q72 0 110.5 -36t38.5 -95q1 -88 -73 -117zM483 874h97q27 0 43 12.5t16 37.5t-16.5 37t-42.5 12h-97v-99z" />
    <glyph glyph-name="macron" unicode="&#xaf;" horiz-adv-x="794" 
d="M649 1552v-127h-495v127h495z" />
    <glyph glyph-name="degree" unicode="&#xb0;" horiz-adv-x="528" 
d="M100.5 944.5q-65.5 65.5 -65.5 161.5q0 98 65.5 164.5t161.5 66.5t164 -66.5t68 -164.5q0 -96 -68 -161.5t-164 -65.5t-161.5 65.5zM351 1021q36 36 36 87t-36 87t-89 36q-51 0 -86 -36t-35 -87q0 -53 35 -88t86 -35q53 0 89 36z" />
    <glyph glyph-name="plusminus" unicode="&#xb1;" horiz-adv-x="925" 
d="M852 682v-143h-315v-207h-146v207h-317v143h317v205h146v-205h315zM74 143h778v-143h-778v143z" />
    <glyph glyph-name="uni00B2" unicode="&#xb2;" horiz-adv-x="792" 
d="M694 598v-127h-567v98l141 156q121 131 176.5 195.5t83 115.5t27.5 101q0 66 -43 104.5t-113 38.5q-80 0 -126 -52t-40 -128h-135q-6 88 32 158.5t110.5 109.5t162.5 39q129 0 209 -73.5t80 -188.5q0 -76 -33.5 -144.5t-99 -147.5t-225.5 -255h360z" />
    <glyph glyph-name="uni00B3" unicode="&#xb3;" horiz-adv-x="856" 
d="M674 949q76 -77 76 -193q0 -131 -93.5 -216t-234.5 -85q-139 0 -229.5 85t-88.5 220h136q0 -78 53 -128t131 -50q80 0 132 49t52 127q0 72 -48 120t-124 54q-23 4 -76 4h-61v94l238 238h-381v121h553v-123l-230 -230q119 -10 195 -87z" />
    <glyph glyph-name="acute" unicode="&#xb4;" horiz-adv-x="499" 
d="M131 1460l264 291l99 -96l-310 -250z" />
    <glyph glyph-name="mu" unicode="&#xb5;" horiz-adv-x="1216" 
d="M1122 125v-125q-49 -14 -100 -14q-78 0 -133 35.5t-76 101.5q-33 -66 -107.5 -106t-158.5 -40q-88 0 -155.5 38t-96.5 104v-563h-170v1347h170v-495q0 -143 64.5 -212t177.5 -69q117 0 183 70.5t66 193.5v512h170v-627q0 -74 22.5 -114.5t84.5 -40.5q43 0 59 4z" />
    <glyph glyph-name="paragraph" unicode="&#xb6;" horiz-adv-x="1024" 
d="M1059 1217h-146v-1432h-86v1432h-159v-1428h-150v905h-145q-143 0 -228.5 84t-85.5 228q0 139 85 224t229 85h686v-98z" />
    <glyph glyph-name="periodcentered" unicode="&#xb7;" horiz-adv-x="649" 
d="M199.5 430q-52.5 51 -52.5 121q0 72 52.5 124t124.5 52t125 -52t53 -124q0 -70 -53.5 -121t-124.5 -51q-72 0 -124.5 51z" />
    <glyph glyph-name="cedilla" unicode="&#xb8;" horiz-adv-x="516" 
d="M270 -102q63 0 115.5 -42t52.5 -120q0 -86 -61.5 -132t-149.5 -46q-84 0 -147 41v106q18 -23 51 -35t68 -12q47 0 77.5 20.5t30.5 61.5q0 35 -32.5 57.5t-79.5 22.5q-18 0 -29 -2l-41 47l98 198h78v-63l-63 -106q20 4 32 4z" />
    <glyph glyph-name="uni00B9" unicode="&#xb9;" horiz-adv-x="557" 
d="M76 1253q88 0 140 37t67 99h114v-918h-139v680h-182v102z" />
    <glyph glyph-name="guillemotright" unicode="&#xbb;" horiz-adv-x="966" 
d="M463 451l-211 -367h-186l210 367l-210 366h186zM817 451l-209 -367h-184l209 367l-209 366h184z" />
    <glyph glyph-name="onequarter" unicode="&#xbc;" horiz-adv-x="1454" 
d="M1415 293v-113h-106v-180h-133v180h-398v103l352 571h179v-561h106zM1176 293v426l-263 -426h263zM178 0l914 1372l88 -57l-914 -1370zM47 1180q86 0 138 35q52 36 67 98h113v-854h-140v618h-178v103z" />
    <glyph glyph-name="onehalf" unicode="&#xbd;" horiz-adv-x="1490" 
d="M1438 125v-125h-537v98l121 131q117 125 169 186q52 60 79 107t26 92q0 59 -38 94q-38 34 -101 33q-76 0 -115 -46t-32 -111h-133q-6 82 29 147q36 66 105 103t152 36q119 0 195 -68q76 -69 76 -177q0 -72 -31 -135q-31 -62 -90 -135t-205 -230h330zM178 0l914 1372
l88 -57l-914 -1370zM47 1180q86 0 138 35q52 36 67 98h113v-854h-140v618h-178v103z" />
    <glyph glyph-name="threequarters" unicode="&#xbe;" horiz-adv-x="1646" 
d="M1608 293v-113h-107v-180h-133v180h-397v103l352 571h178v-561h107zM1368 293v426l-262 -426h262zM371 0l913 1372l88 -57l-913 -1370zM588 903q70 -70 69 -180q0 -123 -86 -201t-219 -78t-217 80t-82 205h137q0 -70 47 -116q46 -46 117 -46q72 0 118 45t46 115
q0 61 -45 107q-45 45 -111 49q-20 4 -41 3q-22 -1 -28 -1h-57v94l215 213h-347v121h517v-123l-209 -205q106 -12 176 -82z" />
    <glyph glyph-name="questiondown" unicode="&#xbf;" horiz-adv-x="966" 
d="M425 1107q-40 38 -40 97q0 57 40 95t97 38t98.5 -37.5t41.5 -95.5q0 -59 -41 -97t-99 -38q-57 0 -97 38zM834.5 166q-50.5 -88 -144.5 -139.5t-215 -51.5q-115 0 -204 43t-139 120t-50 177q0 104 53 179t152 163q80 72 118.5 123t40.5 113v35h160v-35q0 -98 -50 -167
t-146 -153q-84 -76 -124 -128t-40 -119q0 -96 63.5 -151.5t169.5 -55.5q111 0 178.5 67.5t65.5 173.5h162q0 -106 -50.5 -194z" />
    <glyph glyph-name="Agrave" unicode="&#xc0;" horiz-adv-x="1218" 
d="M299 1649l96 96l267 -293l-56 -53zM510 1313h197l489 -1313h-188l-119 328h-563l-123 -328h-180zM838 475l-119 326q-57 162 -78 217l-31 88q4 0 -110 -309l-123 -322h461z" />
    <glyph glyph-name="Aacute" unicode="&#xc1;" horiz-adv-x="1218" 
d="M553 1454l264 291l98 -96l-309 -250zM510 1313h197l489 -1313h-188l-119 328h-563l-123 -328h-180zM838 475l-119 326q-57 162 -78 217l-31 88q4 0 -110 -309l-123 -322h461z" />
    <glyph glyph-name="Acircumflex" unicode="&#xc2;" horiz-adv-x="1218" 
d="M524 1696h160l186 -244l-82 -57l-184 186l-184 -186l-82 57zM510 1313h197l489 -1313h-188l-119 328h-563l-123 -328h-180zM838 475l-119 326q-57 162 -78 217l-31 88q4 0 -110 -309l-123 -322h461z" />
    <glyph glyph-name="Atilde" unicode="&#xc3;" horiz-adv-x="1218" 
d="M350 1470q0 74 38 115t99 41q35 0 64 -12t65 -35q33 -20 51.5 -28.5t39.5 -8.5q33 0 46 22.5t11 63.5h88q6 -27 6 -51q0 -72 -40 -113t-103 -41q-35 0 -63.5 12.5t-71.5 37.5q-20 12 -42 22t-40 10q-31 0 -44.5 -25.5t-9.5 -64.5h-88q-6 30 -6 55zM510 1313h197
l489 -1313h-188l-119 328h-563l-123 -328h-180zM838 475l-119 326q-57 162 -78 217l-31 88q4 0 -110 -309l-123 -322h461z" />
    <glyph glyph-name="Adieresis" unicode="&#xc4;" horiz-adv-x="1218" 
d="M359.5 1428.5q-29.5 29.5 -29.5 70.5q0 45 29.5 75t74.5 30t75 -30t30 -75q0 -41 -30 -70.5t-75 -29.5t-74.5 29.5zM703.5 1428.5q-29.5 29.5 -29.5 70.5q0 45 29.5 75t74.5 30q43 0 73 -30t30 -75q0 -41 -30 -70.5t-73 -29.5q-45 0 -74.5 29.5zM510 1313h197l489 -1313
h-188l-119 328h-563l-123 -328h-180zM838 475l-119 326q-57 162 -78 217l-31 88q4 0 -110 -309l-123 -322h461z" />
    <glyph glyph-name="Aring" unicode="&#xc5;" horiz-adv-x="1218" 
d="M450.5 1277q61.5 -60 159.5 -60t158.5 61t60.5 147q0 88 -60 149.5t-159 61.5q-98 0 -159.5 -61.5t-61.5 -149.5t61.5 -148zM679 1355.5q-30 -28.5 -69 -28.5q-41 0 -69.5 28.5t-28.5 74.5q0 43 29.5 71.5t68.5 28.5t69 -28.5t30 -71.5q0 -46 -30 -74.5zM510 1313h197
l489 -1313h-188l-119 328h-563l-123 -328h-180zM838 475l-119 326q-57 162 -78 217l-31 88q4 0 -110 -309l-123 -322h461z" />
    <glyph glyph-name="AE" unicode="&#xc6;" horiz-adv-x="1683" 
d="M932 1145v-404l579 -2v-159h-579v-412h643v-168h-813v354h-408l-135 -354h-196l514 1313l1038 -2v-168zM762 1145h-109l-241 -639h350v639z" />
    <glyph glyph-name="Ccedilla" unicode="&#xc7;" horiz-adv-x="1439" 
d="M752 -100q63 0 115.5 -42t52.5 -120q0 -86 -61.5 -132t-149.5 -46q-84 0 -148 41v106q18 -23 51 -35t68 -12q47 0 77.5 20.5t30.5 61.5q0 35 -32.5 57.5t-79.5 22.5q-18 0 -29 -2l-41 47l99 199h77v-64l-63 -106q21 4 33 4zM398.5 61q150.5 -86 344.5 -86q156 0 287 54.5
t217 153t113 227.5h-197q-39 -123 -154.5 -196t-269.5 -73q-139 0 -246.5 62.5t-167 179.5t-59.5 272q0 156 59.5 272.5t167 181.5t246.5 65q156 0 271.5 -75t152.5 -194h197q-29 131 -116 229.5t-217 151.5t-284 53q-195 0 -346 -86t-234 -240.5t-83 -355.5t84 -355.5
t234.5 -240.5z" />
    <glyph glyph-name="Egrave" unicode="&#xc8;" horiz-adv-x="1075" 
d="M246 1649l96 96l266 -293l-55 -53zM332 1147v-410h573v-155h-573v-418h635v-164h-811v1313h811v-166h-635z" />
    <glyph glyph-name="Eacute" unicode="&#xc9;" horiz-adv-x="1075" 
d="M500 1454l264 291l98 -96l-309 -250zM332 1147v-410h573v-155h-573v-418h635v-164h-811v1313h811v-166h-635z" />
    <glyph glyph-name="Ecircumflex" unicode="&#xca;" horiz-adv-x="1075" 
d="M471 1696h160l186 -244l-82 -57l-184 186l-184 -186l-82 57zM332 1147v-410h573v-155h-573v-418h635v-164h-811v1313h811v-166h-635z" />
    <glyph glyph-name="Edieresis" unicode="&#xcb;" horiz-adv-x="1075" 
d="M306 1428.5q-30 29.5 -30 70.5q0 45 30 75t75 30t74.5 -30t29.5 -75q0 -41 -29.5 -70.5t-74.5 -29.5t-75 29.5zM650.5 1428.5q-29.5 29.5 -29.5 70.5q0 45 29.5 75t74.5 30q43 0 72.5 -30t29.5 -75q0 -41 -29.5 -70.5t-72.5 -29.5q-45 0 -74.5 29.5zM332 1147v-410h573
v-155h-573v-418h635v-164h-811v1313h811v-166h-635z" />
    <glyph glyph-name="Igrave" unicode="&#xcc;" horiz-adv-x="481" 
d="M-63 1649l96 96l266 -293l-55 -53zM156 0v1313h178v-1313h-178z" />
    <glyph glyph-name="Iacute" unicode="&#xcd;" horiz-adv-x="481" 
d="M190 1454l265 291l98 -96l-309 -250zM156 0v1313h178v-1313h-178z" />
    <glyph glyph-name="Icircumflex" unicode="&#xce;" horiz-adv-x="481" 
d="M162 1696h160l186 -244l-82 -57l-184 186l-185 -186l-82 57zM156 0v1313h178v-1313h-178z" />
    <glyph glyph-name="Idieresis" unicode="&#xcf;" horiz-adv-x="481" 
d="M-3 1428.5q-30 29.5 -30 70.5q0 45 30 75t75 30t74.5 -30t29.5 -75q0 -41 -29.5 -70.5t-74.5 -29.5t-75 29.5zM341 1428.5q-30 29.5 -30 70.5q0 45 30 75t75 30q43 0 72.5 -30t29.5 -75q0 -41 -29.5 -70.5t-72.5 -29.5q-45 0 -75 29.5zM156 0v1313h178v-1313h-178z" />
    <glyph glyph-name="Eth" unicode="&#xd0;" horiz-adv-x="1439" 
d="M973.5 1229q150.5 -84 234.5 -233.5t84 -342.5t-83 -340t-233.5 -230t-344.5 -83h-438v590h-123v129h123v594h438q192 0 342.5 -84zM873.5 225.5q109.5 61.5 170 173t60.5 254.5q0 147 -60.5 260t-170 174.5t-255.5 61.5h-247v-430h211v-129h-211v-426h247
q146 0 255.5 61.5z" />
    <glyph glyph-name="Ntilde" unicode="&#xd1;" horiz-adv-x="1329" 
d="M414 1485q0 74 37.5 114.5t99.5 40.5q35 0 63.5 -12t65.5 -35q33 -20 51.5 -28.5t38.5 -8.5q33 0 46 23t11 63h88q6 -27 7 -51q0 -72 -40 -112.5t-104 -40.5q-35 0 -63.5 12t-71.5 37q-20 12 -41.5 22.5t-40.5 10.5q-31 0 -44 -26t-9 -64h-88q-6 30 -6 55zM1176 1313
v-1313h-170l-672 1006v-1006h-178v1313h170l671 -1010v1010h179z" />
    <glyph glyph-name="Ograve" unicode="&#xd2;" horiz-adv-x="1517" 
d="M451 1673l96 96l266 -292l-55 -54zM1346.5 304.5q-89.5 -154.5 -244 -242t-344.5 -87.5t-345 86t-244 241t-89 353q0 197 89 352.5t243.5 243.5t345.5 88q190 0 344.5 -87t244 -243.5t89.5 -353.5q0 -196 -89.5 -350.5zM1184.5 921.5q-64.5 116.5 -176 182t-248.5 65.5
q-139 0 -252 -65.5t-177.5 -182t-64.5 -266.5t64.5 -266.5t177.5 -182t250 -65.5t249.5 65.5t177 182.5t64.5 266q0 150 -64.5 266.5z" />
    <glyph glyph-name="Oacute" unicode="&#xd3;" horiz-adv-x="1517" 
d="M705 1479l264 290l98 -96l-309 -250zM1346.5 304.5q-89.5 -154.5 -244 -242t-344.5 -87.5t-345 86t-244 241t-89 353q0 197 89 352.5t243.5 243.5t345.5 88q190 0 344.5 -87t244 -243.5t89.5 -353.5q0 -196 -89.5 -350.5zM1184.5 921.5q-64.5 116.5 -176 182t-248.5 65.5
q-139 0 -252 -65.5t-177.5 -182t-64.5 -266.5t64.5 -266.5t177.5 -182t250 -65.5t249.5 65.5t177 182.5t64.5 266q0 150 -64.5 266.5z" />
    <glyph glyph-name="Ocircumflex" unicode="&#xd4;" horiz-adv-x="1517" 
d="M676 1720h160l186 -243l-82 -58l-184 187l-185 -187l-82 58zM1346.5 304.5q-89.5 -154.5 -244 -242t-344.5 -87.5t-345 86t-244 241t-89 353q0 197 89 352.5t243.5 243.5t345.5 88q190 0 344.5 -87t244 -243.5t89.5 -353.5q0 -196 -89.5 -350.5zM1184.5 921.5
q-64.5 116.5 -176 182t-248.5 65.5q-139 0 -252 -65.5t-177.5 -182t-64.5 -266.5t64.5 -266.5t177.5 -182t250 -65.5t249.5 65.5t177 182.5t64.5 266q0 150 -64.5 266.5z" />
    <glyph glyph-name="Otilde" unicode="&#xd5;" horiz-adv-x="1517" 
d="M502 1495q0 74 38 115t99 41q35 0 63.5 -12.5t65.5 -34.5q33 -20 51.5 -28.5t38.5 -8.5q33 0 46.5 22.5t10.5 63.5h89q6 -27 6 -51q0 -72 -40 -113t-104 -41q-35 0 -63.5 12.5t-71.5 36.5q-20 12 -41.5 22.5t-40.5 10.5q-31 0 -44 -25.5t-9 -64.5h-88q-6 30 -6 55z
M1346.5 304.5q-89.5 -154.5 -244 -242t-344.5 -87.5t-345 86t-244 241t-89 353q0 197 89 352.5t243.5 243.5t345.5 88q190 0 344.5 -87t244 -243.5t89.5 -353.5q0 -196 -89.5 -350.5zM1184.5 921.5q-64.5 116.5 -176 182t-248.5 65.5q-139 0 -252 -65.5t-177.5 -182
t-64.5 -266.5t64.5 -266.5t177.5 -182t250 -65.5t249.5 65.5t177 182.5t64.5 266q0 150 -64.5 266.5z" />
    <glyph glyph-name="Odieresis" unicode="&#xd6;" horiz-adv-x="1517" 
d="M511 1453q-30 30 -30 71q0 45 30 74.5t75 29.5t74.5 -29.5t29.5 -74.5q0 -41 -29.5 -71t-74.5 -30t-75 30zM855 1453q-30 30 -30 71q0 45 30 74.5t75 29.5q43 0 72.5 -29.5t29.5 -74.5q0 -41 -29.5 -71t-72.5 -30q-45 0 -75 30zM1346.5 304.5q-89.5 -154.5 -244 -242
t-344.5 -87.5t-345 86t-244 241t-89 353q0 197 89 352.5t243.5 243.5t345.5 88q190 0 344.5 -87t244 -243.5t89.5 -353.5q0 -196 -89.5 -350.5zM1184.5 921.5q-64.5 116.5 -176 182t-248.5 65.5q-139 0 -252 -65.5t-177.5 -182t-64.5 -266.5t64.5 -266.5t177.5 -182
t250 -65.5t249.5 65.5t177 182.5t64.5 266q0 150 -64.5 266.5z" />
    <glyph glyph-name="multiply" unicode="&#xd7;" horiz-adv-x="1069" 
d="M438 625l-245 247l92 95l247 -248l250 250l99 -97l-250 -249l250 -250l-97 -94l-247 249l-252 -252l-97 99z" />
    <glyph glyph-name="Oslash" unicode="&#xd8;" horiz-adv-x="1517" 
d="M1102.5 1252q154.5 -87 244 -243.5t89.5 -353.5t-89.5 -351t-244 -241.5t-344.5 -87.5t-345 86t-244 241t-89 353q0 197 89 352.5t243.5 243.5t345.5 88q190 0 344.5 -87zM308 435.5q42 -99.5 120 -169.5l533 862q-94 41 -201 41q-139 0 -252 -65.5t-177.5 -182
t-64.5 -266.5q0 -120 42 -219.5zM1007.5 206.5q112.5 65.5 177 182.5t64.5 266q0 121 -43 222.5t-121 171.5l-532 -865q92 -43 205 -43q137 0 249.5 65.5z" />
    <glyph glyph-name="Ugrave" unicode="&#xd9;" horiz-adv-x="1318" 
d="M354 1649l97 96l266 -293l-55 -53zM141 1313h181v-850q0 -172 97 -248t240 -76q150 0 245 81t95 243v850h179v-856q0 -160 -69 -267.5t-186.5 -161t-263.5 -53.5q-143 0 -259.5 51.5t-187.5 160t-71 270.5v856z" />
    <glyph glyph-name="Uacute" unicode="&#xda;" horiz-adv-x="1318" 
d="M608 1454l264 291l99 -96l-309 -250zM141 1313h181v-850q0 -172 97 -248t240 -76q150 0 245 81t95 243v850h179v-856q0 -160 -69 -267.5t-186.5 -161t-263.5 -53.5q-143 0 -259.5 51.5t-187.5 160t-71 270.5v856z" />
    <glyph glyph-name="Ucircumflex" unicode="&#xdb;" horiz-adv-x="1318" 
d="M580 1696h159l187 -244l-82 -57l-185 186l-184 -186l-82 57zM141 1313h181v-850q0 -172 97 -248t240 -76q150 0 245 81t95 243v850h179v-856q0 -160 -69 -267.5t-186.5 -161t-263.5 -53.5q-143 0 -259.5 51.5t-187.5 160t-71 270.5v856z" />
    <glyph glyph-name="Udieresis" unicode="&#xdc;" horiz-adv-x="1318" 
d="M414.5 1428.5q-29.5 29.5 -29.5 70.5q0 45 29.5 75t74.5 30t75 -30t30 -75q0 -41 -29.5 -70.5t-75.5 -29.5q-45 0 -74.5 29.5zM758.5 1428.5q-29.5 29.5 -29.5 70.5q0 45 29.5 75t75.5 30q43 0 72.5 -30t29.5 -75q0 -41 -29.5 -70.5t-72.5 -29.5q-46 0 -75.5 29.5z
M141 1313h181v-850q0 -172 97 -248t240 -76q150 0 245 81t95 243v850h179v-856q0 -160 -69 -267.5t-186.5 -161t-263.5 -53.5q-143 0 -259.5 51.5t-187.5 160t-71 270.5v856z" />
    <glyph glyph-name="Yacute" unicode="&#xdd;" horiz-adv-x="1136" 
d="M518 1452l264 291l99 -96l-310 -250zM229 1313l177 -307q59 -100 105 -187.5t58 -111.5q14 25 58.5 105.5t109.5 193.5l176 307h199l-453 -772v-541h-178v541l-458 772h206z" />
    <glyph glyph-name="Thorn" unicode="&#xde;" horiz-adv-x="1163" 
d="M985 967.5q115 -115.5 115 -312.5q0 -123 -52.5 -221t-149.5 -153.5t-228 -55.5h-336v-225h-178v1313h178v-230h340q196 0 311 -115.5zM842.5 459q72.5 78 72.5 200q0 117 -70.5 190t-197.5 73h-313v-541h305q131 0 203.5 78z" />
    <glyph glyph-name="germandbls" unicode="&#xdf;" horiz-adv-x="1120" 
d="M959.5 654.5q78.5 -105.5 78.5 -253.5q0 -123 -58 -217t-162.5 -146t-242.5 -52q-39 0 -75.5 4t-55.5 10v147q43 -12 113 -12q141 0 224 78t83 207q0 135 -86 208.5t-225 73.5h-33v150h29q100 0 159.5 57.5t59.5 153.5q0 100 -61.5 159.5t-165.5 59.5
q-109 0 -168.5 -69.5t-59.5 -190.5v-1024h-170v1030q0 184 111 294t293 110q174 0 283.5 -95.5t109.5 -253.5q0 -102 -53 -183t-142 -114q136 -26 214.5 -131.5z" />
    <glyph glyph-name="agrave" unicode="&#xe0;" horiz-adv-x="1155" 
d="M213 1264l96 96l266 -293l-55 -53zM1018 903v-903h-160v160q-45 -84 -138 -134.5t-210 -50.5q-125 0 -222.5 59.5t-151.5 167t-54 247.5q0 143 56.5 252.5t155.5 169t228 59.5q115 0 203 -46t137 -126l15 145h141zM762 218q82 89 82 239q0 145 -81 232t-212 87
q-135 0 -215 -89t-80 -234t80 -234.5t211 -89.5q133 0 215 89z" />
    <glyph glyph-name="aacute" unicode="&#xe1;" horiz-adv-x="1155" 
d="M467 1067l264 293l98 -96l-309 -250zM1018 903v-903h-160v160q-45 -84 -138 -134.5t-210 -50.5q-125 0 -222.5 59.5t-151.5 167t-54 247.5q0 143 56.5 252.5t155.5 169t228 59.5q115 0 203 -46t137 -126l15 145h141zM762 218q82 89 82 239q0 145 -81 232t-212 87
q-135 0 -215 -89t-80 -234t80 -234.5t211 -89.5q133 0 215 89z" />
    <glyph glyph-name="acircumflex" unicode="&#xe2;" horiz-adv-x="1155" 
d="M438 1311h160l184 -244l-80 -57l-184 186l-184 -186l-82 57zM1018 903v-903h-160v160q-45 -84 -138 -134.5t-210 -50.5q-125 0 -222.5 59.5t-151.5 167t-54 247.5q0 143 56.5 252.5t155.5 169t228 59.5q115 0 203 -46t137 -126l15 145h141zM762 218q82 89 82 239
q0 145 -81 232t-212 87q-135 0 -215 -89t-80 -234t80 -234.5t211 -89.5q133 0 215 89z" />
    <glyph glyph-name="atilde" unicode="&#xe3;" horiz-adv-x="1155" 
d="M264 1085q0 74 38 115t99 41q35 0 64 -12t65 -35q33 -20 51.5 -28.5t39.5 -8.5q33 0 46 22.5t11 63.5h88q6 -27 6 -51q0 -72 -40 -113t-103 -41q-35 0 -63.5 12.5t-71.5 36.5q-20 12 -42 22.5t-40 10.5q-31 0 -44.5 -25.5t-9.5 -64.5h-88q-6 30 -6 55zM1018 903v-903
h-160v160q-45 -84 -138 -134.5t-210 -50.5q-125 0 -222.5 59.5t-151.5 167t-54 247.5q0 143 56.5 252.5t155.5 169t228 59.5q115 0 203 -46t137 -126l15 145h141zM762 218q82 89 82 239q0 145 -81 232t-212 87q-135 0 -215 -89t-80 -234t80 -234.5t211 -89.5q133 0 215 89z
" />
    <glyph glyph-name="adieresis" unicode="&#xe4;" horiz-adv-x="1155" 
d="M273.5 1056.5q-29.5 28.5 -29.5 71.5q0 45 29.5 75t74.5 30t75 -29.5t30 -75.5q0 -43 -30 -71.5t-75 -28.5t-74.5 28.5zM617.5 1056.5q-29.5 28.5 -29.5 71.5q0 45 29.5 75t74.5 30q43 0 73 -29.5t30 -75.5q0 -43 -30 -71.5t-73 -28.5q-45 0 -74.5 28.5zM1018 903v-903
h-160v160q-45 -84 -138 -134.5t-210 -50.5q-125 0 -222.5 59.5t-151.5 167t-54 247.5q0 143 56.5 252.5t155.5 169t228 59.5q115 0 203 -46t137 -126l15 145h141zM762 218q82 89 82 239q0 145 -81 232t-212 87q-135 0 -215 -89t-80 -234t80 -234.5t211 -89.5q133 0 215 89z
" />
    <glyph glyph-name="aring" unicode="&#xe5;" horiz-adv-x="1155" 
d="M360.5 1039.5q-61.5 60.5 -61.5 148.5t61.5 149.5t159.5 61.5t158.5 -61.5t60.5 -149.5q0 -86 -61.5 -147.5t-157.5 -61.5q-98 0 -159.5 60.5zM588.5 1118.5q29.5 28.5 29.5 73.5q0 43 -29.5 71.5t-68.5 28.5t-68.5 -28.5t-29.5 -71.5q0 -45 28.5 -73.5t69.5 -28.5
q39 0 68.5 28.5zM1018 903v-903h-160v160q-45 -84 -138 -134.5t-210 -50.5q-125 0 -222.5 59.5t-151.5 167t-54 247.5q0 143 56.5 252.5t155.5 169t228 59.5q115 0 203 -46t137 -126l15 145h141zM762 218q82 89 82 239q0 145 -81 232t-212 87q-135 0 -215 -89t-80 -234
t80 -234.5t211 -89.5q133 0 215 89z" />
    <glyph glyph-name="ae" unicode="&#xe6;" horiz-adv-x="1677" 
d="M1602 270q-39 -133 -156 -213t-279 -80q-133 0 -234.5 57.5t-152.5 155.5q-43 -100 -140 -157.5t-228 -57.5q-154 0 -242 75t-88 200q0 127 92 198.5t258 71.5h264v64q0 102 -59 156.5t-162 54.5q-92 0 -151.5 -46.5t-63.5 -121.5h-151q8 137 112.5 220t267.5 83
q115 0 197 -46t123 -128q57 82 148.5 127t203.5 45q127 0 225.5 -54.5t152.5 -151.5t54 -218q0 -35 -4 -65.5t-6 -39.5h-706q2 -119 80.5 -199.5t211.5 -80.5q92 0 164 41t101 110h168zM956.5 712.5q-77.5 -71.5 -79.5 -192.5h546q-2 121 -75.5 192.5t-192.5 71.5
q-121 0 -198.5 -71.5zM696 401h-229q-109 0 -161 -38.5t-52 -108.5q0 -72 49 -111t133 -39q121 0 190.5 77t69.5 200v20z" />
    <glyph glyph-name="ccedilla" unicode="&#xe7;" horiz-adv-x="1067" 
d="M586 -94q63 0 115.5 -42t52.5 -120q0 -86 -61.5 -132t-149.5 -46q-84 0 -148 41v106q18 -23 51 -35t68 -12q47 0 78 20.5t31 61.5q0 35 -33 57.5t-80 22.5q-18 0 -29 -2l-41 47l99 199h77v-64l-63 -106q21 4 33 4zM141.5 702.5q-59.5 -108.5 -59.5 -249.5t58.5 -250
t165 -168.5t245.5 -59.5q170 0 290 90.5t144 237.5h-174q-18 -80 -90 -129t-174 -49q-137 0 -215 89t-78 237q0 154 81 241.5t212 87.5q102 0 173 -48t91 -132h174q-25 152 -143.5 241t-292.5 89q-137 0 -242.5 -59.5t-165 -168z" />
    <glyph glyph-name="egrave" unicode="&#xe8;" horiz-adv-x="1042" 
d="M229 1264l97 96l266 -293l-55 -53zM821 56q-119 -81 -278 -81q-137 0 -241.5 60.5t-162 169t-57.5 250.5q0 141 58.5 249.5t162 167t234.5 58.5q129 0 226 -54.5t151.5 -151.5t54.5 -222q0 -68 -8 -103h-711q4 -129 85 -206.5t208 -77.5q94 0 164.5 42t97.5 113h166
q-31 -133 -150 -214zM797 522q-2 121 -74 192.5t-188 71.5q-123 0 -201 -71.5t-82 -192.5h545z" />
    <glyph glyph-name="eacute" unicode="&#xe9;" horiz-adv-x="1042" 
d="M483 1069l265 291l98 -96l-309 -250zM821 56q-119 -81 -278 -81q-137 0 -241.5 60.5t-162 169t-57.5 250.5q0 141 58.5 249.5t162 167t234.5 58.5q129 0 226 -54.5t151.5 -151.5t54.5 -222q0 -68 -8 -103h-711q4 -129 85 -206.5t208 -77.5q94 0 164.5 42t97.5 113h166
q-31 -133 -150 -214zM797 522q-2 121 -74 192.5t-188 71.5q-123 0 -201 -71.5t-82 -192.5h545z" />
    <glyph glyph-name="ecircumflex" unicode="&#xea;" horiz-adv-x="1042" 
d="M455 1311h159l187 -244l-82 -57l-184 186l-185 -186l-82 57zM821 56q-119 -81 -278 -81q-137 0 -241.5 60.5t-162 169t-57.5 250.5q0 141 58.5 249.5t162 167t234.5 58.5q129 0 226 -54.5t151.5 -151.5t54.5 -222q0 -68 -8 -103h-711q4 -129 85 -206.5t208 -77.5
q94 0 164.5 42t97.5 113h166q-31 -133 -150 -214zM797 522q-2 121 -74 192.5t-188 71.5q-123 0 -201 -71.5t-82 -192.5h545z" />
    <glyph glyph-name="edieresis" unicode="&#xeb;" horiz-adv-x="1042" 
d="M289.5 1056.5q-29.5 28.5 -29.5 71.5q0 45 29.5 75t75.5 30q45 0 74.5 -29.5t29.5 -75.5q0 -43 -29.5 -71.5t-74.5 -28.5q-46 0 -75.5 28.5zM634 1056.5q-30 28.5 -30 71.5q0 45 30 75t75 30q43 0 72.5 -29.5t29.5 -75.5q0 -43 -29.5 -71.5t-72.5 -28.5q-45 0 -75 28.5z
M821 56q-119 -81 -278 -81q-137 0 -241.5 60.5t-162 169t-57.5 250.5q0 141 58.5 249.5t162 167t234.5 58.5q129 0 226 -54.5t151.5 -151.5t54.5 -222q0 -68 -8 -103h-711q4 -129 85 -206.5t208 -77.5q94 0 164.5 42t97.5 113h166q-31 -133 -150 -214zM797 522
q-2 121 -74 192.5t-188 71.5q-123 0 -201 -71.5t-82 -192.5h545z" />
    <glyph glyph-name="igrave" unicode="&#xec;" 
d="M-80 1260l96 96l267 -293l-56 -53zM313 903v-903h-170v903h170z" />
    <glyph glyph-name="iacute" unicode="&#xed;" 
d="M174 1065l264 291l99 -96l-310 -250zM313 903v-903h-170v903h170z" />
    <glyph glyph-name="icircumflex" unicode="&#xee;" 
d="M145 1307h160l187 -244l-82 -57l-185 186l-184 -186l-82 57zM313 903v-903h-170v903h170z" />
    <glyph glyph-name="idieresis" unicode="&#xef;" 
d="M-19.5 1039.5q-29.5 29.5 -29.5 70.5q0 45 29.5 74.5t74.5 29.5t75 -29.5t30 -74.5q0 -41 -30 -70.5t-75 -29.5t-74.5 29.5zM324.5 1039.5q-29.5 29.5 -29.5 70.5q0 45 29.5 74.5t74.5 29.5q43 0 73 -29.5t30 -74.5q0 -41 -30 -70.5t-73 -29.5q-45 0 -74.5 29.5zM313 903
v-903h-170v903h170z" />
    <glyph glyph-name="eth" unicode="&#xf0;" horiz-adv-x="1085" 
d="M953.5 681q50.5 -101 50.5 -235q0 -135 -58.5 -241.5t-164 -168t-242.5 -61.5q-135 0 -238.5 60.5t-161 166t-57.5 232.5q0 131 58.5 236.5t160.5 164t231 56.5q12 2 29 2q16 0 23 -2l-129 143l-240 -110l-49 102l209 96l-170 191h209l110 -121l217 102l47 -104l-184 -86
l205 -221q94 -101 144.5 -202zM752.5 216q78.5 91 78.5 233q0 139 -78.5 230t-209.5 91q-129 0 -208 -91t-79 -230q0 -141 79 -232.5t208 -91.5q131 0 209.5 91z" />
    <glyph glyph-name="ntilde" unicode="&#xf1;" horiz-adv-x="1067" 
d="M276 1085q0 74 38 115t100 41q35 0 63.5 -12t65.5 -35q33 -20 51 -28.5t39 -8.5q33 0 46 22.5t11 63.5h88q6 -27 6 -51q0 -72 -39.5 -113t-103.5 -41q-35 0 -63.5 12.5t-71.5 36.5q-20 12 -42 22.5t-40 10.5q-31 0 -44 -25.5t-9 -64.5h-88q-7 30 -7 55zM844 832.5
q92 -97.5 92 -273.5v-559h-172v520q0 256 -207 256q-113 0 -178.5 -67.5t-65.5 -173.5v-533h-170v901h142l16 -127q41 70 122 112t175 42q154 0 246 -97.5z" />
    <glyph glyph-name="ograve" unicode="&#xf2;" horiz-adv-x="1136" 
d="M260 1264l96 96l267 -293l-56 -53zM143.5 694.5q61.5 108.5 172 172t251.5 63.5t253 -63.5t173.5 -172t61.5 -243.5q0 -133 -62.5 -242t-173 -171.5t-252.5 -62.5q-139 0 -249.5 62.5t-173 171t-62.5 242.5q0 135 61.5 243.5zM345 219q87 -92 222 -92q139 0 226.5 92
t87.5 232q0 141 -87 234t-227 93q-135 0 -222 -93t-87 -234q0 -140 87 -232z" />
    <glyph glyph-name="oacute" unicode="&#xf3;" horiz-adv-x="1136" 
d="M514 1069l264 291l99 -96l-310 -250zM143.5 694.5q61.5 108.5 172 172t251.5 63.5t253 -63.5t173.5 -172t61.5 -243.5q0 -133 -62.5 -242t-173 -171.5t-252.5 -62.5q-139 0 -249.5 62.5t-173 171t-62.5 242.5q0 135 61.5 243.5zM345 219q87 -92 222 -92q139 0 226.5 92
t87.5 232q0 141 -87 234t-227 93q-135 0 -222 -93t-87 -234q0 -140 87 -232z" />
    <glyph glyph-name="ocircumflex" unicode="&#xf4;" horiz-adv-x="1136" 
d="M485 1311h160l186 -244l-81 -57l-185 186l-184 -186l-82 57zM143.5 694.5q61.5 108.5 172 172t251.5 63.5t253 -63.5t173.5 -172t61.5 -243.5q0 -133 -62.5 -242t-173 -171.5t-252.5 -62.5q-139 0 -249.5 62.5t-173 171t-62.5 242.5q0 135 61.5 243.5zM345 219
q87 -92 222 -92q139 0 226.5 92t87.5 232q0 141 -87 234t-227 93q-135 0 -222 -93t-87 -234q0 -140 87 -232z" />
    <glyph glyph-name="otilde" unicode="&#xf5;" horiz-adv-x="1136" 
d="M311 1085q0 74 38 115t100 41q35 0 63.5 -12t65.5 -35q33 -20 51 -28.5t39 -8.5q33 0 46 22.5t11 63.5h88q6 -27 6 -51q0 -72 -40 -113t-103 -41q-35 0 -63.5 12.5t-71.5 36.5q-20 12 -42 22.5t-40 10.5q-31 0 -44.5 -25.5t-8.5 -64.5h-89q-6 30 -6 55zM143.5 694.5
q61.5 108.5 172 172t251.5 63.5t253 -63.5t173.5 -172t61.5 -243.5q0 -133 -62.5 -242t-173 -171.5t-252.5 -62.5q-139 0 -249.5 62.5t-173 171t-62.5 242.5q0 135 61.5 243.5zM345 219q87 -92 222 -92q139 0 226.5 92t87.5 232q0 141 -87 234t-227 93q-135 0 -222 -93
t-87 -234q0 -140 87 -232z" />
    <glyph glyph-name="odieresis" unicode="&#xf6;" horiz-adv-x="1136" 
d="M320.5 1043.5q-29.5 29.5 -29.5 70.5q0 45 29.5 75t74.5 30t75 -30t30 -75q0 -41 -30 -70.5t-75 -29.5t-74.5 29.5zM664.5 1043.5q-29.5 29.5 -29.5 70.5q0 45 29.5 75t74.5 30q43 0 73 -30t30 -75q0 -41 -30 -70.5t-73 -29.5q-45 0 -74.5 29.5zM143.5 694.5
q61.5 108.5 172 172t251.5 63.5t253 -63.5t173.5 -172t61.5 -243.5q0 -133 -62.5 -242t-173 -171.5t-252.5 -62.5q-139 0 -249.5 62.5t-173 171t-62.5 242.5q0 135 61.5 243.5zM345 219q87 -92 222 -92q139 0 226.5 92t87.5 232q0 141 -87 234t-227 93q-135 0 -222 -93
t-87 -234q0 -140 87 -232z" />
    <glyph glyph-name="divide" unicode="&#xf7;" horiz-adv-x="1001" 
d="M415 871.5q-38 35.5 -38 84.5t38 86t87 37t86 -36.5t37 -86.5q0 -49 -37 -84.5t-86 -35.5t-87 35.5zM854 678v-143h-707v143h707zM415 171q-38 36 -38 83q0 49 38 86t87 37q47 0 85 -37t38 -86q0 -47 -37 -83t-86 -36t-87 36z" />
    <glyph glyph-name="oslash" unicode="&#xf8;" horiz-adv-x="1136" 
d="M197 -36l644 1032l109 -64l-646 -1033zM143.5 694.5q61.5 108.5 172 172t251.5 63.5t253 -63.5t173.5 -172t61.5 -243.5q0 -133 -62.5 -242t-173 -171.5t-252.5 -62.5q-139 0 -249.5 62.5t-173 171t-62.5 242.5q0 135 61.5 243.5zM345 219q87 -92 222 -92q139 0 226.5 92
t87.5 232q0 141 -87 234t-227 93q-135 0 -222 -93t-87 -234q0 -140 87 -232z" />
    <glyph glyph-name="ugrave" unicode="&#xf9;" horiz-adv-x="1046" 
d="M217 1237l96 96l267 -293l-56 -53zM913 903v-903h-139l-16 131q-43 -78 -119 -117t-174 -39q-158 0 -245 94.5t-87 254.5v579h170v-547q0 -125 56.5 -178t158.5 -53t163.5 70.5t61.5 187.5v520h170z" />
    <glyph glyph-name="uacute" unicode="&#xfa;" horiz-adv-x="1046" 
d="M471 1042l264 291l99 -96l-310 -250zM913 903v-903h-139l-16 131q-43 -78 -119 -117t-174 -39q-158 0 -245 94.5t-87 254.5v579h170v-547q0 -125 56.5 -178t158.5 -53t163.5 70.5t61.5 187.5v520h170z" />
    <glyph glyph-name="ucircumflex" unicode="&#xfb;" horiz-adv-x="1046" 
d="M442 1284h160l186 -244l-81 -57l-185 186l-184 -186l-82 57zM913 903v-903h-139l-16 131q-43 -78 -119 -117t-174 -39q-158 0 -245 94.5t-87 254.5v579h170v-547q0 -125 56.5 -178t158.5 -53t163.5 70.5t61.5 187.5v520h170z" />
    <glyph glyph-name="udieresis" unicode="&#xfc;" horiz-adv-x="1046" 
d="M277.5 1017q-29.5 30 -29.5 70q0 45 29.5 75t74.5 30t75 -29.5t30 -75.5q0 -41 -30 -70.5t-75 -29.5t-74.5 30zM621.5 1017q-29.5 30 -29.5 70q0 45 29.5 75t74.5 30q43 0 73 -29.5t30 -75.5q0 -41 -30 -70.5t-73 -29.5q-45 0 -74.5 30zM913 903v-903h-139l-16 131
q-43 -78 -119 -117t-174 -39q-158 0 -245 94.5t-87 254.5v579h170v-547q0 -125 56.5 -178t158.5 -53t163.5 70.5t61.5 187.5v520h170z" />
    <glyph glyph-name="yacute" unicode="&#xfd;" horiz-adv-x="976" 
d="M438 1042l264 291l99 -96l-309 -250zM950 903l-413 -1079q-49 -121 -123 -182.5t-203 -61.5q-68 0 -141 21v139q8 -2 40.5 -8t73.5 -6q88 0 129 34.5t68 106.5l33 86l-387 950h182l285 -737l276 737h180z" />
    <glyph glyph-name="thorn" unicode="&#xfe;" horiz-adv-x="1183" 
d="M885.5 868.5q105.5 -59.5 164 -167t58.5 -248.5q0 -139 -58.5 -247t-164 -167t-242.5 -59q-106 0 -193.5 37.5t-138.5 107.5v-533h-168v1760h166v-572q53 70 142.5 109t193.5 39q135 0 240.5 -59.5zM850 218q86 89 86 233q0 143 -87 233t-224 90q-135 0 -219 -90
t-84 -233t83.5 -232.5t219.5 -89.5q139 0 225 89z" />
    <glyph glyph-name="ydieresis" unicode="&#xff;" horiz-adv-x="976" 
d="M244.5 1017q-29.5 30 -29.5 70q0 45 29.5 75t74.5 30t75 -29.5t30 -75.5q0 -41 -29.5 -70.5t-75.5 -29.5q-45 0 -74.5 30zM588.5 1017q-29.5 30 -29.5 70q0 45 29.5 75t75.5 30q43 0 72.5 -29.5t29.5 -75.5q0 -41 -29.5 -70.5t-72.5 -29.5q-46 0 -75.5 30zM950 903
l-413 -1079q-49 -121 -123 -182.5t-203 -61.5q-68 0 -141 21v139q8 -2 40.5 -8t73.5 -6q88 0 129 34.5t68 106.5l33 86l-387 950h182l285 -737l276 737h180z" />
    <glyph glyph-name="Amacron" unicode="&#x100;" horiz-adv-x="1218" 
d="M854 1546v-127h-496v127h496zM510 1313h197l489 -1313h-188l-119 328h-563l-123 -328h-180zM838 475l-119 326q-57 162 -78 217l-31 88q4 0 -110 -309l-123 -322h461z" />
    <glyph glyph-name="amacron" unicode="&#x101;" horiz-adv-x="1155" 
d="M768 1161v-127h-496v127h496zM1018 903v-903h-160v160q-45 -84 -138 -134.5t-210 -50.5q-125 0 -222.5 59.5t-151.5 167t-54 247.5q0 143 56.5 252.5t155.5 169t228 59.5q115 0 203 -46t137 -126l15 145h141zM762 218q82 89 82 239q0 145 -81 232t-212 87
q-135 0 -215 -89t-80 -234t80 -234.5t211 -89.5q133 0 215 89z" />
    <glyph glyph-name="Abreve" unicode="&#x102;" horiz-adv-x="1218" 
d="M799 1466.5q-78 -67.5 -191 -67.5q-117 0 -194.5 68.5t-87.5 181.5h129q6 -59 48 -93t105 -34t103.5 34.5t46.5 92.5h129q-10 -115 -88 -182.5zM510 1313h197l489 -1313h-188l-119 328h-563l-123 -328h-180zM838 475l-119 326q-57 162 -78 217l-31 88q4 0 -110 -309
l-123 -322h461z" />
    <glyph glyph-name="abreve" unicode="&#x103;" horiz-adv-x="1155" 
d="M713 1081.5q-78 -67.5 -191 -67.5q-117 0 -194.5 68.5t-87.5 181.5h129q6 -59 48 -93t105 -34t103.5 34.5t46.5 92.5h129q-10 -115 -88 -182.5zM1018 903v-903h-160v160q-45 -84 -138 -134.5t-210 -50.5q-125 0 -222.5 59.5t-151.5 167t-54 247.5q0 143 56.5 252.5
t155.5 169t228 59.5q115 0 203 -46t137 -126l15 145h141zM762 218q82 89 82 239q0 145 -81 232t-212 87q-135 0 -215 -89t-80 -234t80 -234.5t211 -89.5q133 0 215 89z" />
    <glyph glyph-name="Aogonek" unicode="&#x104;" horiz-adv-x="1218" 
d="M1194 0q-57 -27 -85 -64.5t-28 -74.5q0 -31 19.5 -49.5t50.5 -18.5q23 0 53 12v-100q-55 -18 -98 -18q-72 0 -113 38.5t-41 94.5q0 49 34 98t99 82h109zM510 1313h197l489 -1313h-188l-119 328h-563l-123 -328h-180zM838 475l-119 326q-57 162 -78 217l-31 88
q4 0 -110 -309l-123 -322h461z" />
    <glyph glyph-name="aogonek" unicode="&#x105;" horiz-adv-x="1155" 
d="M1018 0q-57 -27 -85 -64.5t-28 -74.5q0 -31 19.5 -49.5t50.5 -18.5q23 0 53 12v-100q-55 -18 -98 -18q-72 0 -113 38.5t-41 94.5q0 49 34 98t99 82h109zM1018 903v-903h-160v160q-45 -84 -138 -134.5t-210 -50.5q-125 0 -222.5 59.5t-151.5 167t-54 247.5
q0 143 56.5 252.5t155.5 169t228 59.5q115 0 203 -46t137 -126l15 145h141zM762 218q82 89 82 239q0 145 -81 232t-212 87q-135 0 -215 -89t-80 -234t80 -234.5t211 -89.5q133 0 215 89z" />
    <glyph glyph-name="Cacute" unicode="&#x106;" horiz-adv-x="1439" 
d="M690 1477l264 292l99 -96l-310 -250zM398.5 61q-150.5 86 -234.5 241t-84 355q0 201 83 355.5t234.5 240.5t345.5 86q154 0 284 -53t217 -151.5t116 -229.5h-197q-37 119 -152.5 194t-271.5 75q-139 0 -246.5 -65t-167 -181.5t-59.5 -272.5t59.5 -272.5t167 -179
t246.5 -62.5q154 0 269.5 73t154.5 196h197q-27 -129 -113 -227.5t-217 -153t-287 -54.5q-194 0 -344.5 86z" />
    <glyph glyph-name="cacute" unicode="&#x107;" horiz-adv-x="1067" 
d="M498 1067l264 293l98 -96l-309 -250zM141.5 702.5q59.5 108.5 165 168t242.5 59.5q174 0 293 -89t143 -241h-174q-20 84 -91 132t-173 48q-131 0 -212 -88t-81 -241q0 -147 78 -236.5t215 -89.5q102 0 174 49t90 129h174q-25 -147 -144.5 -237.5t-289.5 -90.5
q-139 0 -245.5 59.5t-165 168t-58.5 250.5q0 141 59.5 249.5z" />
    <glyph glyph-name="Ccircumflex" unicode="&#x108;" horiz-adv-x="1439" 
d="M662 1720h159l185 -243l-80 -58l-185 187l-184 -187l-82 58zM398.5 61q-150.5 86 -234.5 241t-84 355q0 201 83 355.5t234.5 240.5t345.5 86q154 0 284 -53t217 -151.5t116 -229.5h-197q-37 119 -152.5 194t-271.5 75q-139 0 -246.5 -65t-167 -181.5t-59.5 -272.5
t59.5 -272.5t167 -179t246.5 -62.5q154 0 269.5 73t154.5 196h197q-27 -129 -113 -227.5t-217 -153t-287 -54.5q-194 0 -344.5 86z" />
    <glyph glyph-name="ccircumflex" unicode="&#x109;" horiz-adv-x="1067" 
d="M469 1311h160l184 -244l-80 -57l-184 186l-184 -186l-82 57zM141.5 702.5q59.5 108.5 165 168t242.5 59.5q174 0 293 -89t143 -241h-174q-20 84 -91 132t-173 48q-131 0 -212 -88t-81 -241q0 -147 78 -236.5t215 -89.5q102 0 174 49t90 129h174q-25 -147 -144.5 -237.5
t-289.5 -90.5q-139 0 -245.5 59.5t-165 168t-58.5 250.5q0 141 59.5 249.5z" />
    <glyph glyph-name="Cdotaccent" unicode="&#x10a;" horiz-adv-x="1439" 
d="M668.5 1466.5q-29.5 28.5 -29.5 71.5q0 45 29.5 74.5t74.5 29.5t75 -29.5t30 -74.5q0 -43 -30 -71.5t-75 -28.5t-74.5 28.5zM398.5 61q-150.5 86 -234.5 241t-84 355q0 201 83 355.5t234.5 240.5t345.5 86q154 0 284 -53t217 -151.5t116 -229.5h-197q-37 119 -152.5 194
t-271.5 75q-139 0 -246.5 -65t-167 -181.5t-59.5 -272.5t59.5 -272.5t167 -179t246.5 -62.5q154 0 269.5 73t154.5 196h197q-27 -129 -113 -227.5t-217 -153t-287 -54.5q-194 0 -344.5 86z" />
    <glyph glyph-name="cdotaccent" unicode="&#x10b;" horiz-adv-x="1067" 
d="M476 1056.5q-30 28.5 -30 71.5q0 45 30 75t75 30t74.5 -29.5t29.5 -75.5q0 -43 -29.5 -71.5t-74.5 -28.5t-75 28.5zM141.5 702.5q59.5 108.5 165 168t242.5 59.5q174 0 293 -89t143 -241h-174q-20 84 -91 132t-173 48q-131 0 -212 -88t-81 -241q0 -147 78 -236.5
t215 -89.5q102 0 174 49t90 129h174q-25 -147 -144.5 -237.5t-289.5 -90.5q-139 0 -245.5 59.5t-165 168t-58.5 250.5q0 141 59.5 249.5z" />
    <glyph glyph-name="Ccaron" unicode="&#x10c;" horiz-adv-x="1439" 
d="M559 1733l184 -189l185 189l82 -60l-187 -243h-159l-187 243zM398.5 61q-150.5 86 -234.5 241t-84 355q0 201 83 355.5t234.5 240.5t345.5 86q154 0 284 -53t217 -151.5t116 -229.5h-197q-37 119 -152.5 194t-271.5 75q-139 0 -246.5 -65t-167 -181.5t-59.5 -272.5
t59.5 -272.5t167 -179t246.5 -62.5q154 0 269.5 73t154.5 196h197q-27 -129 -113 -227.5t-217 -153t-287 -54.5q-194 0 -344.5 86z" />
    <glyph glyph-name="ccaron" unicode="&#x10d;" horiz-adv-x="1067" 
d="M367 1323l184 -188l184 188l82 -59l-186 -244h-160l-186 244zM141.5 702.5q59.5 108.5 165 168t242.5 59.5q174 0 293 -89t143 -241h-174q-20 84 -91 132t-173 48q-131 0 -212 -88t-81 -241q0 -147 78 -236.5t215 -89.5q102 0 174 49t90 129h174q-25 -147 -144.5 -237.5
t-289.5 -90.5q-139 0 -245.5 59.5t-165 168t-58.5 250.5q0 141 59.5 249.5z" />
    <glyph glyph-name="Dcaron" unicode="&#x10e;" horiz-adv-x="1335" 
d="M354 1706l185 -188l184 188l82 -59l-187 -244h-159l-187 244zM936.5 1229q150.5 -84 234.5 -233.5t84 -342.5t-82.5 -340t-233.5 -230t-345 -83h-438v1313h438q192 0 342.5 -84zM836.5 225.5q109.5 61.5 170 173t60.5 254.5q0 147 -60.5 260t-170 174.5t-254.5 61.5h-248
v-985h248q145 0 254.5 61.5z" />
    <glyph glyph-name="dcaron" unicode="&#x10f;" horiz-adv-x="1234" 
d="M838 1405h168v-1405h-156l-8 152q-47 -82 -134 -127t-196 -45q-131 0 -229.5 60t-151.5 166.5t-53 244.5q0 137 53 245.5t151.5 170t229.5 61.5q104 0 192.5 -41t133.5 -117v635zM1241 1405l-31 -414h-110v414h141zM745.5 220q77.5 89 77.5 235q0 143 -77.5 231
t-208.5 88q-129 0 -208 -88t-79 -231q0 -145 79 -234.5t208 -89.5q131 0 208.5 89z" />
    <glyph glyph-name="Dcroat" unicode="&#x110;" horiz-adv-x="1464" 
d="M994.5 1229q150.5 -84 234.5 -233.5t84 -342.5t-83 -340t-233.5 -230t-345.5 -83h-438v590h-123v129h123v594h438q193 0 343.5 -84zM894 225.5q110 61.5 170 173t60 254.5q0 147 -60 260t-170 174.5t-255 61.5h-248v-430h211v-129h-211v-426h248q145 0 255 61.5z" />
    <glyph glyph-name="dcroat" unicode="&#x111;" horiz-adv-x="1155" 
d="M1199 1222v-112h-649v112h649zM1018 1405v-1405h-139l-15 162q-43 -84 -136 -135.5t-210 -51.5q-127 0 -226 59.5t-154.5 168t-55.5 250.5q0 141 56.5 249.5t155.5 168t226 59.5q113 0 200 -43t134 -119v637h164zM762 218q82 89 82 239q0 145 -81 232t-212 87
q-135 0 -215 -89t-80 -234t80 -234.5t211 -89.5q133 0 215 89z" />
    <glyph glyph-name="Emacron" unicode="&#x112;" horiz-adv-x="1075" 
d="M801 1546v-127h-496v127h496zM332 1147v-410h573v-155h-573v-418h635v-164h-811v1313h811v-166h-635z" />
    <glyph glyph-name="emacron" unicode="&#x113;" horiz-adv-x="1042" 
d="M784 1161v-127h-495v127h495zM821 56q-119 -81 -278 -81q-137 0 -241.5 60.5t-162 169t-57.5 250.5q0 141 58.5 249.5t162 167t234.5 58.5q129 0 226 -54.5t151.5 -151.5t54.5 -222q0 -68 -8 -103h-711q4 -129 85 -206.5t208 -77.5q94 0 164.5 42t97.5 113h166
q-31 -133 -150 -214zM797 522q-2 121 -74 192.5t-188 71.5q-123 0 -201 -71.5t-82 -192.5h545z" />
    <glyph glyph-name="Ebreve" unicode="&#x114;" horiz-adv-x="1075" 
d="M745.5 1466.5q-77.5 -67.5 -190.5 -67.5q-117 0 -194.5 68.5t-88.5 181.5h129q6 -59 48.5 -93t105.5 -34t103 34.5t47 92.5h129q-11 -115 -88.5 -182.5zM332 1147v-410h573v-155h-573v-418h635v-164h-811v1313h811v-166h-635z" />
    <glyph glyph-name="ebreve" unicode="&#x115;" horiz-adv-x="1042" 
d="M729 1081.5q-78 -67.5 -190 -67.5q-117 0 -195 68.5t-88 181.5h129q6 -59 48 -93t106 -34q63 0 103 34.5t46 92.5h129q-10 -115 -88 -182.5zM821 56q-119 -81 -278 -81q-137 0 -241.5 60.5t-162 169t-57.5 250.5q0 141 58.5 249.5t162 167t234.5 58.5q129 0 226 -54.5
t151.5 -151.5t54.5 -222q0 -68 -8 -103h-711q4 -129 85 -206.5t208 -77.5q94 0 164.5 42t97.5 113h166q-31 -133 -150 -214zM797 522q-2 121 -74 192.5t-188 71.5q-123 0 -201 -71.5t-82 -192.5h545z" />
    <glyph glyph-name="Edotaccent" unicode="&#x116;" horiz-adv-x="1075" 
d="M478.5 1441.5q-29.5 28.5 -29.5 71.5q0 45 29.5 75t74.5 30t74.5 -29.5t29.5 -75.5q0 -43 -29.5 -71.5t-74.5 -28.5t-74.5 28.5zM332 1147v-410h573v-155h-573v-418h635v-164h-811v1313h811v-166h-635z" />
    <glyph glyph-name="edotaccent" unicode="&#x117;" horiz-adv-x="1042" 
d="M462 1056.5q-30 28.5 -30 71.5q0 45 30 75t75 30t74.5 -29.5t29.5 -75.5q0 -43 -29.5 -71.5t-74.5 -28.5t-75 28.5zM821 56q-119 -81 -278 -81q-137 0 -241.5 60.5t-162 169t-57.5 250.5q0 141 58.5 249.5t162 167t234.5 58.5q129 0 226 -54.5t151.5 -151.5t54.5 -222
q0 -68 -8 -103h-711q4 -129 85 -206.5t208 -77.5q94 0 164.5 42t97.5 113h166q-31 -133 -150 -214zM797 522q-2 121 -74 192.5t-188 71.5q-123 0 -201 -71.5t-82 -192.5h545z" />
    <glyph glyph-name="Eogonek" unicode="&#x118;" horiz-adv-x="1075" 
d="M967 0q-57 -27 -85 -64.5t-28 -74.5q0 -31 19.5 -49.5t50.5 -18.5q23 0 53 12v-100q-55 -18 -98 -18q-72 0 -113 38.5t-41 94.5q0 49 34 98t99 82h109zM332 1147v-410h573v-155h-573v-418h635v-164h-811v1313h811v-166h-635z" />
    <glyph glyph-name="eogonek" unicode="&#x119;" horiz-adv-x="1042" 
d="M639 14q-57 -27 -85 -64.5t-28 -74.5q0 -31 19.5 -49.5t50.5 -18.5q23 0 53 13v-101q-55 -18 -98 -18q-72 0 -113 39t-41 94q0 49 34 98.5t99 81.5h109zM821 56q119 81 150 214h-166q-27 -72 -97.5 -113.5t-164.5 -41.5q-127 0 -208 77.5t-85 206.5h711q8 35 8 103
q0 125 -54.5 222t-151.5 151.5t-226 54.5q-131 0 -234.5 -58.5t-162 -167t-58.5 -249.5t57.5 -250t162 -169.5t241.5 -60.5q159 0 278 81zM797 522h-545q4 121 82 192.5t201 71.5q117 0 188.5 -71.5t73.5 -192.5z" />
    <glyph glyph-name="Ecaron" unicode="&#x11a;" horiz-adv-x="1075" 
d="M369 1708l184 -188l184 188l82 -59l-186 -244h-160l-186 244zM332 1147v-410h573v-155h-573v-418h635v-164h-811v1313h811v-166h-635z" />
    <glyph glyph-name="ecaron" unicode="&#x11b;" horiz-adv-x="1042" 
d="M352 1323l185 -188l184 188l82 -59l-187 -244h-159l-187 244zM821 56q-119 -81 -278 -81q-137 0 -241.5 60.5t-162 169t-57.5 250.5q0 141 58.5 249.5t162 167t234.5 58.5q129 0 226 -54.5t151.5 -151.5t54.5 -222q0 -68 -8 -103h-711q4 -129 85 -206.5t208 -77.5
q94 0 164.5 42t97.5 113h166q-31 -133 -150 -214zM797 522q-2 121 -74 192.5t-188 71.5q-123 0 -201 -71.5t-82 -192.5h545z" />
    <glyph glyph-name="Gcircumflex" unicode="&#x11c;" horiz-adv-x="1460" 
d="M662 1720h159l185 -243l-80 -58l-185 187l-184 -187l-82 58zM1380 698v-106q0 -182 -81.5 -322.5t-228 -217.5t-335.5 -77q-195 0 -343 83t-230 237t-82 354q0 205 84 361.5t234.5 242.5t344.5 86q152 0 279 -53t213 -149.5t115 -221.5h-191q-43 121 -157.5 190
t-264.5 69q-143 0 -249.5 -66t-165 -183.5t-58.5 -273.5q0 -236 129 -373t350 -137q193 0 316 106.5t137 297.5h-487v153h671z" />
    <glyph glyph-name="gcircumflex" unicode="&#x11d;" horiz-adv-x="1159" 
d="M530 1315h160l184 -230l-79 -54l-185 175l-184 -175l-82 54zM1008 903v-899q0 -197 -125 -315.5t-336 -118.5q-184 0 -305 95t-144 261h168q20 -98 95 -152.5t186 -54.5q139 0 215 76t76 205v190q-47 -78 -133.5 -121.5t-196.5 -43.5q-127 0 -224.5 58t-149.5 160.5
t-52 229.5q0 129 53 233.5t151.5 164t227.5 59.5q113 0 198 -46t132 -128l10 147h154zM746.5 261q80.5 87 80.5 216t-79.5 216t-210.5 87q-129 0 -205 -87t-76 -218t77 -216t204 -85q129 0 209.5 87z" />
    <glyph glyph-name="Gbreve" unicode="&#x11e;" horiz-adv-x="1460" 
d="M936 1491q-78 -68 -191 -68q-117 0 -194.5 69t-87.5 181h129q6 -59 48 -93t105 -34t103.5 35t46.5 92h129q-10 -114 -88 -182zM1380 698v-106q0 -182 -81.5 -322.5t-228 -217.5t-335.5 -77q-195 0 -343 83t-230 237t-82 354q0 205 84 361.5t234.5 242.5t344.5 86
q152 0 279 -53t213 -149.5t115 -221.5h-191q-43 121 -157.5 190t-264.5 69q-143 0 -249.5 -66t-165 -183.5t-58.5 -273.5q0 -236 129 -373t350 -137q193 0 316 106.5t137 297.5h-487v153h671z" />
    <glyph glyph-name="gbreve" unicode="&#x11f;" horiz-adv-x="1140" 
d="M706.5 1081.5q-77.5 -67.5 -190.5 -67.5q-117 0 -194.5 68.5t-88.5 181.5h129q6 -59 48.5 -93t105.5 -34t103 34.5t47 92.5h129q-11 -115 -88.5 -182.5zM1008 903v-899q0 -197 -125 -315.5t-336 -118.5q-184 0 -305 95t-144 261h168q20 -98 95 -152.5t186 -54.5
q139 0 215 76t76 205v190q-47 -78 -133.5 -121.5t-196.5 -43.5q-127 0 -224.5 58t-149.5 160.5t-52 229.5q0 129 53 233.5t151.5 164t227.5 59.5q113 0 198 -46t132 -128l10 147h154zM746.5 261q80.5 87 80.5 216t-79.5 216t-210.5 87q-129 0 -205 -87t-76 -218t77 -216
t204 -85q129 0 209.5 87z" />
    <glyph glyph-name="Gdotaccent" unicode="&#x120;" horiz-adv-x="1460" 
d="M668.5 1466.5q-29.5 28.5 -29.5 71.5q0 45 29.5 74.5t74.5 29.5t75 -29.5t30 -74.5q0 -43 -30 -71.5t-75 -28.5t-74.5 28.5zM1380 698v-106q0 -182 -81.5 -322.5t-228 -217.5t-335.5 -77q-195 0 -343 83t-230 237t-82 354q0 205 84 361.5t234.5 242.5t344.5 86
q152 0 279 -53t213 -149.5t115 -221.5h-191q-43 121 -157.5 190t-264.5 69q-143 0 -249.5 -66t-165 -183.5t-58.5 -273.5q0 -236 129 -373t350 -137q193 0 316 106.5t137 297.5h-487v153h671z" />
    <glyph glyph-name="gdotaccent" unicode="&#x121;" horiz-adv-x="1140" 
d="M439.5 1056.5q-29.5 28.5 -29.5 71.5q0 45 29.5 75t74.5 30t74.5 -29.5t29.5 -75.5q0 -43 -29.5 -71.5t-74.5 -28.5t-74.5 28.5zM1008 903v-899q0 -197 -125 -315.5t-336 -118.5q-184 0 -305 95t-144 261h168q20 -98 95 -152.5t186 -54.5q139 0 215 76t76 205v190
q-47 -78 -133.5 -121.5t-196.5 -43.5q-127 0 -224.5 58t-149.5 160.5t-52 229.5q0 129 53 233.5t151.5 164t227.5 59.5q113 0 198 -46t132 -128l10 147h154zM746.5 261q80.5 87 80.5 216t-79.5 216t-210.5 87q-129 0 -205 -87t-76 -218t77 -216t204 -85q129 0 209.5 87z" />
    <glyph glyph-name="uni0122" unicode="&#x122;" horiz-adv-x="1460" 
d="M862 -127q33 -37 33 -94q0 -96 -59.5 -151.5t-147.5 -53.5v45q59 6 88 36t29 73q-16 -10 -37 -11q-37 0 -62.5 26t-25.5 64q0 45 29.5 74t74.5 29t78 -37zM1380 698v-106q0 -182 -81.5 -322.5t-228 -217.5t-335.5 -77q-195 0 -343 83t-230 237t-82 354q0 205 84 361.5
t234.5 242.5t344.5 86q152 0 279 -53t213 -149.5t115 -221.5h-191q-43 121 -157.5 190t-264.5 69q-143 0 -249.5 -66t-165 -183.5t-58.5 -273.5q0 -236 129 -373t350 -137q193 0 316 106.5t137 297.5h-487v153h671z" />
    <glyph glyph-name="uni0123" unicode="&#x123;" horiz-adv-x="1140" 
d="M461 1069l264 291l98 -96l-309 -250zM1008 903v-899q0 -197 -125 -315.5t-336 -118.5q-184 0 -305 95t-144 261h168q20 -98 95 -152.5t186 -54.5q139 0 215 76t76 205v190q-47 -78 -133.5 -121.5t-196.5 -43.5q-127 0 -224.5 58t-149.5 160.5t-52 229.5q0 129 53 233.5
t151.5 164t227.5 59.5q113 0 198 -46t132 -128l10 147h154zM746.5 261q80.5 87 80.5 216t-79.5 216t-210.5 87q-129 0 -205 -87t-76 -218t77 -216t204 -85q129 0 209.5 87z" />
    <glyph glyph-name="Hbar" unicode="&#x126;" horiz-adv-x="1314" 
d="M1325 1085v-138h-1308v138h1308zM156 1313h178v-572h655v572h178v-1313h-178v588h-655v-588h-178v1313z" />
    <glyph glyph-name="hbar" unicode="&#x127;" horiz-adv-x="1071" 
d="M572 1061h-553v130h553v-130zM143 1405h170v-625q41 70 120 110t171 40q154 0 244 -97t90 -274v-559h-170v520q0 139 -58 198q-58 58 -149 58q-102 0 -175 -62t-73 -179v-535h-170v1405z" />
    <glyph glyph-name="Itilde" unicode="&#x128;" horiz-adv-x="481" 
d="M-12 1470q0 74 37.5 115t99.5 41q35 0 63.5 -12t65.5 -35q33 -20 51.5 -28.5t38.5 -8.5q33 0 46 22.5t11 63.5h88q6 -27 7 -51q0 -72 -40 -113t-104 -41q-35 0 -63.5 12.5t-71.5 37.5q-20 12 -41.5 22t-40.5 10q-31 0 -44 -25.5t-9 -64.5h-88q-6 30 -6 55zM156 0v1313
h178v-1313h-178z" />
    <glyph glyph-name="itilde" unicode="&#x129;" 
d="M-29 1081q0 74 38 115t100 41q35 0 63.5 -12.5t65.5 -34.5q33 -20 51 -28.5t39 -8.5q33 0 46 22.5t11 63.5h88q6 -27 6 -51q0 -72 -40 -113t-103 -41q-35 0 -63.5 12.5t-71.5 36.5q-20 12 -42 22.5t-40 10.5q-31 0 -44.5 -25.5t-8.5 -64.5h-89q-6 30 -6 55zM313 903v-903
h-170v903h170z" />
    <glyph glyph-name="Imacron" unicode="&#x12a;" horiz-adv-x="481" 
d="M492 1546v-127h-496v127h496zM156 0v1313h178v-1313h-178z" />
    <glyph glyph-name="imacron" unicode="&#x12b;" 
d="M475 1157v-127h-495v127h495zM313 903v-903h-170v903h170z" />
    <glyph glyph-name="Iogonek" unicode="&#x12e;" horiz-adv-x="481" 
d="M336 20q-57 -27 -85 -64.5t-28 -74.5q0 -31 19.5 -49t50.5 -18q23 0 53 12v-100q-55 -18 -98 -19q-72 0 -113 39t-41 94q0 49 34 98.5t99 81.5h109zM156 0v1313h178v-1313h-178z" />
    <glyph glyph-name="iogonek" unicode="&#x12f;" 
d="M313 0q-57 -27 -84.5 -64.5t-27.5 -74.5q0 -31 19.5 -49.5t49.5 -18.5q23 0 54 12v-100q-55 -18 -99 -18q-72 0 -112.5 38.5t-40.5 94.5q0 49 33.5 98t99.5 82h108zM152.5 1052.5q-29.5 28.5 -29.5 71.5q0 45 29.5 75t74.5 30t75 -30t30 -75q0 -43 -30 -71.5t-75 -28.5
t-74.5 28.5zM313 903v-903h-170v903h170z" />
    <glyph glyph-name="Idotaccent" unicode="&#x130;" horiz-adv-x="481" 
d="M169 1441.5q-30 28.5 -30 71.5q0 45 30 75t75 30t74.5 -29.5t29.5 -75.5q0 -43 -29.5 -71.5t-74.5 -28.5t-75 28.5zM156 0v1313h178v-1313h-178z" />
    <glyph glyph-name="dotlessi" unicode="&#x131;" 
d="M313 903v-903h-170v903h170z" />
    <glyph glyph-name="Jcircumflex" unicode="&#x134;" horiz-adv-x="1021" 
d="M473 1698h160l184 -244l-80 -57l-184 186l-184 -186l-82 57zM872 367q0 -180 -111.5 -286t-295.5 -106q-186 0 -296 107.5t-110 286.5v55h174v-51q0 -117 61.5 -177.5t168.5 -60.5q115 0 173 63.5t58 174.5v776h-448v164h626v-946z" />
    <glyph glyph-name="jcircumflex" unicode="&#x135;" horiz-adv-x="481" 
d="M176 1307h160l184 -244l-80 -57l-184 186l-184 -186l-82 57zM172 903h170v-1306h-170v1306z" />
    <glyph glyph-name="uni0136" unicode="&#x136;" horiz-adv-x="1189" 
d="M723 -102.5q33 -36.5 33 -94.5q0 -96 -59.5 -151t-147.5 -53v45q59 6 88 35.5t29 72.5q-16 -10 -37 -10q-37 0 -62.5 25.5t-25.5 64.5q0 45 29.5 73.5t74.5 28.5t78 -36.5zM696 748l457 -748h-217l-361 602l-241 -297v-307h-178v1315h178v-735l604 735h221z" />
    <glyph glyph-name="uni0137" unicode="&#x137;" horiz-adv-x="980" 
d="M590 -100q33 -37 33 -95q0 -96 -59.5 -151t-147.5 -53v45q59 6 87.5 35.5t28.5 72.5q-16 -10 -36 -10q-37 0 -62.5 25.5t-25.5 64.5q0 45 29.5 74t74.5 29t78 -37zM614 567l310 -567h-191l-239 444l-181 -188v-256h-170v1405h170v-938l416 436h209z" />
    <glyph glyph-name="Lacute" unicode="&#x139;" horiz-adv-x="927" 
d="M190 1450l265 293l98 -96l-309 -250zM881 162v-162h-725v1313h178v-1151h547z" />
    <glyph glyph-name="lacute" unicode="&#x13a;" 
d="M176 1544l264 291l99 -96l-310 -250zM143 1405h170v-1405h-170v1405z" />
    <glyph glyph-name="uni013B" unicode="&#x13b;" horiz-adv-x="927" 
d="M592 -102.5q33 -36.5 33 -94.5q0 -96 -59.5 -151t-147.5 -53v45q59 6 88 35.5t29 72.5q-16 -10 -37 -10q-37 0 -62.5 25.5t-25.5 64.5q0 45 29.5 73.5t74.5 28.5t78 -36.5zM881 162v-162h-725v1313h178v-1151h547z" />
    <glyph glyph-name="uni013C" unicode="&#x13c;" 
d="M315.5 -102.5q32.5 -36.5 32.5 -94.5q0 -96 -59.5 -151t-147.5 -53v45q59 6 88 35.5t29 72.5q-16 -10 -37 -10q-37 0 -62.5 25.5t-25.5 64.5q0 45 30 73.5t75 28.5t77.5 -36.5zM143 1405h170v-1405h-170v1405z" />
    <glyph glyph-name="Lcaron" unicode="&#x13d;" horiz-adv-x="968" 
d="M706.5 1302.5q32.5 -36.5 32.5 -94.5q0 -96 -59 -151.5t-148 -52.5v45q59 6 88 35.5t29 72.5q-16 -10 -37 -10q-37 0 -62.5 25.5t-25.5 64.5q0 45 30 73.5t75 28.5t77.5 -36.5zM881 162v-162h-725v1313h178v-1151h547z" />
    <glyph glyph-name="lcaron" unicode="&#x13e;" 
d="M143 1405h170v-1405h-170v1405z" />
    <glyph glyph-name="Ldot" unicode="&#x13f;" horiz-adv-x="968" 
d="M598 682q-29 28 -29 67q0 40 29 68.5t68 28.5q40 0 69.5 -29t29.5 -68q0 -38 -29.5 -66.5t-69.5 -28.5q-39 0 -68 28zM881 162v-162h-725v1313h178v-1151h547z" />
    <glyph glyph-name="ldot" unicode="&#x140;" horiz-adv-x="749" 
d="M529.5 568.5q-30.5 29.5 -30.5 70.5q0 42 30.5 72t71.5 30q42 0 72.5 -30.5t30.5 -71.5q0 -40 -30.5 -70t-72.5 -30q-41 0 -71.5 29.5zM143 1405h170v-1405h-170v1405z" />
    <glyph glyph-name="Lslash" unicode="&#x141;" horiz-adv-x="927" 
d="M881 162v-162h-725v602l-144 -67v147l144 68v563h178v-477l248 116v-147l-248 -117v-526h547z" />
    <glyph glyph-name="lslash" unicode="&#x142;" horiz-adv-x="481" 
d="M442 799l-116 -56v-743h-170v662l-117 -56v131l117 56v612h170v-533l116 56v-129z" />
    <glyph glyph-name="Nacute" unicode="&#x143;" horiz-adv-x="1329" 
d="M616 1466l265 293l98 -96l-309 -250zM1176 1313v-1313h-170l-672 1006v-1006h-178v1313h170l671 -1010v1010h179z" />
    <glyph glyph-name="nacute" unicode="&#x144;" horiz-adv-x="1067" 
d="M479 1067l264 293l99 -96l-310 -250zM844 832.5q92 -97.5 92 -273.5v-559h-172v520q0 256 -207 256q-113 0 -178.5 -67.5t-65.5 -173.5v-533h-170v901h142l16 -127q41 70 122 112t175 42q154 0 246 -97.5z" />
    <glyph glyph-name="uni0145" unicode="&#x145;" horiz-adv-x="1329" 
d="M751.5 -102.5q32.5 -36.5 32.5 -94.5q0 -96 -59 -151t-147 -53v45q59 6 87.5 35.5t28.5 72.5q-16 -10 -37 -10q-37 0 -62.5 25.5t-25.5 64.5q0 45 30 73.5t75 28.5t77.5 -36.5zM1176 1313v-1313h-170l-672 1006v-1006h-178v1313h170l671 -1010v1010h179z" />
    <glyph glyph-name="uni0146" unicode="&#x146;" horiz-adv-x="1067" 
d="M624.5 -102.5q32.5 -36.5 32.5 -94.5q0 -96 -59 -151t-147 -53v45q59 6 87.5 35.5t28.5 72.5q-16 -10 -37 -10q-37 0 -62.5 25.5t-25.5 64.5q0 45 30 73.5t75 28.5t77.5 -36.5zM844 832.5q92 -97.5 92 -273.5v-559h-172v520q0 256 -207 256q-113 0 -178.5 -67.5
t-65.5 -173.5v-533h-170v901h142l16 -127q41 70 122 112t175 42q154 0 246 -97.5z" />
    <glyph glyph-name="Ncaron" unicode="&#x147;" horiz-adv-x="1329" 
d="M485 1722l185 -188l184 188l82 -59l-186 -244h-160l-187 244zM1176 1313v-1313h-170l-672 1006v-1006h-178v1313h170l671 -1010v1010h179z" />
    <glyph glyph-name="ncaron" unicode="&#x148;" horiz-adv-x="1067" 
d="M348 1323l184 -188l185 188l82 -59l-187 -244h-159l-187 244zM844 832.5q92 -97.5 92 -273.5v-559h-172v520q0 256 -207 256q-113 0 -178.5 -67.5t-65.5 -173.5v-533h-170v901h142l16 -127q41 70 122 112t175 42q154 0 246 -97.5z" />
    <glyph glyph-name="Eng" unicode="&#x14a;" horiz-adv-x="1339" 
d="M156 1313h176l678 -1020v1020h176v-1411q0 -127 -79 -193.5t-198 -66.5q-41 0 -88 10v135h86q55 0 86 36t31 107v70h-14l-678 1016v-1016h-176v1313z" />
    <glyph glyph-name="eng" unicode="&#x14b;" horiz-adv-x="1073" 
d="M143 903h152l18 -125q43 70 123 111t170 41q154 0 244 -98.5t90 -274.5v-635q0 -123 -69.5 -184.5t-170.5 -61.5q-47 0 -90 13v129q29 -4 41 -4q55 0 87 30.5t32 98.5v575q0 139 -58.5 198.5t-150.5 59.5q-104 0 -176 -62.5t-72 -178.5v-533h-170v901z" />
    <glyph glyph-name="Omacron" unicode="&#x14c;" horiz-adv-x="1517" 
d="M1006 1571v-127h-496v127h496zM1346.5 304.5q-89.5 -154.5 -244 -242t-344.5 -87.5t-345 86t-244 241t-89 353q0 197 89 352.5t243.5 243.5t345.5 88q190 0 344.5 -87t244 -243.5t89.5 -353.5q0 -196 -89.5 -350.5zM1184.5 921.5q-64.5 116.5 -176 182t-248.5 65.5
q-139 0 -252 -65.5t-177.5 -182t-64.5 -266.5t64.5 -266.5t177.5 -182t250 -65.5t249.5 65.5t177 182.5t64.5 266q0 150 -64.5 266.5z" />
    <glyph glyph-name="omacron" unicode="&#x14d;" horiz-adv-x="1136" 
d="M815 1161v-127h-496v127h496zM143.5 694.5q61.5 108.5 172 172t251.5 63.5t253 -63.5t173.5 -172t61.5 -243.5q0 -133 -62.5 -242t-173 -171.5t-252.5 -62.5q-139 0 -249.5 62.5t-173 171t-62.5 242.5q0 135 61.5 243.5zM345 219q87 -92 222 -92q139 0 226.5 92t87.5 232
q0 141 -87 234t-227 93q-135 0 -222 -93t-87 -234q0 -140 87 -232z" />
    <glyph glyph-name="Ohungarumlaut" unicode="&#x150;" horiz-adv-x="1517" 
d="M549 1477l264 292l98 -96l-309 -250zM858 1477l264 292l97 -96l-308 -250zM1346.5 304.5q-89.5 -154.5 -244 -242t-344.5 -87.5t-345 86t-244 241t-89 353q0 197 89 352.5t243.5 243.5t345.5 88q190 0 344.5 -87t244 -243.5t89.5 -353.5q0 -196 -89.5 -350.5z
M1184.5 921.5q-64.5 116.5 -176 182t-248.5 65.5q-139 0 -252 -65.5t-177.5 -182t-64.5 -266.5t64.5 -266.5t177.5 -182t250 -65.5t249.5 65.5t177 182.5t64.5 266q0 150 -64.5 266.5z" />
    <glyph glyph-name="ohungarumlaut" unicode="&#x151;" horiz-adv-x="1136" 
d="M358 1067l265 293l98 -96l-309 -250zM668 1067l264 293l96 -96l-307 -250zM143.5 694.5q61.5 108.5 172 172t251.5 63.5t253 -63.5t173.5 -172t61.5 -243.5q0 -133 -62.5 -242t-173 -171.5t-252.5 -62.5q-139 0 -249.5 62.5t-173 171t-62.5 242.5q0 135 61.5 243.5z
M345 219q87 -92 222 -92q139 0 226.5 92t87.5 232q0 141 -87 234t-227 93q-135 0 -222 -93t-87 -234q0 -140 87 -232z" />
    <glyph glyph-name="OE" unicode="&#x152;" horiz-adv-x="2285" 
d="M1503 1212v-438h608v-160h-608v-446h674v-168h-848v233q-78 -121 -221 -190.5t-317 -69.5q-211 0 -373 93.5t-250 256t-88 367.5q0 207 89 371t250 257t365 93q182 0 327.5 -71.5t217.5 -188.5v231h848v-170h-674zM1073 216q121 69 187.5 192.5t66.5 283.5
q0 158 -66.5 283t-188.5 194.5t-277 69.5q-156 0 -277 -69.5t-187.5 -193.5t-66.5 -282q0 -156 67.5 -280.5t189.5 -195.5t278 -71q153 0 274 69z" />
    <glyph glyph-name="oe" unicode="&#x153;" horiz-adv-x="1892" 
d="M1661 56q-119 -81 -279 -81q-137 0 -241.5 60.5t-161.5 169t-57 250.5q0 141 58 249.5t161.5 167t234.5 58.5q129 0 226.5 -54.5t151.5 -151.5t54 -222q0 -68 -8 -103h-710q4 -129 84.5 -206.5t207.5 -77.5q94 0 165 42t98 113h165q-30 -133 -149 -214zM1636 522
q-2 121 -73.5 192.5t-188.5 71.5q-123 0 -200.5 -71.5t-81.5 -192.5h544zM143.5 694.5q61.5 108.5 172 172t251.5 63.5t253 -63.5t173.5 -172t61.5 -243.5q0 -133 -62.5 -242t-173 -171.5t-252.5 -62.5q-139 0 -249.5 62.5t-173 171t-62.5 242.5q0 135 61.5 243.5zM345 219
q87 -92 222 -92q139 0 226.5 92t87.5 232q0 141 -87 234t-227 93q-135 0 -222 -93t-87 -234q0 -140 87 -232z" />
    <glyph glyph-name="Racute" unicode="&#x154;" horiz-adv-x="1208" 
d="M498 1452l264 293l98 -96l-309 -250zM156 1313h510q219 0 337.5 -103.5t118.5 -289.5q0 -139 -68.5 -235.5t-191.5 -133.5l262 -551h-198l-242 520h-350v-520h-178v1313zM668 680q129 0 198.5 64.5t69.5 173.5t-70.5 172t-199.5 63h-332v-473h334z" />
    <glyph glyph-name="racute" unicode="&#x155;" horiz-adv-x="663" 
d="M168 1040l264 293l98 -96l-309 -250zM633 903v-145q-23 4 -64 4q-123 0 -189.5 -73t-66.5 -202v-487h-170v903h150l20 -137q23 70 86.5 107.5t147.5 37.5q45 0 86 -8z" />
    <glyph glyph-name="uni0156" unicode="&#x156;" horiz-adv-x="1208" 
d="M712.5 -100q32.5 -37 32.5 -95q0 -96 -59 -151t-147 -53v45q59 6 87.5 35.5t28.5 72.5q-16 -10 -37 -10q-37 0 -62.5 25.5t-25.5 64.5q0 45 30 74t75 29t77.5 -37zM156 1313h510q219 0 337.5 -103.5t118.5 -289.5q0 -139 -68.5 -235.5t-191.5 -133.5l262 -551h-198
l-242 520h-350v-520h-178v1313zM668 680q129 0 198.5 64.5t69.5 173.5t-70.5 172t-199.5 63h-332v-473h334z" />
    <glyph glyph-name="uni0157" unicode="&#x157;" horiz-adv-x="663" 
d="M315.5 -102.5q32.5 -36.5 32.5 -94.5q0 -96 -59.5 -151t-147.5 -53v45q59 6 88 35.5t29 72.5q-16 -10 -37 -10q-37 0 -62.5 25.5t-25.5 64.5q0 45 30 73.5t75 28.5t77.5 -36.5zM633 903v-145q-23 4 -64 4q-123 0 -189.5 -73t-66.5 -202v-487h-170v903h150l20 -137
q23 70 86.5 107.5t147.5 37.5q45 0 86 -8z" />
    <glyph glyph-name="Rcaron" unicode="&#x158;" horiz-adv-x="1208" 
d="M367 1708l184 -188l184 188l82 -59l-186 -244h-160l-186 244zM156 1313h510q219 0 337.5 -103.5t118.5 -289.5q0 -139 -68.5 -235.5t-191.5 -133.5l262 -551h-198l-242 520h-350v-520h-178v1313zM668 680q129 0 198.5 64.5t69.5 173.5t-70.5 172t-199.5 63h-332v-473h334
z" />
    <glyph glyph-name="rcaron" unicode="&#x159;" horiz-adv-x="663" 
d="M37 1296l184 -188l185 188l81 -59l-186 -244h-160l-186 244zM633 903v-145q-23 4 -64 4q-123 0 -189.5 -73t-66.5 -202v-487h-170v903h150l20 -137q23 70 86.5 107.5t147.5 37.5q45 0 86 -8z" />
    <glyph glyph-name="Sacute" unicode="&#x15a;" horiz-adv-x="1110" 
d="M500 1477l264 292l98 -96l-309 -250zM229 1233.5q123 105.5 324 105.5q131 0 232.5 -47t157.5 -132t56 -195h-182q-2 100 -75.5 160.5t-194.5 60.5q-117 0 -186.5 -58.5t-69.5 -152.5q0 -96 59.5 -138t151.5 -65l221 -59q125 -31 217 -116t92 -237q0 -176 -129 -280.5
t-344 -104.5q-207 0 -338 100.5t-143 276.5h186q2 -106 86 -166.5t215 -60.5t207 59.5t76 159.5q0 92 -55.5 135t-139.5 68l-223 57q-139 35 -231.5 119t-92.5 231q0 174 123 279.5z" />
    <glyph glyph-name="sacute" unicode="&#x15b;" horiz-adv-x="894" 
d="M393 1067l264 293l99 -96l-310 -250zM191.5 51q-101.5 76 -109.5 201h166q6 -70 60 -108t143 -38q88 0 137 35t49 99q0 63 -39 90.5t-100 40.5l-160 37q-119 27 -175.5 91t-56.5 156q0 125 94.5 200t245.5 75q154 0 249.5 -77t99.5 -204h-166q-2 70 -53.5 110t-131.5 40
q-76 0 -120.5 -34t-44.5 -95q0 -57 35.5 -83t93.5 -38l182 -41q113 -25 168 -91.5t55 -160.5q0 -129 -98.5 -205t-263.5 -76q-158 0 -259.5 76z" />
    <glyph glyph-name="Scircumflex" unicode="&#x15c;" horiz-adv-x="1110" 
d="M471 1720h160l184 -243l-80 -58l-184 187l-184 -187l-82 58zM229 1233.5q123 105.5 324 105.5q131 0 232.5 -47t157.5 -132t56 -195h-182q-2 100 -75.5 160.5t-194.5 60.5q-117 0 -186.5 -58.5t-69.5 -152.5q0 -96 59.5 -138t151.5 -65l221 -59q125 -31 217 -116t92 -237
q0 -176 -129 -280.5t-344 -104.5q-207 0 -338 100.5t-143 276.5h186q2 -106 86 -166.5t215 -60.5t207 59.5t76 159.5q0 92 -55.5 135t-139.5 68l-223 57q-139 35 -231.5 119t-92.5 231q0 174 123 279.5z" />
    <glyph glyph-name="scircumflex" unicode="&#x15d;" horiz-adv-x="894" 
d="M365 1311h159l185 -244l-80 -57l-185 186l-184 -186l-82 57zM191.5 51q-101.5 76 -109.5 201h166q6 -70 60 -108t143 -38q88 0 137 35t49 99q0 63 -39 90.5t-100 40.5l-160 37q-119 27 -175.5 91t-56.5 156q0 125 94.5 200t245.5 75q154 0 249.5 -77t99.5 -204h-166
q-2 70 -53.5 110t-131.5 40q-76 0 -120.5 -34t-44.5 -95q0 -57 35.5 -83t93.5 -38l182 -41q113 -25 168 -91.5t55 -160.5q0 -129 -98.5 -205t-263.5 -76q-158 0 -259.5 76z" />
    <glyph glyph-name="Scedilla" unicode="&#x15e;" horiz-adv-x="1110" 
d="M580 -98q63 0 112 -39t49 -115q0 -86 -62.5 -131t-148.5 -45q-84 0 -139 37v102q18 -20 51 -32.5t68 -12.5q45 0 75.5 21.5t30.5 64.5q0 35 -25.5 56.5t-66.5 21.5q-29 0 -53 -8l-45 49l135 197h62v-64l-74 -104q11 2 31 2zM229 1233.5q-123 -105.5 -123 -279.5
q0 -147 92.5 -231t231.5 -119l223 -57q84 -25 139.5 -68t55.5 -135q0 -100 -76 -159.5t-207 -59.5t-215 60.5t-86 166.5h-186q12 -176 143 -276.5t338 -100.5q215 0 344 104.5t129 280.5q0 152 -92 237t-217 116l-221 59q-92 23 -151.5 65t-59.5 138q0 94 69.5 152.5
t186.5 58.5q121 0 194.5 -60.5t75.5 -160.5h182q0 111 -56 195.5t-157.5 131.5t-232.5 47q-201 0 -324 -105.5z" />
    <glyph glyph-name="scedilla" unicode="&#x15f;" horiz-adv-x="894" 
d="M467 -92q63 0 112.5 -39t49.5 -115q0 -86 -62.5 -131t-148.5 -45q-84 0 -139 37v102q18 -20 50.5 -32.5t67.5 -12.5q45 0 76 21.5t31 64.5q0 35 -25.5 56.5t-66.5 21.5q-29 0 -54 -8l-45 49l136 197h61v-64l-74 -104q11 2 31 2zM191.5 51q101.5 -76 259.5 -76
q166 0 264 76t98 205q0 94 -55.5 160.5t-167.5 91.5l-182 41q-57 12 -93 37.5t-36 83.5q0 61 45 95t120 34q80 0 131.5 -40t53.5 -110h166q-4 127 -99.5 204t-249.5 77q-152 0 -246 -75t-94 -200q0 -92 56.5 -156.5t175.5 -90.5l160 -37q61 -12 100 -40t39 -91t-49 -98.5
t-137 -35.5t-142.5 38t-60.5 108h-166q8 -125 109.5 -201z" />
    <glyph glyph-name="Scaron" unicode="&#x160;" horiz-adv-x="1110" 
d="M369 1733l184 -189l184 189l82 -60l-186 -243h-160l-186 243zM229 1233.5q123 105.5 324 105.5q131 0 232.5 -47t157.5 -132t56 -195h-182q-2 100 -75.5 160.5t-194.5 60.5q-117 0 -186.5 -58.5t-69.5 -152.5q0 -96 59.5 -138t151.5 -65l221 -59q125 -31 217 -116
t92 -237q0 -176 -129 -280.5t-344 -104.5q-207 0 -338 100.5t-143 276.5h186q2 -106 86 -166.5t215 -60.5t207 59.5t76 159.5q0 92 -55.5 135t-139.5 68l-223 57q-139 35 -231.5 119t-92.5 231q0 174 123 279.5z" />
    <glyph glyph-name="scaron" unicode="&#x161;" horiz-adv-x="894" 
d="M262 1323l184 -188l185 188l82 -59l-187 -244h-159l-187 244zM191.5 51q-101.5 76 -109.5 201h166q6 -70 60 -108t143 -38q88 0 137 35t49 99q0 63 -39 90.5t-100 40.5l-160 37q-119 27 -175.5 91t-56.5 156q0 125 94.5 200t245.5 75q154 0 249.5 -77t99.5 -204h-166
q-2 70 -53.5 110t-131.5 40q-76 0 -120.5 -34t-44.5 -95q0 -57 35.5 -83t93.5 -38l182 -41q113 -25 168 -91.5t55 -160.5q0 -129 -98.5 -205t-263.5 -76q-158 0 -259.5 76z" />
    <glyph glyph-name="uni0162" unicode="&#x162;" horiz-adv-x="1048" 
d="M569 -102q63 0 112.5 -39t49.5 -115q0 -86 -62.5 -131t-148.5 -45q-84 0 -139 37v102q18 -20 51 -32.5t68 -12.5q45 0 75.5 21.5t30.5 64.5q0 35 -25.5 56.5t-66.5 21.5q-29 0 -53 -8l-45 49l135 196h61v-63l-73 -104q10 2 30 2zM1018 1149h-404v-1149h-178v1149h-407
v164h989v-164z" />
    <glyph glyph-name="uni0163" unicode="&#x163;" horiz-adv-x="618" 
d="M352 -102q63 0 112.5 -39t49.5 -115q0 -86 -62.5 -131t-148.5 -45q-84 0 -139 37v102q18 -20 51 -32.5t68 -12.5q45 0 75.5 21.5t30.5 64.5q0 35 -25.5 56.5t-66.5 21.5q-29 0 -53 -8l-45 49l135 196h61v-63l-73 -104q10 2 30 2zM571 762h-178v-762h-170v762h-176v141
h176v240h170v-240h178v-141z" />
    <glyph glyph-name="Tcaron" unicode="&#x164;" horiz-adv-x="1048" 
d="M340 1708l184 -188l185 188l82 -59l-187 -244h-160l-186 244zM1018 1149h-404v-1149h-178v1149h-407v164h989v-164z" />
    <glyph glyph-name="tcaron" unicode="&#x165;" horiz-adv-x="618" 
d="M631 1364l-41 -365h-92v365h133zM393 903h178v-145h-178v-758h-170v758h-176v145h176v240h170v-240z" />
    <glyph glyph-name="Tbar" unicode="&#x166;" horiz-adv-x="1048" 
d="M926 807v-156h-766v156h766zM1018 1149h-404v-1149h-178v1149h-407v164h989v-164z" />
    <glyph glyph-name="tbar" unicode="&#x167;" horiz-adv-x="618" 
d="M571 413h-522v128h522v-128zM571 762h-178v-762h-170v762h-176v141h176v240h170v-240h178v-141z" />
    <glyph glyph-name="Utilde" unicode="&#x168;" horiz-adv-x="1318" 
d="M406 1470q0 74 37.5 115t99.5 41q35 0 63.5 -12t65.5 -35q33 -20 51 -28.5t39 -8.5q33 0 46 22.5t11 63.5h88q6 -27 6 -51q0 -72 -39.5 -113t-103.5 -41q-35 0 -63.5 12.5t-71.5 37.5q-20 12 -42 22t-40 10q-31 0 -44 -25.5t-9 -64.5h-88q-6 30 -6 55zM141 1313h181v-850
q0 -172 97 -248t240 -76q150 0 245 81t95 243v850h179v-856q0 -160 -69 -267.5t-186.5 -161t-263.5 -53.5q-143 0 -259.5 51.5t-187.5 160t-71 270.5v856z" />
    <glyph glyph-name="utilde" unicode="&#x169;" horiz-adv-x="1046" 
d="M268 1059q0 74 38 114.5t100 40.5q35 0 63.5 -12t65.5 -35q33 -20 51 -28.5t39 -8.5q33 0 46 23t11 64h88q6 -27 6 -52q0 -72 -40 -112.5t-103 -40.5q-35 0 -63.5 12t-71.5 37q-20 12 -42 22.5t-40 10.5q-31 0 -44.5 -26t-9.5 -64h-88q-6 30 -6 55zM913 903v-903h-139
l-16 131q-43 -78 -119 -117t-174 -39q-158 0 -245 94.5t-87 254.5v579h170v-547q0 -125 56.5 -178t158.5 -53t163.5 70.5t61.5 187.5v520h170z" />
    <glyph glyph-name="Umacron" unicode="&#x16a;" horiz-adv-x="1318" 
d="M909 1546v-127h-495v127h495zM141 1313h181v-850q0 -172 97 -248t240 -76q150 0 245 81t95 243v850h179v-856q0 -160 -69 -267.5t-186.5 -161t-263.5 -53.5q-143 0 -259.5 51.5t-187.5 160t-71 270.5v856z" />
    <glyph glyph-name="umacron" unicode="&#x16b;" horiz-adv-x="1046" 
d="M772 1135v-127h-496v127h496zM913 903v-903h-139l-16 131q-43 -78 -119 -117t-174 -39q-158 0 -245 94.5t-87 254.5v579h170v-547q0 -125 56.5 -178t158.5 -53t163.5 70.5t61.5 187.5v520h170z" />
    <glyph glyph-name="Uring" unicode="&#x16e;" horiz-adv-x="1318" 
d="M501.5 1424.5q-61.5 60.5 -61.5 148.5t61.5 149.5t160.5 61.5q98 0 158.5 -61.5t60.5 -149.5q0 -86 -61.5 -147.5t-157.5 -61.5q-99 0 -160.5 60.5zM730 1503.5q30 28.5 30 73.5q0 43 -30 71.5t-68 28.5q-39 0 -69 -28.5t-30 -71.5q0 -45 29 -73.5t70 -28.5q38 0 68 28.5
zM141 1313h181v-850q0 -172 97 -248t240 -76q150 0 245 81t95 243v850h179v-856q0 -160 -69 -267.5t-186.5 -161t-263.5 -53.5q-143 0 -259.5 51.5t-187.5 160t-71 270.5v856z" />
    <glyph glyph-name="uring" unicode="&#x16f;" horiz-adv-x="1046" 
d="M364.5 1012.5q-61.5 60.5 -61.5 148.5t61.5 149.5t159.5 61.5t158.5 -61.5t60.5 -149.5q0 -86 -61 -147.5t-158 -61.5q-98 0 -159.5 60.5zM593 1091.5q30 28.5 30 73.5q0 43 -30 72t-69 29t-68.5 -29t-29.5 -72q0 -45 28.5 -73.5t69.5 -28.5q39 0 69 28.5zM913 903v-903
h-139l-16 131q-43 -78 -119 -117t-174 -39q-158 0 -245 94.5t-87 254.5v579h170v-547q0 -125 56.5 -178t158.5 -53t163.5 70.5t61.5 187.5v520h170z" />
    <glyph glyph-name="Uhungarumlaut" unicode="&#x170;" horiz-adv-x="1318" 
d="M453 1454l264 291l98 -96l-309 -250zM762 1454l264 291l96 -96l-307 -250zM141 1313h181v-850q0 -172 97 -248t240 -76q150 0 245 81t95 243v850h179v-856q0 -160 -69 -267.5t-186.5 -161t-263.5 -53.5q-143 0 -259.5 51.5t-187.5 160t-71 270.5v856z" />
    <glyph glyph-name="uhungarumlaut" unicode="&#x171;" horiz-adv-x="1046" 
d="M315 1042l265 291l98 -96l-309 -250zM625 1042l264 291l96 -96l-307 -250zM913 903v-903h-139l-16 131q-43 -78 -119 -117t-174 -39q-158 0 -245 94.5t-87 254.5v579h170v-547q0 -125 56.5 -178t158.5 -53t163.5 70.5t61.5 187.5v520h170z" />
    <glyph glyph-name="Uogonek" unicode="&#x172;" horiz-adv-x="1318" 
d="M758 -16q-57 -27 -85 -65t-28 -75q0 -31 19.5 -49t50.5 -18q23 0 53 12v-100q-55 -18 -98 -19q-72 0 -113 39t-41 94q0 49 34 98.5t99 82.5h109zM141 1313h181v-850q0 -172 97 -248t240 -76q150 0 245 81t95 243v850h179v-856q0 -160 -69 -267.5t-186.5 -161
t-263.5 -53.5q-143 0 -259.5 51.5t-187.5 160t-71 270.5v856z" />
    <glyph glyph-name="uogonek" unicode="&#x173;" horiz-adv-x="1046" 
d="M913 0q-57 -27 -84.5 -64.5t-27.5 -74.5q0 -31 19.5 -49.5t49.5 -18.5q23 0 54 12v-100q-55 -18 -99 -18q-72 0 -112.5 38.5t-40.5 94.5q0 49 33.5 98t99.5 82h108zM913 903v-903h-139l-16 131q-43 -78 -119 -117t-174 -39q-158 0 -245 94.5t-87 254.5v579h170v-547
q0 -125 56.5 -178t158.5 -53t163.5 70.5t61.5 187.5v520h170z" />
    <glyph glyph-name="Wcircumflex" unicode="&#x174;" horiz-adv-x="1859" 
d="M850 1696h160l186 -244l-82 -57l-184 186l-185 -186l-81 57zM219 1313l182 -617q49 -164 80 -279.5t37 -144.5q88 274 168 533l150 473h190q66 -201 156 -491.5t157 -514.5q8 31 41 151t80 277l180 613h189l-404 -1313h-170l-79 256q-8 29 -27 85t-45 144
q-59 184 -108.5 340t-65.5 213l-246 -782l-80 -256h-172l-401 1313h188z" />
    <glyph glyph-name="wcircumflex" unicode="&#x175;" horiz-adv-x="1447" 
d="M645 1284h160l186 -244l-82 -57l-184 186l-184 -186l-82 57zM219 903l94 -301q88 -276 113 -379q33 113 186 594l23 70h178q29 -86 98.5 -310.5t108.5 -359.5q39 152 104 352l109 334h178l-309 -903h-168q-92 281 -146.5 462t-62.5 218q-57 -203 -213 -680h-172l-303 903
h182z" />
    <glyph glyph-name="Ycircumflex" unicode="&#x176;" horiz-adv-x="1136" 
d="M489 1694h160l187 -244l-82 -57l-185 186l-184 -186l-82 57zM229 1313l177 -307q59 -100 105 -187.5t58 -111.5q14 25 58.5 105.5t109.5 193.5l176 307h199l-453 -772v-541h-178v541l-458 772h206z" />
    <glyph glyph-name="ycircumflex" unicode="&#x177;" horiz-adv-x="976" 
d="M410 1284h159l187 -244l-82 -57l-185 186l-184 -186l-82 57zM950 903l-413 -1079q-49 -121 -123 -182.5t-203 -61.5q-68 0 -141 21v139q8 -2 40.5 -8t73.5 -6q88 0 129 34.5t68 106.5l33 86l-387 950h182l285 -737l276 737h180z" />
    <glyph glyph-name="Ydieresis" unicode="&#x178;" horiz-adv-x="1136" 
d="M324.5 1426.5q-29.5 29.5 -29.5 70.5q0 45 29.5 75t74.5 30t75 -30t30 -75q0 -41 -30 -70.5t-75 -29.5t-74.5 29.5zM668.5 1426.5q-29.5 29.5 -29.5 70.5q0 45 29.5 75t74.5 30q43 0 73 -30t30 -75q0 -41 -30 -70.5t-73 -29.5q-45 0 -74.5 29.5zM229 1313l177 -307
q59 -100 105 -187.5t58 -111.5q14 25 58.5 105.5t109.5 193.5l176 307h199l-453 -772v-541h-178v541l-458 772h206z" />
    <glyph glyph-name="Zacute" unicode="&#x179;" horiz-adv-x="1107" 
d="M504 1452l264 293l98 -96l-309 -250zM1022 1176l-711 -1012h711v-164h-938v141l711 1008h-699v164h926v-137z" />
    <glyph glyph-name="zacute" unicode="&#x17a;" horiz-adv-x="899" 
d="M397 1040l265 293l98 -96l-309 -250zM98 145l494 609h-494v149h701v-149l-498 -602h498v-152h-701v145z" />
    <glyph glyph-name="Zdotaccent" unicode="&#x17b;" horiz-adv-x="1107" 
d="M482.5 1441.5q-29.5 28.5 -29.5 71.5q0 45 29.5 75t74.5 30t75 -29.5t30 -75.5q0 -43 -30 -71.5t-75 -28.5t-74.5 28.5zM1022 1176l-711 -1012h711v-164h-938v141l711 1008h-699v164h926v-137z" />
    <glyph glyph-name="zdotaccent" unicode="&#x17c;" horiz-adv-x="899" 
d="M376 1030q-30 29 -30 72q0 45 30 74.5t75 29.5t74.5 -29.5t29.5 -74.5q0 -43 -29.5 -72t-74.5 -29t-75 29zM98 145l494 609h-494v149h701v-149l-498 -602h498v-152h-701v145z" />
    <glyph glyph-name="Zcaron" unicode="&#x17d;" horiz-adv-x="1107" 
d="M373 1708l184 -188l184 188l82 -59l-186 -244h-160l-186 244zM1022 1176l-711 -1012h711v-164h-938v141l711 1008h-699v164h926v-137z" />
    <glyph glyph-name="zcaron" unicode="&#x17e;" horiz-adv-x="899" 
d="M266 1296l185 -188l184 188l82 -59l-187 -244h-159l-187 244zM98 145l494 609h-494v149h701v-149l-498 -602h498v-152h-701v145z" />
    <glyph glyph-name="florin" unicode="&#x192;" horiz-adv-x="1181" 
d="M772 1116q-47 -43 -61 -133l-17 -106h353v-136h-373l-68 -434q-25 -166 -116 -236.5t-259 -70.5h-143l-2 152h143q94 0 144.5 47t68.5 166l60 376h-260v136h280l25 153q23 152 116 217.5t248 65.5h136v-154h-129q-99 0 -146 -43z" />
    <glyph glyph-name="Aringacute" unicode="&#x1fa;" horiz-adv-x="1218" 
d="M566 1617l311 242l80 -112l-348 -192zM450.5 1301.5q61.5 -60.5 159.5 -60.5q96 0 157.5 61.5t61.5 147.5q0 88 -60 149.5t-159 61.5q-98 0 -159.5 -61.5t-61.5 -149.5t61.5 -148.5zM679 1380.5q-30 -28.5 -69 -28.5q-41 0 -69.5 28.5t-28.5 73.5q0 43 29.5 71.5
t68.5 28.5t69 -28.5t30 -71.5q0 -45 -30 -73.5zM510 1313h197l489 -1313h-188l-119 328h-563l-123 -328h-180zM838 475l-119 326q-57 162 -78 217l-31 88q4 0 -110 -309l-123 -322h461z" />
    <glyph glyph-name="aringacute" unicode="&#x1fb;" horiz-adv-x="1157" 
d="M596 1126l264 293l98 -96l-309 -250zM380.5 902.5q61.5 -60.5 160.5 -60.5q96 0 157.5 61.5t61.5 147.5q0 88 -60.5 149.5t-158.5 61.5t-160 -61.5t-62 -149.5t61.5 -148.5zM609.5 981q-29.5 -29 -68.5 -29q-41 0 -70 29t-29 74q0 43 30 71.5t69 28.5t68.5 -28.5
t29.5 -71.5q0 -45 -29.5 -74zM1018 903v-903h-160v160q-45 -84 -138 -134.5t-210 -50.5q-125 0 -222.5 59.5t-151.5 167t-54 247.5q0 143 56.5 252.5t155.5 169t228 59.5q115 0 203 -46t137 -126l15 145h141zM762 218q82 89 82 239q0 145 -81 232t-212 87q-135 0 -215 -89
t-80 -234t80 -234.5t211 -89.5q133 0 215 89z" />
    <glyph glyph-name="AEacute" unicode="&#x1fc;" horiz-adv-x="1683" 
d="M973 1466l264 293l98 -96l-309 -250zM932 1145v-404l579 -2v-159h-579v-412h643v-168h-813v354h-408l-135 -354h-196l514 1313l1038 -2v-168zM762 1145h-109l-241 -639h350v639z" />
    <glyph glyph-name="aeacute" unicode="&#x1fd;" horiz-adv-x="1677" 
d="M772 1063l264 293l99 -96l-310 -250zM1602 270q-39 -133 -156 -213t-279 -80q-133 0 -234.5 57.5t-152.5 155.5q-43 -100 -140 -157.5t-228 -57.5q-154 0 -242 75t-88 200q0 127 92 198.5t258 71.5h264v64q0 102 -59 156.5t-162 54.5q-92 0 -151.5 -46.5t-63.5 -121.5
h-151q8 137 112.5 220t267.5 83q115 0 197 -46t123 -128q57 82 148.5 127t203.5 45q127 0 225.5 -54.5t152.5 -151.5t54 -218q0 -35 -4 -65.5t-6 -39.5h-706q2 -119 80.5 -199.5t211.5 -80.5q92 0 164 41t101 110h168zM956.5 712.5q-77.5 -71.5 -79.5 -192.5h546
q-2 121 -75.5 192.5t-192.5 71.5q-121 0 -198.5 -71.5zM696 401h-229q-109 0 -161 -38.5t-52 -108.5q0 -72 49 -111t133 -39q121 0 190.5 77t69.5 200v20z" />
    <glyph glyph-name="Oslashacute" unicode="&#x1fe;" horiz-adv-x="1517" 
d="M719 1497l264 293l98 -96l-309 -250zM1102.5 1252q154.5 -87 244 -243.5t89.5 -353.5t-89.5 -351t-244 -241.5t-344.5 -87.5t-345 86t-244 241t-89 353q0 197 89 352.5t243.5 243.5t345.5 88q190 0 344.5 -87zM308 435.5q42 -99.5 120 -169.5l533 862q-94 41 -201 41
q-139 0 -252 -65.5t-177.5 -182t-64.5 -266.5q0 -120 42 -219.5zM1007.5 206.5q112.5 65.5 177 182.5t64.5 266q0 121 -43 222.5t-121 171.5l-532 -865q92 -43 205 -43q137 0 249.5 65.5z" />
    <glyph glyph-name="oslashacute" unicode="&#x1ff;" horiz-adv-x="1136" 
d="M514 1067l264 293l99 -96l-310 -250zM197 -36l644 1032l109 -64l-646 -1033zM143.5 694.5q61.5 108.5 172 172t251.5 63.5t253 -63.5t173.5 -172t61.5 -243.5q0 -133 -62.5 -242t-173 -171.5t-252.5 -62.5q-139 0 -249.5 62.5t-173 171t-62.5 242.5q0 135 61.5 243.5z
M345 219q87 -92 222 -92q139 0 226.5 92t87.5 232q0 141 -87 234t-227 93q-135 0 -222 -93t-87 -234q0 -140 87 -232z" />
    <glyph glyph-name="uni0218" unicode="&#x218;" horiz-adv-x="1110" 
d="M641 -133q33 -37 33 -94q0 -96 -59.5 -151.5t-147.5 -53.5v45q59 6 88 35.5t29 72.5q-16 -10 -37 -10q-37 0 -62.5 25.5t-25.5 64.5q0 45 29.5 74t74.5 29t78 -37zM229 1233.5q123 105.5 324 105.5q131 0 232.5 -47t157.5 -132t56 -195h-182q-2 100 -75.5 160.5
t-194.5 60.5q-117 0 -186.5 -58.5t-69.5 -152.5q0 -96 59.5 -138t151.5 -65l221 -59q125 -31 217 -116t92 -237q0 -176 -129 -280.5t-344 -104.5q-207 0 -338 100.5t-143 276.5h186q2 -106 86 -166.5t215 -60.5t207 59.5t76 159.5q0 92 -55.5 135t-139.5 68l-223 57
q-139 35 -231.5 119t-92.5 231q0 174 123 279.5z" />
    <glyph glyph-name="uni0219" unicode="&#x219;" horiz-adv-x="907" 
d="M542.5 -129q32.5 -37 32.5 -94q0 -96 -59 -151.5t-147 -53.5v45q59 6 87.5 36t28.5 73q-16 -10 -36 -11q-37 0 -63 26t-26 64q0 45 30 74t75 29t77.5 -37zM191.5 51q-101.5 76 -109.5 201h166q6 -70 60 -108t143 -38q88 0 137 35t49 99q0 63 -39 90.5t-100 40.5l-160 37
q-119 27 -175.5 91t-56.5 156q0 125 94.5 200t245.5 75q154 0 249.5 -77t99.5 -204h-166q-2 70 -53.5 110t-131.5 40q-76 0 -120.5 -34t-44.5 -95q0 -57 35.5 -83t93.5 -38l182 -41q113 -25 168 -91.5t55 -160.5q0 -129 -98.5 -205t-263.5 -76q-158 0 -259.5 76z" />
    <glyph glyph-name="uni021A" unicode="&#x21a;" horiz-adv-x="1048" 
d="M602 -137q33 -37 33 -94q0 -96 -59.5 -151.5t-147.5 -53.5v45q59 6 88 35.5t29 72.5q-16 -10 -37 -10q-37 0 -62.5 25.5t-25.5 64.5q0 45 29.5 74t74.5 29t78 -37zM1018 1149h-404v-1149h-178v1149h-407v164h989v-164z" />
    <glyph glyph-name="uni021B" unicode="&#x21b;" horiz-adv-x="624" 
d="M395 -113q33 -37 33 -94q0 -96 -59.5 -151.5t-147.5 -53.5v45q59 6 88 36t29 73q-16 -10 -37 -10q-37 0 -62.5 25.5t-25.5 64.5q0 45 29.5 73.5t74.5 28.5t78 -37zM571 762h-178v-762h-170v762h-176v141h176v240h170v-240h178v-141z" />
    <glyph glyph-name="uni0237" unicode="&#x237;" horiz-adv-x="481" 
d="M172 903h170v-1306h-170v1306z" />
    <glyph glyph-name="uni0243" unicode="&#x243;" horiz-adv-x="1228" 
d="M1042.5 542q59.5 -85 59.5 -198q0 -160 -117 -252t-309 -92h-520v324h-140v116h140v873h510q197 0 310.5 -97.5t113.5 -250.5q0 -109 -55.5 -187t-153.5 -114q102 -37 161.5 -122zM326 1159v-426h340q119 0 184 58.5t65 152.5t-66.5 154.5t-184.5 60.5h-338zM864.5 215
q67.5 59 67.5 160q0 102 -70.5 160.5t-181.5 58.5h-354v-154h202v-116h-202v-168h354q117 0 184.5 59z" />
    <glyph glyph-name="circumflex" unicode="&#x2c6;" horiz-adv-x="755" 
d="M297 1702h160l186 -244l-82 -57l-184 186l-184 -186l-82 57z" />
    <glyph glyph-name="caron" unicode="&#x2c7;" horiz-adv-x="755" 
d="M193 1714l184 -188l184 188l82 -59l-186 -244h-160l-186 244z" />
    <glyph glyph-name="breve" unicode="&#x2d8;" horiz-adv-x="819" 
d="M602 1472.5q-78 -67.5 -190 -67.5q-117 0 -195 68.5t-88 181.5h129q6 -59 48 -93t106 -34q63 0 103 34.5t46 92.5h129q-10 -115 -88 -182.5z" />
    <glyph glyph-name="dotaccent" unicode="&#x2d9;" horiz-adv-x="346" 
d="M97.5 1434.5q-29.5 29.5 -29.5 70.5q0 45 29.5 75t74.5 30t74.5 -30t29.5 -75q0 -41 -29.5 -70.5t-74.5 -29.5t-74.5 29.5z" />
    <glyph glyph-name="ring" unicode="&#x2da;" horiz-adv-x="673" 
d="M176.5 1410q-61.5 60 -61.5 149q0 88 61.5 149t159.5 61t158.5 -61t60.5 -149q0 -86 -60.5 -147.5t-158.5 -61.5t-159.5 60zM404.5 1489q29.5 29 29.5 74q0 43 -29.5 71.5t-68.5 28.5t-68.5 -28.5t-29.5 -71.5q0 -45 28.5 -74t69.5 -29q39 0 68.5 29z" />
    <glyph glyph-name="ogonek" unicode="&#x2db;" horiz-adv-x="452" 
d="M350 0q-57 -27 -84.5 -64.5t-27.5 -74.5q0 -31 19 -49.5t50 -18.5q23 0 53 12v-100q-55 -18 -98 -18q-72 0 -112.5 38.5t-40.5 94.5q0 49 33.5 98t99.5 82h108z" />
    <glyph glyph-name="tilde" unicode="&#x2dc;" horiz-adv-x="860" 
d="M158 1477q0 74 37.5 114.5t99.5 40.5q35 0 63.5 -12t65.5 -35q33 -20 51.5 -28.5t38.5 -8.5q33 0 46 22.5t11 63.5h88q6 -27 7 -51q0 -72 -40 -112.5t-104 -40.5q-35 0 -63.5 12t-71.5 37q-20 12 -41.5 22t-40.5 10q-31 0 -44 -25.5t-9 -64.5h-88q-6 31 -6 56z" />
    <glyph glyph-name="hungarumlaut" unicode="&#x2dd;" horiz-adv-x="843" 
d="M131 1460l264 291l99 -96l-310 -250zM440 1460l265 291l96 -96l-307 -250z" />
    <glyph glyph-name="gravecomb" unicode="&#x300;" horiz-adv-x="0" 
d="M-479 1655l96 96l266 -293l-55 -53z" />
    <glyph glyph-name="acutecomb" unicode="&#x301;" horiz-adv-x="0" 
d="M-369 1458l265 293l98 -96l-309 -250z" />
    <glyph glyph-name="uni0302" unicode="&#x302;" horiz-adv-x="0" 
d="M-459 1702h160l184 -244l-80 -57l-184 186l-184 -186l-82 57z" />
    <glyph glyph-name="tildecomb" unicode="&#x303;" horiz-adv-x="0" 
d="M-702 1477q0 74 37.5 114.5t99.5 40.5q35 0 63.5 -12t65.5 -35q33 -20 51 -28.5t39 -8.5q33 0 46 22.5t11 63.5h88q6 -27 6 -51q0 -72 -39.5 -112.5t-103.5 -40.5q-35 0 -63.5 12t-71.5 37q-20 12 -42 22t-40 10q-31 0 -44 -25.5t-9 -64.5h-88q-6 31 -6 56z" />
    <glyph glyph-name="uni0304" unicode="&#x304;" horiz-adv-x="0" 
d="M-145 1552v-127h-496v127h496z" />
    <glyph glyph-name="uni0306" unicode="&#x306;" horiz-adv-x="0" 
d="M-217 1472.5q-78 -67.5 -191 -67.5q-117 0 -194.5 68.5t-87.5 181.5h129q6 -59 48 -93t105 -34t103.5 34.5t46.5 92.5h129q-10 -115 -88 -182.5z" />
    <glyph glyph-name="uni0307" unicode="&#x307;" horiz-adv-x="0" 
d="M-292 1448q-30 29 -30 72q0 45 30 74.5t75 29.5t74.5 -29.5t29.5 -74.5q0 -43 -29.5 -72t-74.5 -29t-75 29z" />
    <glyph glyph-name="uni0308" unicode="&#x308;" horiz-adv-x="0" 
d="M-595 1448q-30 29 -30 72q0 45 30 74.5t75 29.5t74.5 -29.5t29.5 -74.5q0 -43 -29.5 -72t-74.5 -29t-75 29zM-251 1448q-30 29 -30 72q0 45 30 74.5t75 29.5q43 0 72.5 -29.5t29.5 -74.5q0 -43 -29.5 -72t-72.5 -29q-45 0 -75 29z" />
    <glyph glyph-name="uni030A" unicode="&#x30a;" horiz-adv-x="0" 
d="M-497.5 1430.5q-61.5 60.5 -61.5 148.5t61.5 149.5t159.5 61.5t158.5 -61.5t60.5 -149.5q0 -86 -61.5 -147.5t-157.5 -61.5q-98 0 -159.5 60.5zM-269.5 1509.5q29.5 28.5 29.5 73.5q0 43 -29.5 71.5t-68.5 28.5t-68.5 -28.5t-29.5 -71.5q0 -45 28.5 -73.5t69.5 -28.5
q39 0 68.5 28.5z" />
    <glyph glyph-name="uni030B" unicode="&#x30b;" horiz-adv-x="0" 
d="M-686 1458l264 293l98 -96l-309 -250zM-377 1458l264 293l97 -96l-308 -250z" />
    <glyph glyph-name="uni030C" unicode="&#x30c;" horiz-adv-x="0" 
d="M-563 1714l184 -188l184 188l82 -59l-186 -244h-160l-186 244z" />
    <glyph glyph-name="uni0312" unicode="&#x312;" horiz-adv-x="0" 
d="M-96.5 1561.5q24.5 -25.5 24.5 -64.5q0 -45 -29.5 -73.5t-74.5 -28.5q-49 0 -81 35.5t-32 95.5q0 94 59.5 150.5t149.5 52.5v-46q-59 -6 -88 -34.5t-31 -71.5q14 10 41 10q37 0 61.5 -25.5z" />
    <glyph glyph-name="uni0326" unicode="&#x326;" horiz-adv-x="0" 
d="M-104.5 -61.5q32.5 -36.5 32.5 -94.5q0 -96 -59 -151t-148 -53v45q59 6 88 35.5t29 72.5q-16 -10 -37 -10q-37 0 -62.5 25.5t-25.5 64.5q0 45 30 73.5t75 28.5t77.5 -36.5z" />
    <glyph glyph-name="uni0327" unicode="&#x327;" horiz-adv-x="0" 
d="M-256 -102q63 0 112.5 -39t49.5 -115q0 -86 -62.5 -131t-148.5 -45q-84 0 -139 37v102q18 -20 51 -32.5t67 -12.5q45 0 76 21.5t31 64.5q0 35 -25.5 56.5t-66.5 21.5q-29 0 -54 -8l-45 49l136 196h61v-63l-74 -104q11 2 31 2z" />
    <glyph glyph-name="uni0338" unicode="&#x338;" horiz-adv-x="0" 
d="M-1044 -66l702 1125l119 -70l-705 -1126z" />
    <glyph glyph-name="uni03A9" unicode="&#x3a9;" horiz-adv-x="1542" 
d="M1346.5 360.5q-89.5 -143.5 -250.5 -221.5h319v-139h-541v180q168 47 269.5 178t101.5 301q0 133 -61.5 235.5t-169 158t-242.5 55.5t-243.5 -57.5t-170 -161t-61.5 -236.5q0 -170 98.5 -299t255.5 -174v-180h-538v139h329q-164 78 -250 222.5t-86 322.5t86.5 317.5
t237 216t340.5 76.5t342 -76.5t238 -214t86 -315.5q0 -184 -89.5 -327.5z" />
    <glyph glyph-name="pi" unicode="&#x3c0;" horiz-adv-x="1146" 
d="M41 1006h989v-146h-166v-594q0 -78 25.5 -104.5t97.5 -26.5h43v-135q-55 -10 -106 -10q-139 0 -184.5 71.5t-45.5 188.5v610h-319v-860h-170v860h-164v146z" />
    <glyph glyph-name="uni0E3F" unicode="&#xe3f;" horiz-adv-x="1181" 
d="M1042.5 536.5q59.5 -81.5 59.5 -194.5q0 -160 -117 -251t-309 -91h-74v-203h-115v203h-331v1313h331v182h115v-182h64q197 0 310.5 -96.5t113.5 -253.5q0 -113 -55.5 -190t-155.5 -116q104 -39 163.5 -120.5zM326 1159v-434h340q119 0 184 60.5t65 154.5
q0 92 -67.5 155.5t-183.5 63.5h-338zM863.5 213q68.5 57 68.5 156q0 102 -70.5 159.5t-181.5 57.5h-354v-430h354q115 0 183.5 57z" />
    <glyph glyph-name="Wgrave" unicode="&#x1e80;" horiz-adv-x="1859" 
d="M625 1649l96 96l266 -293l-55 -53zM219 1313l182 -617q49 -164 80 -279.5t37 -144.5q88 274 168 533l150 473h190q66 -201 156 -491.5t157 -514.5q8 31 41 151t80 277l180 613h189l-404 -1313h-170l-79 256q-8 29 -27 85t-45 144q-59 184 -108.5 340t-65.5 213l-246 -782
l-80 -256h-172l-401 1313h188z" />
    <glyph glyph-name="wgrave" unicode="&#x1e81;" horiz-adv-x="1447" 
d="M420 1237l96 96l266 -293l-55 -53zM219 903l94 -301q88 -276 113 -379q33 113 186 594l23 70h178q29 -86 98.5 -310.5t108.5 -359.5q39 152 104 352l109 334h178l-309 -903h-168q-92 281 -146.5 462t-62.5 218q-57 -203 -213 -680h-172l-303 903h182z" />
    <glyph glyph-name="Wacute" unicode="&#x1e82;" horiz-adv-x="1859" 
d="M879 1454l264 291l98 -96l-309 -250zM219 1313l182 -617q49 -164 80 -279.5t37 -144.5q88 274 168 533l150 473h190q66 -201 156 -491.5t157 -514.5q8 31 41 151t80 277l180 613h189l-404 -1313h-170l-79 256q-8 29 -27 85t-45 144q-59 184 -108.5 340t-65.5 213
l-246 -782l-80 -256h-172l-401 1313h188z" />
    <glyph glyph-name="wacute" unicode="&#x1e83;" horiz-adv-x="1447" 
d="M674 1042l264 291l98 -96l-309 -250zM219 903l94 -301q88 -276 113 -379q33 113 186 594l23 70h178q29 -86 98.5 -310.5t108.5 -359.5q39 152 104 352l109 334h178l-309 -903h-168q-92 281 -146.5 462t-62.5 218q-57 -203 -213 -680h-172l-303 903h182z" />
    <glyph glyph-name="Wdieresis" unicode="&#x1e84;" horiz-adv-x="1859" 
d="M685 1428.5q-30 29.5 -30 70.5q0 45 30 75t75 30t74.5 -30t29.5 -75q0 -41 -29.5 -70.5t-74.5 -29.5t-75 29.5zM1029 1428.5q-30 29.5 -30 70.5q0 45 30 75t75 30q43 0 72.5 -30t29.5 -75q0 -41 -29.5 -70.5t-72.5 -29.5q-45 0 -75 29.5zM219 1313l182 -617
q49 -164 80 -279.5t37 -144.5q88 274 168 533l150 473h190q66 -201 156 -491.5t157 -514.5q8 31 41 151t80 277l180 613h189l-404 -1313h-170l-79 256q-8 29 -27 85t-45 144q-59 184 -108.5 340t-65.5 213l-246 -782l-80 -256h-172l-401 1313h188z" />
    <glyph glyph-name="wdieresis" unicode="&#x1e85;" horiz-adv-x="1447" 
d="M480.5 1017q-29.5 30 -29.5 70q0 45 29.5 75t74.5 30t74.5 -29.5t29.5 -75.5q0 -41 -29.5 -70.5t-74.5 -29.5t-74.5 30zM824.5 1017q-29.5 30 -29.5 70q0 45 29.5 75t74.5 30q43 0 72.5 -29.5t29.5 -75.5q0 -41 -29.5 -70.5t-72.5 -29.5q-45 0 -74.5 30zM219 903l94 -301
q88 -276 113 -379q33 113 186 594l23 70h178q29 -86 98.5 -310.5t108.5 -359.5q39 152 104 352l109 334h178l-309 -903h-168q-92 281 -146.5 462t-62.5 218q-57 -203 -213 -680h-172l-303 903h182z" />
    <glyph glyph-name="Ygrave" unicode="&#x1ef2;" horiz-adv-x="1136" 
d="M264 1647l96 96l267 -293l-56 -53zM229 1313l177 -307q59 -100 105 -187.5t58 -111.5q14 25 58.5 105.5t109.5 193.5l176 307h199l-453 -772v-541h-178v541l-458 772h206z" />
    <glyph glyph-name="ygrave" unicode="&#x1ef3;" horiz-adv-x="976" 
d="M184 1237l97 96l266 -293l-55 -53zM950 903l-413 -1079q-49 -121 -123 -182.5t-203 -61.5q-68 0 -141 21v139q8 -2 40.5 -8t73.5 -6q88 0 129 34.5t68 106.5l33 86l-387 950h182l285 -737l276 737h180z" />
    <glyph glyph-name="endash" unicode="&#x2013;" horiz-adv-x="1781" 
d="M1645 563v-155h-1508v155h1508z" />
    <glyph glyph-name="emdash" unicode="&#x2014;" horiz-adv-x="2189" 
d="M2052 563v-155h-1915v155h1915z" />
    <glyph glyph-name="quoteleft" unicode="&#x2018;" horiz-adv-x="458" 
d="M244 1134.5q-45 -47.5 -41 -112.5q18 10 49 10q49 0 84 -31.5t35 -87.5q0 -57 -39 -94t-101 -37q-63 0 -105 48.5t-42 130.5q0 121 78 201.5t209 94.5v-61q-82 -14 -127 -61.5z" />
    <glyph glyph-name="quoteright" unicode="&#x2019;" 
d="M331 1221q42 -47 42 -131q0 -117 -77 -200t-208 -97v61q82 14 126 62.5t40 109.5q-18 -8 -47 -8q-49 0 -83 31.5t-34 87.5q0 57 38 94t97 37q64 0 106 -47z" />
    <glyph glyph-name="quotesinglbase" unicode="&#x201a;" horiz-adv-x="460" 
d="M309 211l-188 -426h-98l86 426h200z" />
    <glyph glyph-name="quotedblleft" unicode="&#x201c;" horiz-adv-x="796" 
d="M334 1000.5q35 -33.5 35 -87.5q0 -55 -39 -93t-101 -38q-61 0 -103 47.5t-42 128.5q0 123 78 204t205 95v-61q-78 -16 -122 -62.5t-42 -109.5q18 10 49 10q47 0 82 -33.5zM595 1136q-44 -46 -42 -112q20 10 49 10q47 0 82 -33.5t35 -87.5q0 -55 -38 -93t-99 -38
q-63 0 -106.5 48.5t-43.5 127.5q0 121 79 203t208 96v-61q-80 -14 -124 -60z" />
    <glyph glyph-name="quotedblright" unicode="&#x201d;" horiz-adv-x="808" 
d="M331 1221q42 -47 42 -131q0 -117 -77 -200t-208 -97v61q82 14 126 62.5t40 109.5q-18 -8 -47 -8q-49 0 -83 31.5t-34 87.5q0 57 38 94t97 37q64 0 106 -47zM683 1219.5q42 -48.5 42 -129.5q0 -121 -79 -202t-208 -95v61q80 14 125 61.5t41 112.5q-18 -10 -47 -10
q-49 0 -84 31.5t-35 87.5q0 57 39 94t98 37q66 0 108 -48.5z" />
    <glyph glyph-name="quotedblbase" unicode="&#x201e;" horiz-adv-x="802" 
d="M369 211l-179 -426h-159l147 426h191zM696 211l-215 -426h-159l182 426h192z" />
    <glyph glyph-name="dagger" unicode="&#x2020;" horiz-adv-x="780" 
d="M684 567h-233v-299h-119v299h-236v105h236v641h119v-641h233v-105z" />
    <glyph glyph-name="daggerdbl" unicode="&#x2021;" horiz-adv-x="753" 
d="M651 569h-215v-286h-119v286h-213v105h213v248h-215v102h215v289h119v-289h213v-102h-213v-248h215v-105z" />
    <glyph glyph-name="bullet" unicode="&#x2022;" horiz-adv-x="1009" 
d="M323 263q-83 48 -131.5 129t-48.5 177q0 98 48.5 181.5t131.5 131.5t183 48t183 -48t130 -131t47 -182q0 -96 -47 -177t-130 -129t-183 -48t-183 48z" />
    <glyph glyph-name="ellipsis" unicode="&#x2026;" horiz-adv-x="1380" 
d="M165 12q-38 39 -38 90t38 91t91 40q51 0 91 -39.5t40 -91.5q0 -51 -40 -90t-91 -39q-53 0 -91 39zM598 12q-39 39 -39 90t39 91t92 40q51 0 90 -39.5t39 -91.5q0 -51 -39 -90t-90 -39q-53 0 -92 39zM1029 12q-40 39 -40 90t40 91t91 40t92 -39.5t41 -91.5
q0 -51 -39.5 -90t-93.5 -39q-51 0 -91 39z" />
    <glyph glyph-name="perthousand" unicode="&#x2030;" horiz-adv-x="2269" 
d="M219 0l1016 1335h145l-1015 -1335h-146zM133 1178.5q39 68.5 108.5 109.5t157.5 41t157 -41t106.5 -108.5t37.5 -147.5t-36.5 -147.5t-105.5 -107.5t-157 -40t-158.5 40t-109.5 108.5t-39 146.5t39 146.5zM278.5 915.5q47.5 -49.5 120.5 -49.5q74 0 120 50.5t46 115.5
q0 66 -46 116t-122 50q-74 0 -121 -48t-45 -122q0 -63 47.5 -112.5zM897 412.5q41 68.5 111.5 109.5t154.5 41q88 0 157 -40t107.5 -108.5t38.5 -148.5t-37.5 -146.5t-107.5 -106.5t-156 -40q-88 0 -158.5 40t-110.5 107.5t-40 145.5t41 146.5zM1605 412.5
q40 68.5 109.5 109.5t157.5 41t157.5 -41t107.5 -108.5t38 -147.5t-38 -146.5t-106.5 -106.5t-156.5 -40t-158.5 40t-110.5 107.5t-40 145.5t40 146.5zM1039 150.5q46 -50.5 122 -50.5q74 0 120 51.5t46 114.5q0 68 -45 117t-121 49q-72 0 -120 -47t-48 -117
q0 -67 46 -117.5zM1752 148.5q46 -48.5 120 -48.5t119 50.5t45 115.5q0 68 -45 117t-119 49q-76 0 -121 -48t-45 -114q0 -73 46 -121.5z" />
    <glyph glyph-name="minute" unicode="&#x2032;" horiz-adv-x="362" 
d="M105.5 1234q29.5 32 76.5 32q45 0 76 -32t31 -81q0 -12 -6 -31l-74 -370h-57l-72 366l-4 35q0 49 29.5 81z" />
    <glyph glyph-name="guilsinglleft" unicode="&#x2039;" horiz-adv-x="600" 
d="M342 451l203 -367h-185l-210 367l210 366h185z" />
    <glyph glyph-name="guilsinglright" unicode="&#x203a;" horiz-adv-x="604" 
d="M453 451l-211 -367h-183l201 367l-201 366h183z" />
    <glyph glyph-name="uni2042" unicode="&#x2042;" horiz-adv-x="1679" 
d="M866 1024q14 -72 15 -152v-120h-95v120q0 82 17 152q-47 -41 -125 -88l-103 -62l-49 84l105 60q80 45 139 61q-76 25 -139 64l-105 59l49 82l103 -61q86 -51 125 -88q-16 70 -17 151v121h95v-121q0 -80 -15 -151q45 41 125 88l103 61l47 -82l-103 -59q-59 -33 -139 -64
q61 -18 139 -61l103 -60l-47 -84l-103 62q-72 41 -125 88zM600 381q-63 -39 -137 -62q82 -31 137 -63l105 -59l-48 -82l-104 59q-90 57 -125 90q16 -70 16 -151v-121h-96v121q0 66 17 151q-41 -39 -125 -90l-103 -59l-47 82l103 59q68 39 141 63q-70 20 -141 62l-103 59
l47 82l103 -59q76 -43 125 -90q-16 86 -17 153v121h96v-121q0 -84 -16 -153q45 43 125 90l104 59l48 -82zM1475 256l102 -59l-47 -82l-103 59q-90 57 -124 90q14 -59 14 -151v-121h-94v121q0 66 16 151q-41 -39 -125 -90l-102 -59l-47 82l102 59q68 39 141 63
q-70 20 -141 62l-102 59l47 82l102 -59q76 -43 125 -90q-16 86 -16 153v121h94v-121q0 -94 -14 -153q45 43 124 90l103 59l47 -82l-102 -59q-66 -39 -140 -62q74 -26 140 -63z" />
    <glyph glyph-name="fraction" unicode="&#x2044;" horiz-adv-x="1165" 
d="M82 0l913 1372l88 -57l-913 -1370z" />
    <glyph glyph-name="uni2070" unicode="&#x2070;" horiz-adv-x="925" 
d="M198.5 583q-98.5 130 -98.5 349t98.5 347t266.5 128q164 0 262 -129t98 -346q0 -219 -98 -349t-262 -130q-168 0 -266.5 130zM623.5 676q58.5 94 58.5 256q0 160 -58.5 254t-160.5 94t-161.5 -94t-59.5 -254t59 -255t162 -95q102 0 160.5 94z" />
    <glyph glyph-name="uni2074" unicode="&#x2074;" horiz-adv-x="839" 
d="M760 782v-118h-113v-193h-135v193l-432 2v106l356 617h211v-607h113zM512 782v504l-289 -504h289z" />
    <glyph glyph-name="uni2075" unicode="&#x2075;" horiz-adv-x="868" 
d="M674 983q86 -86 86 -217q0 -137 -93.5 -224t-236.5 -87q-141 0 -231 86t-90 219h135q0 -76 54 -127t132 -51q80 0 134 52t54 134q0 80 -52 131t-134 51q-51 0 -99 -21.5t-73 -58.5l-133 19l121 500h467v-121h-363l-63 -246q66 47 168 47q131 0 217 -86z" />
    <glyph glyph-name="uni2076" unicode="&#x2076;" horiz-adv-x="864" 
d="M684 991q90 -84 90 -219q0 -92 -44 -163.5t-122 -112.5t-176 -41q-147 0 -237.5 88t-90.5 223q0 61 18.5 115.5t37 86t63.5 99.5l215 322h152l-223 -326q43 12 88 12q139 0 229 -84zM578.5 636q56.5 52 56.5 134t-56.5 133t-138.5 51t-139 -51t-57 -135t55 -134t137 -50
q86 0 142.5 52z" />
    <glyph glyph-name="uni2077" unicode="&#x2077;" horiz-adv-x="694" 
d="M639 1389v-109l-369 -809h-149l362 797h-430v121h586z" />
    <glyph glyph-name="uni2078" unicode="&#x2078;" horiz-adv-x="858" 
d="M717 871.5q41 -62.5 41 -140.5q0 -125 -94.5 -200.5t-235.5 -75.5t-234.5 76.5t-93.5 201.5q0 78 41 138.5t109 89.5q-55 29 -88 84t-33 116q0 109 84 177.5t217 68.5q129 0 212 -69.5t83 -176.5q0 -68 -34 -121t-87 -79q72 -27 113 -89.5zM312 1246q-46 -38 -46 -95
q0 -59 46 -98t118 -39q68 0 112 38t44 97q0 61 -43 98t-115 37q-70 0 -116 -38zM563 627q53 43 53 112q0 70 -52 111t-134 41t-136 -41t-54 -111q0 -72 55 -113.5t135 -41.5t133 43z" />
    <glyph glyph-name="uni2079" unicode="&#x2079;" horiz-adv-x="882" 
d="M685 1319q91 -88 91 -221q0 -88 -30.5 -154.5t-86.5 -150.5l-217 -322h-151l225 328q-47 -12 -92 -13q-137 0 -227.5 85t-90.5 219q0 90 44.5 162.5t122 113.5t173.5 41q148 0 239 -88zM302 957.5q56 -52.5 138 -52.5q84 0 140.5 52.5t56.5 136.5t-55.5 135t-137.5 51
q-84 0 -141 -52t-57 -134q0 -84 56 -136.5z" />
    <glyph glyph-name="uni2080" unicode="&#x2080;" horiz-adv-x="925" 
d="M198.5 112q-98.5 130 -98.5 349t98.5 347t266.5 128q164 0 262 -129t98 -346q0 -219 -98 -349t-262 -130q-168 0 -266.5 130zM623.5 205q58.5 94 58.5 256q0 160 -58.5 254t-160.5 94t-161.5 -94t-59.5 -254t59 -255t162 -95q102 0 160.5 94z" />
    <glyph glyph-name="uni2081" unicode="&#x2081;" horiz-adv-x="557" 
d="M76 782q88 0 140 37t67 99h114v-918h-139v680h-182v102z" />
    <glyph glyph-name="uni2082" unicode="&#x2082;" horiz-adv-x="788" 
d="M657.5 528.5q-34.5 -69.5 -101.5 -150.5t-222 -251h340v-127h-547v98l141 156q121 131 176.5 195.5t83 115.5t27.5 101q0 66 -43 104.5t-113 38.5q-80 0 -126 -52t-40 -128h-135q-6 88 32 158.5t110.5 109.5t162.5 39q129 0 209 -74t80 -188q0 -76 -34.5 -145.5z" />
    <glyph glyph-name="uni2083" unicode="&#x2083;" horiz-adv-x="856" 
d="M674 478q76 -77 76 -193q0 -131 -93.5 -216t-234.5 -85q-139 0 -229.5 84t-88.5 221h136q0 -78 53 -128t131 -50q80 0 132 49t52 127q0 72 -48 120t-124 54q-23 4 -76 4h-61v94l238 238h-381v121h553v-123l-230 -230q119 -10 195 -87z" />
    <glyph glyph-name="uni2084" unicode="&#x2084;" horiz-adv-x="839" 
d="M760 311v-118h-113v-193h-135v193l-432 2v106l356 617h211v-607h113zM512 311v504l-289 -504h289z" />
    <glyph glyph-name="uni2085" unicode="&#x2085;" horiz-adv-x="868" 
d="M673 512q87 -86 87 -217q0 -92 -44 -163t-119 -109.5t-167 -38.5q-141 0 -231 86t-90 219h135q0 -76 53 -127t133 -51t134 52t54 134q0 80 -53 131t-135 51q-49 0 -97 -21.5t-73 -58.5l-133 19l119 500h467v-121h-361l-65 -246q68 47 168 47q131 0 218 -86z" />
    <glyph glyph-name="uni2086" unicode="&#x2086;" horiz-adv-x="864" 
d="M685 519q89 -85 89 -218q0 -92 -44 -163.5t-122 -112.5t-176 -41q-147 0 -237.5 88t-90.5 223q0 61 18.5 115.5t37 86t63.5 99.5l215 322h152l-225 -326q47 12 94 12q137 0 226 -85zM578.5 166q56.5 53 56.5 133q0 82 -56.5 133t-136.5 51q-84 0 -141 -51t-57 -135
t55 -134t139 -50t140.5 53z" />
    <glyph glyph-name="uni2087" unicode="&#x2087;" horiz-adv-x="694" 
d="M639 918v-109l-369 -809h-149l362 797h-430v121h586z" />
    <glyph glyph-name="uni2088" unicode="&#x2088;" horiz-adv-x="858" 
d="M717 400.5q41 -62.5 41 -140.5q0 -123 -93.5 -199.5t-234.5 -76.5q-143 0 -236.5 76.5t-93.5 201.5q0 78 41 138.5t109 88.5q-55 29 -88 84.5t-33 116.5q0 109 84 177.5t217 68.5q129 0 212 -69.5t83 -176.5q0 -68 -34 -121t-87 -80q72 -26 113 -88.5zM312 775
q-46 -38 -46 -95q0 -59 46 -98t118 -39q68 0 112 37.5t44 97.5q0 61 -43 98t-115 37q-70 0 -116 -38zM563 156q53 43 53 112q0 70 -52 111t-134 41t-135 -41t-53 -111q0 -72 54 -113.5t134 -41.5t133 43z" />
    <glyph glyph-name="uni2089" unicode="&#x2089;" horiz-adv-x="882" 
d="M685 848q91 -88 91 -221q0 -88 -30.5 -154.5t-86.5 -150.5l-217 -322h-151l225 328q-47 -12 -92 -13q-137 0 -227.5 85t-90.5 218q0 90 44.5 163t122 114t173.5 41q148 0 239 -88zM302 486.5q56 -52.5 138 -52.5q84 0 140.5 52.5t56.5 136.5t-55.5 135t-137.5 51
q-84 0 -141 -52t-57 -134q0 -84 56 -136.5z" />
    <glyph glyph-name="uni20AA" unicode="&#x20aa;" horiz-adv-x="1447" 
d="M156 1405h415q203 0 299.5 -107.5t96.5 -298.5v-559h-150v564q0 143 -73.5 203.5t-204.5 60.5h-234v-1268h-149v1405zM577.5 107.5q-96.5 107.5 -96.5 298.5v559h152v-564q0 -143 72.5 -203.5t203.5 -60.5h234v1268h151v-1405h-415q-205 0 -301.5 107.5z" />
    <glyph glyph-name="Euro" unicode="&#x20ac;" horiz-adv-x="1284" 
d="M596 1105q-131 -75 -190 -214h524l-27 -135h-534q-6 -45 -7 -99q0 -47 7 -94h501l-26 -135h-441q57 -143 189.5 -220t322.5 -77q115 0 205 29v-154q-106 -29 -223 -29q-254 0 -429 120t-239 331h-125v135h97q-4 61 -4 92q0 51 6 101h-99v135h127q66 207 240 325.5
t420 118.5q63 0 125.5 -9t103.5 -21v-152q-82 27 -205 27q-188 0 -319 -75z" />
    <glyph glyph-name="uni20B9" unicode="&#x20b9;" horiz-adv-x="1208" 
d="M1096 1174h-322q80 -74 96 -189h226v-139h-224q-20 -156 -131.5 -240t-294.5 -86l373 -520h-221l-397 557v102h217q117 0 187.5 49.5t86.5 137.5h-491v139h491q-14 92 -87 140.5t-187 48.5h-217v139h895v-139z" />
    <glyph glyph-name="uni2116" unicode="&#x2116;" horiz-adv-x="2473" 
d="M1593.5 516q-102.5 57 -164 157.5t-61.5 223.5t60.5 222.5t163 154.5t227.5 55t227 -55t162.5 -153.5t60.5 -223.5t-60.5 -225.5t-163.5 -156.5t-226 -56t-225.5 57zM203 1313h155l695 -1037v1037h155v-1313h-155l-695 1038v-1038h-155v1313zM1969.5 645
q68.5 39 107.5 105.5t39 148.5q0 80 -40 145.5t-107.5 103.5t-149.5 38t-151 -38t-108.5 -103.5t-39.5 -145.5t39.5 -147.5t108.5 -106.5t151 -39t150.5 39zM1528 295h581v-127h-581v127z" />
    <glyph glyph-name="uni2117" unicode="&#x2117;" horiz-adv-x="1286" 
d="M898 1103.5q116 -67.5 182.5 -182t66.5 -251.5t-66.5 -252t-182.5 -182.5t-255 -67.5q-137 0 -252 66.5t-182.5 182t-67.5 253.5q0 137 67.5 251.5t182.5 182t252 67.5q139 0 255 -67.5zM851 315.5q93 55.5 147.5 148.5t54.5 206t-54.5 206t-147.5 147t-206 54t-207 -54
t-148 -148.5t-54 -204.5q0 -111 54 -205t148 -149.5t207 -55.5t206 55.5zM833.5 869q49.5 -46 49.5 -121q0 -70 -49.5 -116t-128.5 -46h-130v-170h-92v499h222q79 0 128.5 -46zM762.5 688.5q23.5 22.5 23.5 63.5q0 39 -24.5 60.5t-67.5 21.5h-119v-168h119q45 0 68.5 22.5z
" />
    <glyph glyph-name="trademark" unicode="&#x2122;" horiz-adv-x="1421" 
d="M51 1405h516v-105h-198v-569h-127v569h-191v105zM647 1405h135l199 -528l197 528h135v-674h-125v139q0 158 10 285l-156 -410h-120l-158 414q0 -25 4 -86q6 -178 6 -203v-139h-127v674z" />
    <glyph glyph-name="estimated" unicode="&#x212e;" horiz-adv-x="1515" 
d="M334 604v-315q66 -104 184.5 -163.5t272.5 -59.5q139 0 253.5 55t178.5 149h114q-76 -139 -216 -217t-330 -78q-197 0 -346.5 83t-231.5 238t-82 359q0 205 81 360.5t227.5 239.5t338.5 84q182 0 316.5 -76.5t208 -223t77.5 -349.5v-26q0 -23 -1 -39.5t-1 -20.5h-1044z
M523.5 1184.5q-111.5 -56.5 -183.5 -160.5v-332h836v367q-70 90 -174.5 136t-227.5 46q-139 0 -250.5 -56.5z" />
    <glyph glyph-name="oneeighth" unicode="&#x215b;" horiz-adv-x="1548" 
d="M1459 373q38 -57 38 -131q0 -117 -89 -188t-220 -70q-133 0 -220 71q-87 72 -87 189q0 72 37 128t100 83q-49 27 -80 76q-31 50 -31 108q0 100 80 166t201 65q121 0 200 -65q79 -66 78 -168q0 -59 -29 -108q-30 -48 -81 -74q65 -25 103 -82zM1085 713q-39 -33 -38 -84
q0 -51 40 -86q41 -35 101 -35q61 0 102 34t41 85q0 53 -40 86t-103 32q-64 1 -103 -32zM1308 151q48 38 48 101t-48 100t-120 37t-120 -38t-48 -99q0 -63 48 -101t120 -38t120 38zM178 0l914 1372l88 -57l-914 -1370zM47 1180q86 0 138 35q52 36 67 98h113v-854h-140v618
h-178v103z" />
    <glyph glyph-name="threeeighths" unicode="&#x215c;" horiz-adv-x="1740" 
d="M1652 373q38 -57 38 -131q0 -117 -89 -188t-221 -70q-133 0 -220 71q-87 72 -87 189q0 72 37 128t100 83q-49 27 -80 76q-31 50 -30 108q0 100 80 166t200 65q121 0 200 -65q79 -66 79 -168q0 -59 -30 -108q-30 -48 -81 -74q66 -25 104 -82zM1278 713q-39 -33 -39 -84
t41 -86t100 -35q61 0 103 34q41 34 41 85q0 53 -40 86t-104 32q-63 1 -102 -32zM1500 151q48 38 48 101t-48 100t-120 37t-119 -38q-48 -38 -49 -99q0 -63 49 -101q48 -38 119 -38q72 0 120 38zM371 0l913 1372l88 -57l-913 -1370zM588 903q70 -70 69 -180q0 -123 -86 -201
t-219 -78t-217 80t-82 205h137q0 -70 47 -116q46 -46 117 -46q72 0 118 45t46 115q0 61 -45 107q-45 45 -111 49q-20 4 -41 3q-22 -1 -28 -1h-57v94l215 213h-347v121h517v-123l-209 -205q106 -12 176 -82z" />
    <glyph glyph-name="fiveeighths" unicode="&#x215d;" horiz-adv-x="1787" 
d="M1699 373q38 -57 38 -131q0 -117 -89 -188t-221 -70q-133 0 -220 71q-87 72 -87 189q0 72 37 128t100 83q-49 27 -79 76q-31 50 -31 108q0 100 80 166t200 65q121 0 200 -65q79 -66 79 -168q0 -59 -30 -108q-30 -48 -81 -74q66 -25 104 -82zM1325 713q-39 -33 -39 -84
t41 -86t100 -35q61 0 103 34q41 34 41 85q0 53 -40 86t-104 32q-63 1 -102 -32zM1547 151q48 38 48 101t-48 100t-120 37t-119 -38q-48 -38 -48 -99q0 -63 48 -101t119 -38q72 0 120 38zM418 0l913 1372l88 -57l-913 -1370zM591 936q81 -80 81 -201q0 -129 -89 -210
t-223 -81q-133 0 -218 80t-85 205h138q0 -68 47 -114t116 -46q74 0 123 46t49 120q0 72 -47 118t-121 46q-49 0 -91 -20t-62 -52l-135 19l110 467h443v-121h-336l-55 -215q61 39 151 39q123 0 204 -80z" />
    <glyph glyph-name="uni2160" unicode="&#x2160;" horiz-adv-x="1011" 
d="M594 1159v-1005h315v-154h-805v154h316v1005h-316v154h805v-154h-315z" />
    <glyph glyph-name="uni2161" unicode="&#x2161;" horiz-adv-x="1536" 
d="M102 154h289v1005h-289v154h1334v-154h-289v-1005h289v-154h-1334v154zM973 154v1005h-408v-1005h408z" />
    <glyph glyph-name="uni2162" unicode="&#x2162;" horiz-adv-x="2097" 
d="M102 154h289v1005h-289v154h1895v-154h-289v-1005h289v-154h-1895v154zM963 154v1005h-398v-1005h398zM1534 154v1005h-397v-1005h397z" />
    <glyph glyph-name="uni2163" unicode="&#x2163;" horiz-adv-x="1996" 
d="M100 0v154h265v1005h-265v154h1798v-154h-241l-350 -1005h591v-154h-1798zM1047 154l-340 1005h-166v-1005h506zM893 1159l289 -895l297 895h-586z" />
    <glyph glyph-name="uni2164" unicode="&#x2164;" horiz-adv-x="1611" 
d="M1282 1159l-350 -1005h567v-154h-1384v154h555l-340 1005h-228v154h1407v-154h-227zM516 1159l291 -895l295 895h-586z" />
    <glyph glyph-name="uni2165" unicode="&#x2165;" horiz-adv-x="1998" 
d="M100 0v154h580l-342 1005h-238v154h1798v-154h-264v-1005h267v-154h-1801zM524 1159l293 -895l295 895h-588zM1460 154v1005h-168l-350 -1005h518z" />
    <glyph glyph-name="uni2166" unicode="&#x2166;" horiz-adv-x="2592" 
d="M100 0v154h578l-340 1005h-238v154h2392v-154h-288v-1005h288v-154h-2392zM524 1159l289 -895l295 895h-584zM1456 154v1005h-168l-348 -1005h516zM1632 1159v-1005h396v1005h-396z" />
    <glyph glyph-name="uni2167" unicode="&#x2167;" horiz-adv-x="3094" 
d="M100 154h572l-334 1005h-238v154h2896v-154h-278v-1005h276v-154h-2894v154zM1085 1159h-561l281 -895zM1446 154v1005h-176l-342 -1005h518zM1995 154v1005h-375v-1005h375zM2544 154v1005h-375v-1005h375z" />
    <glyph glyph-name="uni2168" unicode="&#x2168;" horiz-adv-x="1935" 
d="M100 0v154h265v1005h-265v154h1735v-154h-215l-344 -520l319 -485h242v-154h-1737zM541 1159v-1005h192l328 491l-340 514h-180zM1419 1159h-504l254 -395zM1401 154l-236 366l-239 -366h475z" />
    <glyph glyph-name="uni2169" unicode="&#x2169;" horiz-adv-x="1531" 
d="M1214 1159l-340 -524l318 -481h240v-154h-1330v154h226l329 491l-344 514h-211v154h1325v-154h-213zM1016 1159h-506l256 -397zM995 154l-235 366l-240 -366h475z" />
    <glyph glyph-name="uni216C" unicode="&#x216c;" horiz-adv-x="1312" 
d="M102 0v154h275v1005h-275v154h742v-154h-293v-1005h485v415h168v-569h-1102z" />
    <glyph glyph-name="uni216D" unicode="&#x216d;" horiz-adv-x="1445" 
d="M412.5 61q-148.5 86 -229.5 240t-81 350q0 197 81 351.5t228.5 240.5t340.5 86q135 0 247.5 -48t176.5 -134v156h163v-463h-157q-29 145 -138.5 238t-279.5 93q-139 0 -247.5 -64.5t-169 -183t-60.5 -272.5t60.5 -271.5t169 -182t247.5 -64.5q170 0 279.5 92t138.5 238
h157v-463h-163v158q-63 -86 -176 -134.5t-246 -48.5q-193 0 -341.5 86z" />
    <glyph glyph-name="uni216E" unicode="&#x216e;" horiz-adv-x="1499" 
d="M1097.5 1232q143.5 -81 221.5 -229.5t78 -343.5q0 -197 -80 -346t-225.5 -231t-337.5 -82h-652v154h283v1005h-283v154h664q188 0 331.5 -81zM995.5 215q106.5 61 164 176t57.5 266q0 156 -59.5 268.5t-166 173t-248.5 60.5h-184v-1005h189q141 0 247.5 61z" />
    <glyph glyph-name="uni216F" unicode="&#x216f;" horiz-adv-x="2170" 
d="M104 154h267v1005h-267v154h508l465 -1090l471 1090h520v-154h-280v-1005h280v-154h-659v154h209v923l-463 -1071h-154l-460 1075v-927h225v-154h-662v154z" />
    <glyph glyph-name="arrowleft" unicode="&#x2190;" horiz-adv-x="1849" 
d="M1681 459h-1265l385 -463h-191l-442 530l444 535h189l-385 -467h1265v-135z" />
    <glyph glyph-name="arrowup" unicode="&#x2191;" horiz-adv-x="1284" 
d="M1180 774l-469 381v-1214h-138v1212l-467 -379v184l535 439l539 -443v-180z" />
    <glyph glyph-name="arrowright" unicode="&#x2192;" horiz-adv-x="1849" 
d="M1681 526l-444 -530h-188l385 463h-1266v135h1266l-385 467h188z" />
    <glyph glyph-name="arrowdown" unicode="&#x2193;" horiz-adv-x="1284" 
d="M1180 526v-180l-539 -442l-535 438v184l467 -381v1211h138v-1211z" />
    <glyph glyph-name="arrowboth" unicode="&#x2194;" horiz-adv-x="2347" 
d="M612 1061h189l-385 -467h1517l-385 467h189l442 -535l-442 -530h-189l385 463h-1517l385 -463h-191l-442 530z" />
    <glyph glyph-name="arrowupdn" unicode="&#x2195;" horiz-adv-x="1402" 
d="M168 152l465 -383v1515l-465 -383v189l530 444l537 -444v-189l-465 383v-1515l465 383v-187l-537 -444l-530 444v187z" />
    <glyph glyph-name="carriagereturn" unicode="&#x21b5;" horiz-adv-x="1398" 
d="M1288 1223v-836h-821v-252l-373 318l373 317v-248h686v701h135z" />
    <glyph glyph-name="uni21BA" unicode="&#x21ba;" horiz-adv-x="1845" 
d="M493.5 59q-157.5 84 -248.5 239t-91 357q0 195 90 350.5t251.5 244.5t370.5 89q197 0 340 -75l-53 -109q-127 66 -293 66q-170 0 -303 -73t-205.5 -201t-72.5 -288q0 -168 71.5 -295.5t199.5 -198.5t290 -71q170 0 302 75t202.5 208t64.5 301h-250l299 348l297 -348h-221
q6 -209 -82 -368.5t-246.5 -247t-359.5 -87.5q-195 0 -352.5 84z" />
    <glyph glyph-name="uni21BB" unicode="&#x21bb;" horiz-adv-x="1845" 
d="M640 62.5q-155 87.5 -242 246t-87 369.5h-223l299 348l297 -348h-250q0 -168 69.5 -301t197.5 -208t292 -75t294 73t204 201t74 289q0 160 -73 288t-204 202t-299 74q-82 0 -160.5 -17.5t-138.5 -48.5l-45 107q68 37 157 55t183 18q205 0 365.5 -88t250 -243.5
t89.5 -350.5q0 -197 -91.5 -351.5t-251 -240.5t-356.5 -86q-196 0 -351 87.5z" />
    <glyph glyph-name="partialdiff" unicode="&#x2202;" horiz-adv-x="1138" 
d="M858 1033q88 -130 144.5 -269t56.5 -279q0 -150 -62.5 -265.5t-176 -179t-263.5 -63.5q-141 0 -250.5 59.5t-170 167t-60.5 245.5q0 139 62.5 248.5t170 171t236.5 61.5q135 0 243 -70q-57 104 -133.5 209t-220.5 277h193q143 -183 231 -313zM798 221q89 90 89 236
q0 145 -89 236t-229 91q-94 0 -168.5 -44t-116.5 -119.5t-42 -169.5q0 -137 90 -228.5t233 -91.5q144 0 233 90z" />
    <glyph glyph-name="emptyset" unicode="&#x2205;" horiz-adv-x="1521" 
d="M1102.5 1252q154.5 -87 244 -243.5t89.5 -353.5t-89.5 -351t-244 -241.5t-344.5 -87.5t-345 86t-244 241t-89 353q0 197 89 352.5t243.5 243.5t345.5 88q190 0 344.5 -87zM508 1103.5q-113 -65.5 -177.5 -182t-64.5 -266.5q0 -158 72 -280l752 669q-68 61 -152 93
t-178 32q-139 0 -252 -65.5zM1007.5 206.5q112.5 65.5 177 182.5t64.5 266q0 158 -73 283l-752 -670q68 -61 153 -94t181 -33q137 0 249.5 65.5z" />
    <glyph glyph-name="Delta" unicode="&#x2206;" horiz-adv-x="1265" 
d="M1155 145v-145h-1044v145l442 1168h162zM268 145h731l-366 965z" />
    <glyph glyph-name="product" unicode="&#x220f;" horiz-adv-x="1126" 
d="M45 1063h1008v-160h-193v-608q0 -84 37 -124t111 -40q12 0 45 4v-143q-41 -8 -86 -8q-129 0 -202 79.5t-73 227.5v612h-309v-903h-172v903h-166v160z" />
    <glyph glyph-name="summation" unicode="&#x2211;" horiz-adv-x="919" 
d="M61 184l459 473l-459 476v180h779v-172h-564l455 -484l-457 -481h566v-176h-779v184z" />
    <glyph glyph-name="minus" unicode="&#x2212;" horiz-adv-x="892" 
d="M778 680v-150h-663v150h663z" />
    <glyph glyph-name="radical" unicode="&#x221a;" horiz-adv-x="1366" 
d="M1497 1665v-152h-401l-590 -1513h-170l-297 797h166l215 -596l567 1464h510z" />
    <glyph glyph-name="infinity" unicode="&#x221e;" horiz-adv-x="1622" 
d="M143 700.5q47 79.5 128 125.5t178 46q102 0 197 -57t165 -168q70 109 164 167t199 58q98 0 179 -46t127 -125.5t46 -176.5q0 -96 -46 -176t-127 -125t-179 -45q-102 0 -197.5 58.5t-165.5 169.5q-72 -113 -166 -170.5t-196 -57.5q-96 0 -177.5 46t-128.5 125t-47 175
q0 97 47 176.5zM312.5 389q54.5 -53 140.5 -53q61 0 130.5 44t121.5 144q-49 102 -119 146.5t-133 44.5q-86 0 -140.5 -53.5t-54.5 -137.5q0 -82 54.5 -135zM1035.5 382q68.5 -46 135.5 -46q84 0 139.5 53t55.5 135t-55.5 136.5t-139.5 54.5q-68 0 -136 -46t-117 -145
q49 -96 117.5 -142z" />
    <glyph glyph-name="integral" unicode="&#x222b;" horiz-adv-x="747" 
d="M690 1339v-159h-137q-39 0 -65.5 -26t-26.5 -79v-835q0 -117 -73 -190t-183 -73h-148v156h138q39 0 66.5 26.5t27.5 80.5v835q0 115 72.5 189.5t181.5 74.5h147z" />
    <glyph glyph-name="approxequal" unicode="&#x2248;" horiz-adv-x="831" 
d="M772 764q4 -115 -54.5 -180.5t-148.5 -65.5q-51 0 -90 18.5t-96 55.5q-43 29 -69.5 42t-57.5 13q-82 0 -80 -106h-117q-4 111 54.5 177t146.5 66q51 0 93 -19.5t96 -55.5q41 -29 69.5 -42.5t56.5 -13.5q82 0 80 111h117zM772 426q4 -117 -54.5 -182.5t-148.5 -65.5
q-51 0 -90 18.5t-96 55.5q-41 29 -68.5 43t-58.5 14q-82 0 -80 -106h-117q-4 111 54.5 177t146.5 66q51 0 93 -19t96 -56q41 -29 69.5 -42.5t56.5 -13.5q82 0 80 111h117z" />
    <glyph glyph-name="notequal" unicode="&#x2260;" horiz-adv-x="1015" 
d="M657 752l-141 -256h410v-150h-490l-131 -240h-164l131 240h-182v150h264l140 256h-404v151h488l129 238h161l-129 -238h187v-151h-269z" />
    <glyph glyph-name="lessequal" unicode="&#x2264;" horiz-adv-x="1124" 
d="M145 541v151l840 293v-172l-616 -197l616 -196v-172zM137 0v145h842v-145h-842z" />
    <glyph glyph-name="greaterequal" unicode="&#x2265;" horiz-adv-x="1124" 
d="M137 420l619 196l-619 197v172l840 -293v-151l-840 -293v172zM145 145h840v-145h-840v145z" />
    <glyph glyph-name="uni2388" unicode="&#x2388;" horiz-adv-x="1759" 
d="M836 -20q-135 10 -252 77.5t-193 180.5l-196 -113l-45 74l196 112q-59 125 -59 260q0 131 57 256l-192 113l45 76l192 -111q76 111 193.5 179.5t253.5 78.5v223h88v-223q137 -10 253.5 -78.5t192.5 -181.5l195 111l45 -74l-197 -113q59 -119 60 -256q0 -139 -60 -258
l195 -112l-45 -78l-195 113q-76 -111 -192.5 -178.5t-251.5 -77.5v-228h-88v228zM836 1059q-106 -10 -200.5 -65.5t-154.5 -141.5l355 -207v414zM1278 850q-61 88 -153.5 143.5t-200.5 65.5v-414zM793 569l-357 205q-43 -94 -43 -203q0 -104 45 -206zM1366 571
q0 109 -43 203l-356 -205l354 -202q45 95 45 204zM836 494l-353 -203q59 -88 152.5 -142.5t200.5 -64.5v410zM1123.5 148.5q93.5 54.5 152.5 140.5l-352 205v-410q106 10 199.5 64.5z" />
    <glyph glyph-name="uni2602" unicode="&#x2602;" horiz-adv-x="1812" 
d="M1292.5 1310q151.5 -81 233.5 -220.5t82 -317.5h-76q0 78 -50 126t-132 48q-80 0 -129.5 -48t-49.5 -126h-75q0 70 -41 116t-111 56v-811q0 -111 -68.5 -179.5t-181.5 -68.5q-115 0 -181.5 67.5t-66.5 180.5h66q0 -82 50 -132t132 -50q80 0 128 50t48 132v811
q-72 -10 -112.5 -56t-40.5 -116h-76q0 78 -49 126t-129 48q-82 0 -132 -48t-50 -126h-76q0 178 82 317.5t233.5 220.5t351.5 87l11 131h51l8 -131q199 -6 350.5 -87z" />
    <glyph glyph-name="uni2605" unicode="&#x2605;" horiz-adv-x="1703" 
d="M711 791l141 423l127 -423h457l-363 -254l141 -424l-362 268l-363 -268l142 424l-363 254h443z" />
    <glyph glyph-name="uni2609" unicode="&#x2609;" horiz-adv-x="1945" 
d="M213 152q66 0 106.5 23.5t57.5 92.5l137 787q2 8 2 22q0 53 -32.5 68.5t-94.5 13.5l29 152l467 2l-27 -152q-2 0 -33.5 1t-64.5 -26.5t-41 -80.5l-131 -711q-16 -86 -32.5 -131t-53.5 -78l24 -33q51 41 110.5 51.5t156.5 10.5h591q55 0 86 5t53.5 27.5t30.5 71.5l29 176
h176l-61 -444h-1512zM1519.5 1116.5q16.5 16.5 45.5 16.5q27 0 43 -16.5t16 -45.5q0 -25 -16.5 -42t-42.5 -17q-27 0 -44.5 17.5t-17.5 41.5q0 29 16.5 45.5zM721 442h199l6 33q-80 41 -121 111.5t-41 161.5q0 104 52 189t147.5 134t218.5 49q168 0 271 -88t103 -231
q0 -117 -67.5 -206t-177.5 -120l-8 -33h184l-21 -147h-348l35 215q106 16 172 88t66 168q0 94 -58.5 148.5t-156.5 54.5q-111 0 -180.5 -69t-69.5 -173q0 -80 41 -138.5t108 -78.5l-37 -215h-344zM1530 1037.5q12 -13.5 35 -13.5q20 0 32.5 13.5t12.5 33.5q0 23 -12.5 36
t-32.5 13q-23 0 -35 -12t-12 -35q0 -22 12 -35.5zM1542 1102h27q23 0 22 -19q0 -14 -12 -18l12 -23h-14l-10 21h-13v-21h-12v60zM1567 1071q12 0 12 10t-10 11h-15v-21h13z" />
    <glyph glyph-name="uni261C" unicode="&#x261c;" horiz-adv-x="1830" 
d="M1266 172.5q-82 -22.5 -172 -22.5q-84 0 -152 20q-49 -14 -96 -14q-57 0 -88 23.5t-31 66.5q0 16 2 24q-45 0 -75.5 24.5t-30.5 70.5q0 25 8 41q-39 10 -62.5 38.5t-23.5 65.5q0 39 18 61l-305 17q-49 4 -77.5 31.5t-28.5 76.5q0 53 35.5 84t101.5 31l491 2q0 10 2 27.5
t6 31.5q33 125 218 125q106 0 171.5 -32.5t141.5 -96.5q59 -51 104 -77q16 12 44 20t55 8q94 0 136 -92t42 -233q0 -170 -52.5 -239t-125.5 -69q-37 0 -73 12.5t-58 32.5q-43 -36 -125 -58.5zM1112 205q158 0 253 84t95 223q0 66 -17.5 132.5t-45.5 98.5q-29 14 -60.5 37
t-60.5 45q-70 57 -128 86t-149 29q-51 0 -98 -15.5t-57 -60.5q-18 -90 -23 -100q-12 -57 -33 -146q-6 -18 12.5 -28t41.5 -10q47 0 73 41q31 47 31 102q0 20 -6 40.5t-6 31.5q0 10 6 16t16 6q16 0 25 -16q4 -8 10 -26.5t8 -41.5q6 2 14.5 5t28.5 24q14 14 23 14q23 0 22 -24
q0 -16 -10 -29q-23 -31 -84 -57q-8 -39 -30 -68q0 -33 30 -63q29 -31 71 -42.5t105 -11.5q61 0 91 4h6q14 0 22 -7t8 -17q0 -16 -22 -25q-27 -10 -105 -10q-80 0 -131 20q0 -33 -4 -40q72 -18 72 -84t-76 -111q43 -6 82 -6zM1607.5 310.5q32.5 66.5 32.5 191.5
q0 127 -32.5 196.5t-89.5 69.5q-33 0 -58 -18q57 -102 58 -238q0 -76 -21.5 -137.5t-60.5 -100.5q14 -14 30.5 -22t42.5 -8q66 0 98.5 66.5zM733 639q16 35 27 117h-473q-78 0 -78 -58q0 -51 53 -55l389 -18q39 14 82 14zM741.5 479.5q59.5 20.5 69.5 24.5l47 18
q-41 -4 -74.5 13.5t-48.5 50.5q-55 -6 -92 -21q-37 -14 -37 -51q0 -27 13.5 -41t35.5 -14q27 0 86.5 20.5zM846 353.5q76 27.5 100 41.5q14 8 22.5 21.5t8.5 27.5t-9.5 25.5t-25.5 11.5q-25 0 -101.5 -23.5t-117.5 -39.5q-20 -8 -28.5 -16.5t-8.5 -24.5q0 -27 16.5 -39
t36.5 -12q31 0 107 27.5zM983.5 238.5q63.5 31.5 63.5 78.5q0 18 -10.5 27.5t-24.5 9.5q-31 0 -193 -65q-31 -12 -31 -39q0 -43 64 -43q68 0 131.5 31.5z" />
    <glyph glyph-name="uni261E" unicode="&#x261e;" horiz-adv-x="1832" 
d="M185.5 255q-52.5 69 -52.5 239q0 141 42 233t136 92q27 0 54.5 -8t44.5 -20q45 27 104 77q76 63 141.5 96t171.5 33q184 0 217 -125q4 -14 6.5 -31.5t2.5 -27.5l491 -2q66 0 101.5 -29.5t35.5 -83.5q0 -49 -28.5 -77.5t-77.5 -32.5l-305 -17q6 -8 12 -26.5t6 -34.5
q0 -37 -23.5 -65.5t-62.5 -38.5q8 -16 8 -41q0 -45 -30.5 -70t-75.5 -25q2 -8 2 -24q0 -41 -32 -65.5t-89 -24.5q-43 0 -94 14q-68 -20 -152 -20q-90 0 -172 22.5t-125 58.5q-23 -20 -58.5 -32.5t-72.5 -12.5q-73 0 -125.5 69zM727 322q0 66 72 84q-4 8 -4 40
q-51 -20 -131 -20q-78 0 -105 10q-23 8 -22 25q0 12 9 19t25 5q43 -6 91 -6q49 0 98 12.5t80 43.5t30 63q-23 29 -30 68q-61 27 -84 57q-10 12 -11 29q0 25 23 24q8 0 23 -14q20 -20 29 -23.5t14 -5.5q2 16 8 37t10 31q8 16 27 16q8 0 14 -6t6 -16t-6 -31t-6 -41
q0 -55 31 -102q27 -41 73 -41q23 0 41.5 10t11.5 28q-31 123 -55 246q-10 45 -57 60.5t-98 15.5q-90 0 -148.5 -28.5t-128.5 -86.5q-29 -23 -60.5 -45t-60.5 -37q-29 -33 -46 -99t-17 -132q0 -139 95 -223t253 -84q39 0 82 6q-76 45 -76 111zM366.5 252q16.5 8 30.5 22
q-39 39 -60.5 100.5t-21.5 137.5q0 135 58 238q-25 18 -58 18q-57 0 -89.5 -69.5t-32.5 -196.5q0 -125 32.5 -191.5t96.5 -66.5q28 0 44.5 8zM1571 643q25 2 39 16.5t14 38.5q0 57 -78 58h-473q10 -82 27 -117q43 0 82 -14zM1213.5 473q13.5 14 13.5 39q0 41 -33 51
q-39 16 -96 23q-16 -29 -49 -45.5t-68 -20.5l41 -14q6 -2 66.5 -24.5t91.5 -22.5q20 0 33.5 14zM1130.5 338q16.5 12 16.5 39q0 16 -8.5 24.5t-28.5 16.5q-41 16 -118 39.5t-101 23.5q-16 0 -25.5 -11t-9.5 -26q0 -14 8 -27.5t23 -21.5q25 -14 100.5 -41.5t106.5 -27.5
q20 0 36.5 12zM1044 250q0 27 -30 39q-162 66 -193 65q-14 0 -24.5 -9t-10.5 -28q0 -47 64.5 -78.5t136.5 -31.5q57 0 57 43z" />
    <glyph glyph-name="uni2639" unicode="&#x2639;" horiz-adv-x="1388" 
d="M1217.5 360.5q-78.5 -131.5 -216 -205t-309.5 -73.5q-170 0 -307 72.5t-215 203.5t-78 297t79 298t216 206t307 74t307.5 -74t216 -205t78.5 -297q0 -165 -78.5 -296.5zM1140.5 913.5q-65.5 112.5 -181 175t-261.5 62.5q-147 0 -264 -63.5t-183.5 -176t-66.5 -256.5
q0 -141 66.5 -253.5t183.5 -175t262 -62.5t262 62.5t182.5 175t65.5 255.5q0 144 -65.5 256.5zM461 755.5q-31 30.5 -31 69.5q0 41 29.5 70t70.5 29t70 -29t29 -70q0 -39 -30 -69.5t-69 -30.5q-38 0 -69 30.5zM768 755.5q-31 30.5 -31 69.5q0 41 30 70t71 29t69.5 -29
t28.5 -70q0 -39 -29.5 -69.5t-68.5 -30.5t-70 30.5zM495 518q89 47 199 47q111 0 200 -47t134 -129l-51 -35q-49 63 -122 97t-161 34t-160.5 -33.5t-121.5 -97.5l-52 35q46 82 135 129z" />
    <glyph glyph-name="smileface" unicode="&#x263a;" horiz-adv-x="1388" 
d="M1217.5 360.5q-78.5 -131.5 -216 -205t-309.5 -73.5q-170 0 -307 72.5t-215 203.5t-78 297t79 298t216 206t307 74t307.5 -74t216 -205t78.5 -297q0 -165 -78.5 -296.5zM1140.5 913.5q-65.5 112.5 -181 175t-261.5 62.5q-147 0 -264 -63.5t-183.5 -176t-66.5 -256.5
q0 -141 66.5 -253.5t183.5 -175t262 -62.5t262 62.5t182.5 175t65.5 255.5q0 144 -65.5 256.5zM461 755.5q-31 30.5 -31 69.5q0 41 29.5 70t70.5 29t70 -29t29 -70q0 -39 -30 -69.5t-69 -30.5q-38 0 -69 30.5zM768 755.5q-31 30.5 -31 69.5q0 41 30 70t71 29t69.5 -29
t28.5 -70q0 -39 -29.5 -69.5t-68.5 -30.5t-70 30.5zM424 565q27 -63 100.5 -102t169.5 -39t170 39t101 102h71q-27 -100 -121 -160.5t-221 -60.5t-221 60.5t-121 160.5h72z" />
    <glyph glyph-name="invsmileface" unicode="&#x263b;" horiz-adv-x="1388" 
d="M384 148.5q-138 72.5 -218 204.5t-80 302q0 172 81 304.5t219 206t308 73.5t308.5 -73.5t219.5 -206t81 -302.5t-81 -303t-220.5 -205.5t-309.5 -72.5t-308 72.5zM603 750.5q32 31.5 32 74.5t-32 74t-73 31q-43 0 -74.5 -31t-31.5 -74t31.5 -74.5t74.5 -31.5
q41 0 73 31.5zM910.5 750.5q31.5 31.5 31.5 74.5t-31.5 74t-72.5 31q-43 0 -75 -31t-32 -74t32 -74.5t75 -31.5q41 0 72.5 31.5zM923.5 402.5q96.5 64.5 123.5 168.5h-89q-23 -63 -95 -102t-169 -39q-96 0 -168.5 39t-95.5 102h-88q27 -104 123 -168.5t229 -64.5t229.5 64.5
z" />
    <glyph glyph-name="uni2709" unicode="&#x2709;" horiz-adv-x="1435" 
d="M1251 1018v-785h-1067v785h1067zM1137 944h-840l334 -280q37 33 88 32q45 0 86 -30zM260 887v-578h916v580l-334 -283q6 -18 6 -39q0 -55 -38 -93t-91 -38q-55 0 -93 38t-38 93q0 23 6 37z" />
    <glyph glyph-name="uni2713" unicode="&#x2713;" horiz-adv-x="1572" 
d="M190 518l306 -289l884 985l115 -102l-981 -1098l-422 396z" />
    <glyph glyph-name="uni2715" unicode="&#x2715;" horiz-adv-x="1548" 
d="M84 111l602 616l-600 614l90 89l598 -613l598 613l90 -89l-602 -614l604 -616l-88 -88l-602 614l-602 -614z" />
    <glyph glyph-name="uni2736" unicode="&#x2736;" horiz-adv-x="1372" 
d="M551 874l135 439l119 -439l455 119l-320 -336l320 -321l-455 102l-119 -438l-135 438l-438 -102l319 321l-319 336z" />
    <glyph glyph-name="uni2737" unicode="&#x2737;" horiz-adv-x="1583" 
d="M694 887l97 426l98 -426l364 233l-229 -366l424 -97l-424 -98l229 -364l-364 231l-98 -426l-97 426l-364 -231l227 364l-422 98l422 97l-227 366z" />
    <glyph glyph-name="uni2764" unicode="&#x2764;" horiz-adv-x="1198" 
d="M236.5 760.5q68.5 68.5 169.5 68.5q68 0 117.5 -35.5t74.5 -97.5q25 59 75 96t120 37q100 0 168.5 -68.5t68.5 -178.5q0 -117 -56 -204t-145.5 -149.5t-230.5 -138.5q-143 78 -227 136.5t-143.5 146.5t-59.5 209q0 110 68.5 178.5z" />
    <glyph glyph-name="uni27A1" unicode="&#x27a1;" horiz-adv-x="1488" 
d="M930 319h-740v375h740v230l448 -416l-448 -412v223z" />
    <glyph glyph-name="uni2B05" unicode="&#x2b05;" horiz-adv-x="1488" 
d="M109 508l450 416v-230h737v-375h-737v-223z" />
    <glyph glyph-name="uni2B06" unicode="&#x2b06;" horiz-adv-x="1099" 
d="M739 819v-739h-374v739h-230l416 449l412 -449h-224z" />
    <glyph glyph-name="uni2B07" unicode="&#x2b07;" horiz-adv-x="1099" 
d="M551 57l-416 451h230v737h374v-737h224z" />
    <glyph glyph-name="uni3020" unicode="&#x3020;" horiz-adv-x="1912" 
d="M1620 1047h-1327v155h1327v-155zM879 799h-586v155h1327v-155h-586v-453h-155v453zM487 584q6 25 27 45l-37 53l49 37l41 -57q20 4 35 4q23 0 41 -7l41 60l49 -37l-39 -57q16 -23 21 -41h67v-62h-67q-10 -37 -41 -60.5t-72 -23.5q-43 0 -73.5 23.5t-41.5 60.5h-59v62h59z
M1376.5 461.5q-30.5 -23.5 -71.5 -23.5q-43 0 -74 23.5t-41 60.5h-60v62h60q6 25 27 45l-37 53l49 37l41 -57q20 4 35 4q23 0 41 -7l40 60l50 -37l-41 -57q16 -20 22 -41h68v-62h-68q-10 -37 -40.5 -60.5zM1732.5 632.5q57.5 -61.5 57.5 -153.5q0 -84 -54.5 -144.5
t-133.5 -70.5q-76 -147 -254.5 -236t-391.5 -89t-391 89t-254 236q-80 10 -134 70.5t-54 144.5q0 92 57.5 153.5t157.5 61.5v-63q-57 0 -95 -42t-38 -110q0 -66 42 -113t128 -47q59 -135 220 -217t361 -82q201 0 362 82t220 217q86 0 128 47.5t42 112.5q0 68 -38 110t-95 42
v63q100 0 157.5 -61.5zM560 595q-15 -15 -15 -42t15 -43t42 -16q25 0 40 16t15 43t-15 42t-40 15q-27 0 -42 -15zM1344.5 510q15.5 16 15.5 43t-15.5 42t-39.5 15q-27 0 -42.5 -15t-15.5 -42t15.5 -43t42.5 -16q24 0 39.5 16zM1170.5 163q-103.5 -38 -214.5 -38t-214 38
t-185 109l53 62q150 -127 346 -127q197 0 347 127l53 -62q-82 -71 -185.5 -109z" />
    <glyph glyph-name="uni5350" unicode="&#x5350;" horiz-adv-x="2000" 
d="M1083 1247v-467h588v-780h-162v625h-426v-625h-753v158h588v467h-588v780h159v-625h429v625h753v-158h-588z" />
    <glyph glyph-name="C.aalt" horiz-adv-x="1224" 
d="M169 1014.5q87 154.5 244.5 239.5t366.5 85q82 0 164 -14t139 -37v-172q-131 57 -288 58q-158 0 -278 -66t-185.5 -182.5t-65.5 -268.5q0 -154 66.5 -270.5t187.5 -181t279 -64.5q176 0 321 68v-172q-63 -29 -154.5 -45.5t-185.5 -16.5q-209 0 -366.5 85t-244.5 239
t-87 356q0 205 87 359.5z" />
    <glyph glyph-name="Cacute.aalt" horiz-adv-x="1224" 
d="M717 1477l264 292l98 -96l-309 -250zM169 1014.5q87 154.5 244.5 239.5t366.5 85q82 0 164 -14t139 -37v-172q-131 57 -288 58q-158 0 -278 -66t-185.5 -182.5t-65.5 -268.5q0 -154 66.5 -270.5t187.5 -181t279 -64.5q176 0 321 68v-172q-63 -29 -154.5 -45.5
t-185.5 -16.5q-209 0 -366.5 85t-244.5 239t-87 356q0 205 87 359.5z" />
    <glyph glyph-name="Ccaron.aalt" horiz-adv-x="1224" 
d="M586 1733l184 -189l184 189l82 -60l-186 -243h-160l-186 243zM169 1014.5q87 154.5 244.5 239.5t366.5 85q82 0 164 -14t139 -37v-172q-131 57 -288 58q-158 0 -278 -66t-185.5 -182.5t-65.5 -268.5q0 -154 66.5 -270.5t187.5 -181t279 -64.5q176 0 321 68v-172
q-63 -29 -154.5 -45.5t-185.5 -16.5q-209 0 -366.5 85t-244.5 239t-87 356q0 205 87 359.5z" />
    <glyph glyph-name="Ccedilla.aalt" horiz-adv-x="1224" 
d="M770 -98q63 0 112.5 -39t49.5 -115q0 -86 -62.5 -131t-148.5 -45q-84 0 -139 37v102q18 -20 51 -32.5t67 -12.5q45 0 76 21.5t31 64.5q0 35 -25.5 56.5t-66.5 21.5q-29 0 -53 -8l-46 49l136 197h61v-64l-74 -104q11 2 31 2zM169 1014.5q-87 -154.5 -87 -359.5
q0 -203 87 -356.5t244.5 -238.5t366.5 -85q94 0 185.5 16.5t154.5 45.5v172q-145 -68 -321 -68q-158 0 -279 64.5t-187.5 181.5t-66.5 270q0 152 65.5 268.5t185.5 182.5t278 66t288 -58v172q-57 23 -139 37t-164 14q-209 0 -366.5 -85t-244.5 -239.5z" />
    <glyph glyph-name="Ccircumflex.aalt" horiz-adv-x="1224" 
d="M688 1720h160l184 -243l-80 -58l-184 187l-184 -187l-82 58zM169 1014.5q87 154.5 244.5 239.5t366.5 85q82 0 164 -14t139 -37v-172q-131 57 -288 58q-158 0 -278 -66t-185.5 -182.5t-65.5 -268.5q0 -154 66.5 -270.5t187.5 -181t279 -64.5q176 0 321 68v-172
q-63 -29 -154.5 -45.5t-185.5 -16.5q-209 0 -366.5 85t-244.5 239t-87 356q0 205 87 359.5z" />
    <glyph glyph-name="Cdotaccent.aalt" horiz-adv-x="1224" 
d="M695.5 1466.5q-29.5 28.5 -29.5 71.5q0 45 29.5 74.5t74.5 29.5t74.5 -29.5t29.5 -74.5q0 -43 -29.5 -71.5t-74.5 -28.5t-74.5 28.5zM169 1014.5q87 154.5 244.5 239.5t366.5 85q82 0 164 -14t139 -37v-172q-131 57 -288 58q-158 0 -278 -66t-185.5 -182.5t-65.5 -268.5
q0 -154 66.5 -270.5t187.5 -181t279 -64.5q176 0 321 68v-172q-63 -29 -154.5 -45.5t-185.5 -16.5q-209 0 -366.5 85t-244.5 239t-87 356q0 205 87 359.5z" />
    <glyph glyph-name="G.salt" horiz-adv-x="1542" 
d="M1485 545h-119q-8 -170 -91 -299t-224.5 -200t-319.5 -71q-197 0 -344 85t-227 237t-80 348q0 203 84 360.5t235.5 245.5t348.5 88q231 0 391.5 -115.5t210.5 -308.5h-189q-41 119 -151.5 189t-264.5 70q-143 0 -251.5 -65t-169 -182.5t-60.5 -275.5q0 -233 127 -371.5
t346 -138.5q195 0 317 110.5t130 293.5h-475v151h776v-151z" />
    <glyph glyph-name="Gbreve.aalt" horiz-adv-x="1542" 
d="M876.5 1480.5q-77.5 -67.5 -190.5 -67.5q-117 0 -194.5 68.5t-88.5 181.5h129q6 -59 48.5 -93t105.5 -34t103 35t47 92h129q-11 -115 -88.5 -182.5zM1485 545h-119q-8 -170 -91 -299t-224.5 -200t-319.5 -71q-197 0 -344 85t-227 237t-80 348q0 203 84 360.5t235.5 245.5
t348.5 88q231 0 391.5 -115.5t210.5 -308.5h-189q-41 119 -151.5 189t-264.5 70q-143 0 -251.5 -65t-169 -182.5t-60.5 -275.5q0 -233 127 -371.5t346 -138.5q195 0 317 110.5t130 293.5h-475v151h776v-151z" />
    <glyph glyph-name="Gcircumflex.aalt" horiz-adv-x="1542" 
d="M602 1710h160l184 -244l-80 -57l-184 186l-184 -186l-82 57zM1485 545h-119q-8 -170 -91 -299t-224.5 -200t-319.5 -71q-197 0 -344 85t-227 237t-80 348q0 203 84 360.5t235.5 245.5t348.5 88q231 0 391.5 -115.5t210.5 -308.5h-189q-41 119 -151.5 189t-264.5 70
q-143 0 -251.5 -65t-169 -182.5t-60.5 -275.5q0 -233 127 -371.5t346 -138.5q195 0 317 110.5t130 293.5h-475v151h776v-151z" />
    <glyph glyph-name="uni0122.aalt" horiz-adv-x="1542" 
d="M854 -127q33 -37 33 -94q0 -96 -59.5 -151.5t-147.5 -53.5v45q59 6 88 36t29 73q-16 -10 -37 -11q-37 0 -62.5 26t-25.5 64q0 45 29.5 74t74.5 29t78 -37zM1485 545h-119q-8 -170 -91 -299t-224.5 -200t-319.5 -71q-197 0 -344 85t-227 237t-80 348q0 203 84 360.5
t235.5 245.5t348.5 88q231 0 391.5 -115.5t210.5 -308.5h-189q-41 119 -151.5 189t-264.5 70q-143 0 -251.5 -65t-169 -182.5t-60.5 -275.5q0 -233 127 -371.5t346 -138.5q195 0 317 110.5t130 293.5h-475v151h776v-151z" />
    <glyph glyph-name="Gdotaccent.aalt" horiz-adv-x="1542" 
d="M609.5 1456q-29.5 29 -29.5 72q0 45 29.5 74.5t74.5 29.5t74.5 -29.5t29.5 -74.5q0 -43 -29.5 -72t-74.5 -29t-74.5 29zM1485 545h-119q-8 -170 -91 -299t-224.5 -200t-319.5 -71q-197 0 -344 85t-227 237t-80 348q0 203 84 360.5t235.5 245.5t348.5 88
q231 0 391.5 -115.5t210.5 -308.5h-189q-41 119 -151.5 189t-264.5 70q-143 0 -251.5 -65t-169 -182.5t-60.5 -275.5q0 -233 127 -371.5t346 -138.5q195 0 317 110.5t130 293.5h-475v151h776v-151z" />
    <glyph glyph-name="Q.aalt" horiz-adv-x="1523" 
d="M1178 -403l-420 378q-190 0 -345 86t-244 241t-89 353q0 197 89 352.5t243.5 243.5t345.5 88q190 0 344.5 -87t244 -243.5t89.5 -353.5q0 -240 -130 -414.5t-343 -236.5l493 -407h-278zM330.5 389q64.5 -117 177.5 -182.5t250 -65.5t249.5 65.5t177 182.5t64.5 266
q0 150 -64.5 266.5t-176 182t-248.5 65.5q-139 0 -252 -65.5t-177.5 -182t-64.5 -266.5q0 -149 64.5 -266z" />
    <glyph glyph-name="R.aalt" horiz-adv-x="1257" 
d="M1012 515q39 -50 53 -130l68 -385h-185l-65 362q-16 94 -62.5 128t-142.5 34h-344v-524h-178v1313h546q201 0 319 -104.5t118 -284.5q0 -119 -63.5 -209t-174.5 -131q72 -19 111 -69zM880.5 737.5q71.5 65.5 71.5 177.5q0 111 -70.5 174.5t-201.5 63.5h-346v-481h338
q137 0 208.5 65.5z" />
    <glyph glyph-name="Racute.aalt" horiz-adv-x="1257" 
d="M500 1466l264 293l98 -96l-309 -250zM1012 515q39 -50 53 -130l68 -385h-185l-65 362q-16 94 -62.5 128t-142.5 34h-344v-524h-178v1313h546q201 0 319 -104.5t118 -284.5q0 -119 -63.5 -209t-174.5 -131q72 -19 111 -69zM880.5 737.5q71.5 65.5 71.5 177.5
q0 111 -70.5 174.5t-201.5 63.5h-346v-481h338q137 0 208.5 65.5z" />
    <glyph glyph-name="Rcaron.aalt" horiz-adv-x="1257" 
d="M369 1722l184 -188l184 188l82 -59l-186 -244h-160l-186 244zM1012 515q39 -50 53 -130l68 -385h-185l-65 362q-16 94 -62.5 128t-142.5 34h-344v-524h-178v1313h546q201 0 319 -104.5t118 -284.5q0 -119 -63.5 -209t-174.5 -131q72 -19 111 -69zM880.5 737.5
q71.5 65.5 71.5 177.5q0 111 -70.5 174.5t-201.5 63.5h-346v-481h338q137 0 208.5 65.5z" />
    <glyph glyph-name="uni0156.aalt" horiz-adv-x="1257" 
d="M725 -82q33 -37 33 -94q0 -96 -59.5 -151.5t-147.5 -53.5v45q59 6 88 36t29 73q-16 -10 -37 -11q-37 0 -62.5 26t-25.5 65q0 45 29.5 73.5t74.5 28.5t78 -37zM1012 515q39 -50 53 -130l68 -385h-185l-65 362q-16 94 -62.5 128t-142.5 34h-344v-524h-178v1313h546
q201 0 319 -104.5t118 -284.5q0 -119 -63.5 -209t-174.5 -131q72 -19 111 -69zM880.5 737.5q71.5 65.5 71.5 177.5q0 111 -70.5 174.5t-201.5 63.5h-346v-481h338q137 0 208.5 65.5z" />
    <glyph glyph-name="S.aalt" horiz-adv-x="1089" 
d="M322.5 878.5q31.5 -36.5 84 -58t150.5 -50.5l57 -18q174 -49 272.5 -137.5t98.5 -249.5q0 -186 -132 -288t-353 -102q-104 0 -208 22.5t-175 59.5v172q78 -45 180 -70.5t203 -25.5q143 0 220 55.5t77 153.5q0 76 -42 123t-101.5 71.5t-157.5 53.5l-54 16
q-158 43 -247 125t-89 232q0 176 125 276t338 100q92 0 187.5 -20.5t161.5 -52.5v-174q-70 39 -166.5 63.5t-182.5 24.5q-129 0 -203.5 -55.5t-74.5 -147.5q0 -62 31.5 -98.5z" />
    <glyph glyph-name="Sacute.aalt" horiz-adv-x="1089" 
d="M449 1477l264 292l98 -96l-309 -250zM322.5 878.5q31.5 -36.5 84 -58t150.5 -50.5l57 -18q174 -49 272.5 -137.5t98.5 -249.5q0 -186 -132 -288t-353 -102q-104 0 -208 22.5t-175 59.5v172q78 -45 180 -70.5t203 -25.5q143 0 220 55.5t77 153.5q0 76 -42 123t-101.5 71.5
t-157.5 53.5l-54 16q-158 43 -247 125t-89 232q0 176 125 276t338 100q92 0 187.5 -20.5t161.5 -52.5v-174q-70 39 -166.5 63.5t-182.5 24.5q-129 0 -203.5 -55.5t-74.5 -147.5q0 -62 31.5 -98.5z" />
    <glyph glyph-name="Scaron.aalt" horiz-adv-x="1089" 
d="M317 1733l185 -189l184 189l82 -60l-186 -243h-160l-186 243zM322.5 878.5q31.5 -36.5 84 -58t150.5 -50.5l57 -18q174 -49 272.5 -137.5t98.5 -249.5q0 -186 -132 -288t-353 -102q-104 0 -208 22.5t-175 59.5v172q78 -45 180 -70.5t203 -25.5q143 0 220 55.5t77 153.5
q0 76 -42 123t-101.5 71.5t-157.5 53.5l-54 16q-158 43 -247 125t-89 232q0 176 125 276t338 100q92 0 187.5 -20.5t161.5 -52.5v-174q-70 39 -166.5 63.5t-182.5 24.5q-129 0 -203.5 -55.5t-74.5 -147.5q0 -62 31.5 -98.5z" />
    <glyph glyph-name="Scedilla.salt" horiz-adv-x="1089" 
d="M528 -98q63 0 112.5 -39t49.5 -115q0 -86 -62.5 -131t-148.5 -45q-84 0 -139 37v102q18 -20 51 -32.5t68 -12.5q45 0 75.5 21.5t30.5 64.5q0 35 -25.5 56.5t-66.5 21.5q-29 0 -53 -8l-45 49l135 197h61v-64l-73 -104q10 2 30 2zM322.5 878.5q31.5 -36.5 84 -58
t150.5 -50.5l57 -18q174 -49 272.5 -137.5t98.5 -249.5q0 -186 -132 -288t-353 -102q-104 0 -208 22.5t-175 59.5v172q78 -45 180 -70.5t203 -25.5q143 0 220 55.5t77 153.5q0 76 -42 123t-101.5 71.5t-157.5 53.5l-54 16q-158 43 -247 125t-89 232q0 176 125 276t338 100
q92 0 187.5 -20.5t161.5 -52.5v-174q-70 39 -166.5 63.5t-182.5 24.5q-129 0 -203.5 -55.5t-74.5 -147.5q0 -62 31.5 -98.5z" />
    <glyph glyph-name="Scircumflex.aalt" horiz-adv-x="1089" 
d="M420 1720h160l184 -243l-80 -58l-184 187l-185 -187l-82 58zM322.5 878.5q31.5 -36.5 84 -58t150.5 -50.5l57 -18q174 -49 272.5 -137.5t98.5 -249.5q0 -186 -132 -288t-353 -102q-104 0 -208 22.5t-175 59.5v172q78 -45 180 -70.5t203 -25.5q143 0 220 55.5t77 153.5
q0 76 -42 123t-101.5 71.5t-157.5 53.5l-54 16q-158 43 -247 125t-89 232q0 176 125 276t338 100q92 0 187.5 -20.5t161.5 -52.5v-174q-70 39 -166.5 63.5t-182.5 24.5q-129 0 -203.5 -55.5t-74.5 -147.5q0 -62 31.5 -98.5z" />
    <glyph glyph-name="uni0218.aalt" horiz-adv-x="1089" 
d="M590 -133q33 -37 33 -94q0 -96 -59.5 -151.5t-147.5 -53.5v45q59 6 87.5 35.5t28.5 72.5q-16 -10 -36 -10q-37 0 -62.5 25.5t-25.5 64.5q0 45 29.5 74t74.5 29t78 -37zM322.5 878.5q31.5 -36.5 84 -58t150.5 -50.5l57 -18q174 -49 272.5 -137.5t98.5 -249.5
q0 -186 -132 -288t-353 -102q-104 0 -208 22.5t-175 59.5v172q78 -45 180 -70.5t203 -25.5q143 0 220 55.5t77 153.5q0 76 -42 123t-101.5 71.5t-157.5 53.5l-54 16q-158 43 -247 125t-89 232q0 176 125 276t338 100q92 0 187.5 -20.5t161.5 -52.5v-174q-70 39 -166.5 63.5
t-182.5 24.5q-129 0 -203.5 -55.5t-74.5 -147.5q0 -62 31.5 -98.5z" />
    <glyph glyph-name="Z.aalt" horiz-adv-x="1103" 
d="M997 1274l-626 -1110h612v-164h-879v43l623 1106h-610v164h880v-39z" />
    <glyph glyph-name="Zacute.aalt" horiz-adv-x="1103" 
d="M496 1452l264 293l98 -96l-309 -250zM997 1274l-626 -1110h612v-164h-879v43l623 1106h-610v164h880v-39z" />
    <glyph glyph-name="Zcaron.aalt" horiz-adv-x="1103" 
d="M365 1708l184 -188l184 188l82 -59l-186 -244h-160l-186 244zM997 1274l-626 -1110h612v-164h-879v43l623 1106h-610v164h880v-39z" />
    <glyph glyph-name="Zdotaccent.aalt" horiz-adv-x="1103" 
d="M474 1441.5q-30 28.5 -30 71.5q0 45 30 75t75 30t74.5 -29.5t29.5 -75.5q0 -43 -29.5 -71.5t-74.5 -28.5t-75 28.5zM997 1274l-626 -1110h612v-164h-879v43l623 1106h-610v164h880v-39z" />
    <glyph glyph-name="G.ss02" horiz-adv-x="1488" 
d="M1368 698v-698h-143l-23 201q-74 -109 -199.5 -166.5t-281.5 -57.5q-190 0 -335.5 83t-225.5 236t-80 351q0 205 83 360.5t234.5 242.5t347.5 87q150 0 277 -52t213 -149.5t115 -224.5h-195q-41 123 -156.5 191.5t-261.5 68.5q-139 0 -246.5 -64.5t-167 -183
t-59.5 -274.5q0 -154 58.5 -267.5t166 -176t250.5 -62.5q195 0 312.5 107.5t134.5 292.5h-477v155h659z" />
    <glyph glyph-name="K.aalt" horiz-adv-x="1212" 
d="M909 0l-225 516h-16h-334v-516h-178v1313h178v-641h307q129 0 178 60.5t49 178.5v402h181v-455q0 -106 -47.5 -184t-133.5 -117l250 -557h-209z" />
    <glyph glyph-name="M.aalt" horiz-adv-x="1734" 
d="M1450 0l-184 969l-310 -922h-178l-313 920l-184 -967h-195l272 1313h174l334 -1028l334 1028h174l275 -1313h-199z" />
    <glyph glyph-name="Y.aalt" horiz-adv-x="1288" 
d="M1155 1313v-379q0 -203 -115.5 -320.5t-304.5 -140.5v-473h-180v473q-186 23 -304 138.5t-118 322.5v379h180v-363q0 -170 95.5 -243.5t236.5 -73.5q143 0 237.5 76.5t94.5 240.5v363h178z" />
    <glyph glyph-name="Yacute.aalt" horiz-adv-x="1288" 
d="M592 1450l264 293l98 -96l-309 -250zM1155 1313v-379q0 -203 -115.5 -320.5t-304.5 -140.5v-473h-180v473q-186 23 -304 138.5t-118 322.5v379h180v-363q0 -170 95.5 -243.5t236.5 -73.5q143 0 237.5 76.5t94.5 240.5v363h178z" />
    <glyph glyph-name="Ycircumflex.aalt" horiz-adv-x="1288" 
d="M563 1694h160l184 -244l-80 -57l-184 186l-184 -186l-82 57zM1155 1313v-379q0 -203 -115.5 -320.5t-304.5 -140.5v-473h-180v473q-186 23 -304 138.5t-118 322.5v379h180v-363q0 -170 95.5 -243.5t236.5 -73.5q143 0 237.5 76.5t94.5 240.5v363h178z" />
    <glyph glyph-name="Ydieresis.aalt" horiz-adv-x="1288" 
d="M398.5 1439.5q-29.5 28.5 -29.5 71.5q0 45 29.5 75t74.5 30t75 -30t30 -75q0 -43 -30 -71.5t-75 -28.5t-74.5 28.5zM742.5 1439.5q-29.5 28.5 -29.5 71.5q0 45 29.5 75t74.5 30q43 0 73 -30t30 -75q0 -43 -30 -71.5t-73 -28.5q-45 0 -74.5 28.5zM1155 1313v-379
q0 -203 -115.5 -320.5t-304.5 -140.5v-473h-180v473q-186 23 -304 138.5t-118 322.5v379h180v-363q0 -170 95.5 -243.5t236.5 -73.5q143 0 237.5 76.5t94.5 240.5v363h178z" />
    <glyph glyph-name="Ygrave.aalt" horiz-adv-x="1288" 
d="M338 1647l96 96l266 -293l-55 -53zM1155 1313v-379q0 -203 -115.5 -320.5t-304.5 -140.5v-473h-180v473q-186 23 -304 138.5t-118 322.5v379h180v-363q0 -170 95.5 -243.5t236.5 -73.5q143 0 237.5 76.5t94.5 240.5v363h178z" />
    <glyph glyph-name="i.locl" 
d="M152.5 1052.5q-29.5 28.5 -29.5 71.5q0 45 29.5 75t74.5 30t75 -30t30 -75q0 -43 -30 -71.5t-75 -28.5t-74.5 28.5zM313 903v-903h-170v903h170z" />
    <glyph glyph-name="c.aalt" horiz-adv-x="899" 
d="M212 103q-130 128 -130 346q0 143 59.5 251.5t169 169t254.5 60.5q68 0 135.5 -13.5t120.5 -37.5v-158q-51 29 -115.5 43t-121.5 14q-154 0 -242 -89t-88 -236q0 -152 88 -239t240 -87q68 0 137 16.5t117 38.5v-153q-55 -27 -129 -40.5t-146 -13.5q-219 0 -349 128z" />
    <glyph glyph-name="cacute.aalt" horiz-adv-x="899" 
d="M461 1067l264 293l98 -96l-309 -250zM212 103q-130 128 -130 346q0 143 59.5 251.5t169 169t254.5 60.5q68 0 135.5 -13.5t120.5 -37.5v-158q-51 29 -115.5 43t-121.5 14q-154 0 -242 -89t-88 -236q0 -152 88 -239t240 -87q68 0 137 16.5t117 38.5v-153
q-55 -27 -129 -40.5t-146 -13.5q-219 0 -349 128z" />
    <glyph glyph-name="ccaron.aalt" horiz-adv-x="899" 
d="M330 1323l184 -188l184 188l82 -59l-186 -244h-160l-186 244zM212 103q-130 128 -130 346q0 143 59.5 251.5t169 169t254.5 60.5q68 0 135.5 -13.5t120.5 -37.5v-158q-51 29 -115.5 43t-121.5 14q-154 0 -242 -89t-88 -236q0 -152 88 -239t240 -87q68 0 137 16.5
t117 38.5v-153q-55 -27 -129 -40.5t-146 -13.5q-219 0 -349 128z" />
    <glyph glyph-name="ccedilla.aalt" horiz-adv-x="899" 
d="M545 -92q63 0 112.5 -39t49.5 -115q0 -86 -62.5 -131t-148.5 -45q-84 0 -140 37v102q18 -20 51 -32.5t68 -12.5q45 0 76 21.5t31 64.5q0 35 -26 56.5t-67 21.5q-29 0 -53 -8l-45 49l135 197h62v-64l-74 -104q11 2 31 2zM212 103q130 -128 349 -128q72 0 145.5 13.5
t129.5 40.5v153q-47 -23 -117 -39t-137 -16q-152 0 -240 87t-88 239q0 147 88 236t242 89q57 0 121.5 -14t115.5 -43v158q-53 25 -120.5 38t-135.5 13q-145 0 -254.5 -60.5t-169 -169t-59.5 -251.5q0 -218 130 -346z" />
    <glyph glyph-name="ccircumflex.aalt" horiz-adv-x="899" 
d="M432 1311h160l184 -244l-80 -57l-184 186l-184 -186l-82 57zM212 103q-130 128 -130 346q0 143 59.5 251.5t169 169t254.5 60.5q68 0 135.5 -13.5t120.5 -37.5v-158q-51 29 -115.5 43t-121.5 14q-154 0 -242 -89t-88 -236q0 -152 88 -239t240 -87q68 0 137 16.5t117 38.5
v-153q-55 -27 -129 -40.5t-146 -13.5q-219 0 -349 128z" />
    <glyph glyph-name="cdotaccent.aalt" horiz-adv-x="899" 
d="M439.5 1056.5q-29.5 28.5 -29.5 71.5q0 45 29.5 75t74.5 30t74.5 -29.5t29.5 -75.5q0 -43 -29.5 -71.5t-74.5 -28.5t-74.5 28.5zM212 103q-130 128 -130 346q0 143 59.5 251.5t169 169t254.5 60.5q68 0 135.5 -13.5t120.5 -37.5v-158q-51 29 -115.5 43t-121.5 14
q-154 0 -242 -89t-88 -236q0 -152 88 -239t240 -87q68 0 137 16.5t117 38.5v-153q-55 -27 -129 -40.5t-146 -13.5q-219 0 -349 128z" />
    <glyph glyph-name="e.aalt" horiz-adv-x="1021" 
d="M934 399h-682q6 -129 90 -201.5t242 -72.5q154 0 305 65v-153q-133 -61 -324 -62q-231 0 -358 131.5t-127 344.5q0 143 56.5 251.5t156.5 168t227 59.5q190 0 306 -117t116 -313q0 -76 -8 -101zM705.5 717.5q-70.5 68.5 -185.5 68.5t-189.5 -70.5t-78.5 -191.5h522
q2 125 -68.5 193.5z" />
    <glyph glyph-name="eacute.aalt" horiz-adv-x="1021" 
d="M469 1067l264 293l98 -96l-309 -250zM934 399h-682q6 -129 90 -201.5t242 -72.5q154 0 305 65v-153q-133 -61 -324 -62q-231 0 -358 131.5t-127 344.5q0 143 56.5 251.5t156.5 168t227 59.5q190 0 306 -117t116 -313q0 -76 -8 -101zM705.5 717.5q-70.5 68.5 -185.5 68.5
t-189.5 -70.5t-78.5 -191.5h522q2 125 -68.5 193.5z" />
    <glyph glyph-name="ebreve.aalt" horiz-adv-x="1021" 
d="M715 1081.5q-78 -67.5 -191 -67.5q-117 0 -194.5 68.5t-87.5 181.5h129q6 -59 48 -93t105 -34t103.5 34.5t46.5 92.5h129q-10 -115 -88 -182.5zM934 399h-682q6 -129 90 -201.5t242 -72.5q154 0 305 65v-153q-133 -61 -324 -62q-231 0 -358 131.5t-127 344.5
q0 143 56.5 251.5t156.5 168t227 59.5q190 0 306 -117t116 -313q0 -76 -8 -101zM705.5 717.5q-70.5 68.5 -185.5 68.5t-189.5 -70.5t-78.5 -191.5h522q2 125 -68.5 193.5z" />
    <glyph glyph-name="ecaron.aalt" horiz-adv-x="1021" 
d="M338 1323l184 -188l185 188l81 -59l-186 -244h-160l-186 244zM934 399h-682q6 -129 90 -201.5t242 -72.5q154 0 305 65v-153q-133 -61 -324 -62q-231 0 -358 131.5t-127 344.5q0 143 56.5 251.5t156.5 168t227 59.5q190 0 306 -117t116 -313q0 -76 -8 -101zM705.5 717.5
q-70.5 68.5 -185.5 68.5t-189.5 -70.5t-78.5 -191.5h522q2 125 -68.5 193.5z" />
    <glyph glyph-name="ecircumflex.aalt" horiz-adv-x="1021" 
d="M440 1311h160l184 -244l-79 -57l-185 186l-184 -186l-82 57zM934 399h-682q6 -129 90 -201.5t242 -72.5q154 0 305 65v-153q-133 -61 -324 -62q-231 0 -358 131.5t-127 344.5q0 143 56.5 251.5t156.5 168t227 59.5q190 0 306 -117t116 -313q0 -76 -8 -101zM705.5 717.5
q-70.5 68.5 -185.5 68.5t-189.5 -70.5t-78.5 -191.5h522q2 125 -68.5 193.5z" />
    <glyph glyph-name="edieresis.aalt" horiz-adv-x="1021" 
d="M275.5 1056.5q-29.5 28.5 -29.5 71.5q0 45 29.5 75t74.5 30t75 -29.5t30 -75.5q0 -43 -30 -71.5t-75 -28.5t-74.5 28.5zM619.5 1056.5q-29.5 28.5 -29.5 71.5q0 45 29.5 75t74.5 30q43 0 73 -29.5t30 -75.5q0 -43 -30 -71.5t-73 -28.5q-45 0 -74.5 28.5zM934 399h-682
q6 -129 90 -201.5t242 -72.5q154 0 305 65v-153q-133 -61 -324 -62q-231 0 -358 131.5t-127 344.5q0 143 56.5 251.5t156.5 168t227 59.5q190 0 306 -117t116 -313q0 -76 -8 -101zM705.5 717.5q-70.5 68.5 -185.5 68.5t-189.5 -70.5t-78.5 -191.5h522q2 125 -68.5 193.5z
" />
    <glyph glyph-name="edotaccent.aalt" horiz-adv-x="1021" 
d="M447.5 1056.5q-29.5 28.5 -29.5 71.5q0 45 29.5 75t74.5 30t75 -29.5t30 -75.5q0 -43 -30 -71.5t-75 -28.5t-74.5 28.5zM934 399h-682q6 -129 90 -201.5t242 -72.5q154 0 305 65v-153q-133 -61 -324 -62q-231 0 -358 131.5t-127 344.5q0 143 56.5 251.5t156.5 168
t227 59.5q190 0 306 -117t116 -313q0 -76 -8 -101zM705.5 717.5q-70.5 68.5 -185.5 68.5t-189.5 -70.5t-78.5 -191.5h522q2 125 -68.5 193.5z" />
    <glyph glyph-name="egrave.aalt" horiz-adv-x="1021" 
d="M215 1264l96 96l267 -293l-56 -53zM934 399h-682q6 -129 90 -201.5t242 -72.5q154 0 305 65v-153q-133 -61 -324 -62q-231 0 -358 131.5t-127 344.5q0 143 56.5 251.5t156.5 168t227 59.5q190 0 306 -117t116 -313q0 -76 -8 -101zM705.5 717.5q-70.5 68.5 -185.5 68.5
t-189.5 -70.5t-78.5 -191.5h522q2 125 -68.5 193.5z" />
    <glyph glyph-name="emacron.aalt" horiz-adv-x="1021" 
d="M770 1161v-127h-496v127h496zM934 399h-682q6 -129 90 -201.5t242 -72.5q154 0 305 65v-153q-133 -61 -324 -62q-231 0 -358 131.5t-127 344.5q0 143 56.5 251.5t156.5 168t227 59.5q190 0 306 -117t116 -313q0 -76 -8 -101zM705.5 717.5q-70.5 68.5 -185.5 68.5
t-189.5 -70.5t-78.5 -191.5h522q2 125 -68.5 193.5z" />
    <glyph glyph-name="eogonek.aalt" horiz-adv-x="1021" 
d="M889 37q-57 -27 -85 -65t-28 -74q0 -31 19.5 -49.5t50.5 -18.5q23 0 53 12v-100q-55 -18 -98 -18q-72 0 -113 38.5t-41 94.5q0 49 34 98t99 82h109zM934 399h-682q6 -129 90 -201.5t242 -72.5q154 0 305 65v-153q-133 -61 -324 -62q-231 0 -358 131.5t-127 344.5
q0 143 56.5 251.5t156.5 168t227 59.5q190 0 306 -117t116 -313q0 -76 -8 -101zM705.5 717.5q-70.5 68.5 -185.5 68.5t-189.5 -70.5t-78.5 -191.5h522q2 125 -68.5 193.5z" />
    <glyph glyph-name="g.salt" horiz-adv-x="1124" 
d="M307 -400.5q-90 19.5 -149 54.5v156q141 -80 319 -80q176 0 260 80.5t84 224.5v158q-45 -80 -134 -124t-195 -44q-127 0 -224.5 58t-149.5 160.5t-52 229.5q0 129 53 233.5t151.5 164t227.5 59.5q113 0 197.5 -46t129.5 -128l13 147h153v-868q0 -217 -133 -336t-364 -119
q-97 0 -187 19.5zM730 261q81 87 81 216t-80 216t-211 87q-129 0 -204.5 -87t-75.5 -218t76.5 -216t203.5 -85q129 0 210 87z" />
    <glyph glyph-name="gbreve.salt" horiz-adv-x="1124" 
d="M717 1081.5q-78 -67.5 -191 -67.5q-117 0 -194.5 68.5t-87.5 181.5h129q6 -59 48 -93t105 -34t103.5 34.5t46.5 92.5h129q-10 -115 -88 -182.5zM307 -400.5q-90 19.5 -149 54.5v156q141 -80 319 -80q176 0 260 80.5t84 224.5v158q-45 -80 -134 -124t-195 -44
q-127 0 -224.5 58t-149.5 160.5t-52 229.5q0 129 53 233.5t151.5 164t227.5 59.5q113 0 197.5 -46t129.5 -128l13 147h153v-868q0 -217 -133 -336t-364 -119q-97 0 -187 19.5zM730 261q81 87 81 216t-80 216t-211 87q-129 0 -204.5 -87t-75.5 -218t76.5 -216t203.5 -85
q129 0 210 87z" />
    <glyph glyph-name="gcircumflex.salt" horiz-adv-x="1124" 
d="M442 1311h160l184 -244l-79 -57l-185 186l-184 -186l-82 57zM307 -400.5q-90 19.5 -149 54.5v156q141 -80 319 -80q176 0 260 80.5t84 224.5v158q-45 -80 -134 -124t-195 -44q-127 0 -224.5 58t-149.5 160.5t-52 229.5q0 129 53 233.5t151.5 164t227.5 59.5
q113 0 197.5 -46t129.5 -128l13 147h153v-868q0 -217 -133 -336t-364 -119q-97 0 -187 19.5zM730 261q81 87 81 216t-80 216t-211 87q-129 0 -204.5 -87t-75.5 -218t76.5 -216t203.5 -85q129 0 210 87z" />
    <glyph glyph-name="uni0123.salt" horiz-adv-x="1124" 
d="M604.5 1170.5q24.5 -25.5 24.5 -64.5q0 -45 -30 -73.5t-75 -28.5q-49 0 -80.5 35.5t-31.5 95.5q0 94 59 150t150 52v-45q-59 -6 -88 -34.5t-31 -71.5q14 10 41 10q37 0 61.5 -25.5zM307 -400.5q-90 19.5 -149 54.5v156q141 -80 319 -80q176 0 260 80.5t84 224.5v158
q-45 -80 -134 -124t-195 -44q-127 0 -224.5 58t-149.5 160.5t-52 229.5q0 129 53 233.5t151.5 164t227.5 59.5q113 0 197.5 -46t129.5 -128l13 147h153v-868q0 -217 -133 -336t-364 -119q-97 0 -187 19.5zM730 261q81 87 81 216t-80 216t-211 87q-129 0 -204.5 -87
t-75.5 -218t76.5 -216t203.5 -85q129 0 210 87z" />
    <glyph glyph-name="gdotaccent.salt" horiz-adv-x="1124" 
d="M449.5 1056.5q-29.5 28.5 -29.5 71.5q0 45 29.5 75t74.5 30t75 -29.5t30 -75.5q0 -43 -30 -71.5t-75 -28.5t-74.5 28.5zM307 -400.5q-90 19.5 -149 54.5v156q141 -80 319 -80q176 0 260 80.5t84 224.5v158q-45 -80 -134 -124t-195 -44q-127 0 -224.5 58t-149.5 160.5
t-52 229.5q0 129 53 233.5t151.5 164t227.5 59.5q113 0 197.5 -46t129.5 -128l13 147h153v-868q0 -217 -133 -336t-364 -119q-97 0 -187 19.5zM730 261q81 87 81 216t-80 216t-211 87q-129 0 -204.5 -87t-75.5 -218t76.5 -216t203.5 -85q129 0 210 87z" />
    <glyph glyph-name="s.aalt" horiz-adv-x="874" 
d="M187.5 854q97.5 76 263.5 76q76 0 147.5 -15.5t126.5 -42.5v-151q-63 31 -134 47t-138 16q-190 0 -191 -122q0 -43 21.5 -67t47 -32t77.5 -20l124 -27q129 -29 190.5 -98.5t61.5 -167.5q0 -127 -100 -201t-272 -74q-84 0 -162 18.5t-137 47.5v154q74 -39 154.5 -58.5
t156.5 -19.5q92 0 139 32.5t47 90.5q0 63 -43 89.5t-104 39.5l-113 24q-102 20 -181 73.5t-79 180.5q0 131 97.5 207z" />
    <glyph glyph-name="sacute.aalt" horiz-adv-x="874" 
d="M395 1071l264 293l99 -96l-309 -250zM187.5 854q97.5 76 263.5 76q76 0 147.5 -15.5t126.5 -42.5v-151q-63 31 -134 47t-138 16q-190 0 -191 -122q0 -43 21.5 -67t47 -32t77.5 -20l124 -27q129 -29 190.5 -98.5t61.5 -167.5q0 -127 -100 -201t-272 -74q-84 0 -162 18.5
t-137 47.5v154q74 -39 154.5 -58.5t156.5 -19.5q92 0 139 32.5t47 90.5q0 63 -43 89.5t-104 39.5l-113 24q-102 20 -181 73.5t-79 180.5q0 131 97.5 207z" />
    <glyph glyph-name="scaron.aalt" horiz-adv-x="874" 
d="M264 1327l185 -188l184 188l82 -59l-187 -244h-159l-187 244zM187.5 854q97.5 76 263.5 76q76 0 147.5 -15.5t126.5 -42.5v-151q-63 31 -134 47t-138 16q-190 0 -191 -122q0 -43 21.5 -67t47 -32t77.5 -20l124 -27q129 -29 190.5 -98.5t61.5 -167.5q0 -127 -100 -201
t-272 -74q-84 0 -162 18.5t-137 47.5v154q74 -39 154.5 -58.5t156.5 -19.5q92 0 139 32.5t47 90.5q0 63 -43 89.5t-104 39.5l-113 24q-102 20 -181 73.5t-79 180.5q0 131 97.5 207z" />
    <glyph glyph-name="scedilla.salt" horiz-adv-x="874" 
d="M453 -92q63 0 112 -39t49 -115q0 -86 -62.5 -131t-148.5 -45q-84 0 -139 37v102q18 -20 51 -32.5t68 -12.5q45 0 75.5 21.5t30.5 64.5q0 35 -25.5 56.5t-66.5 21.5q-29 0 -53 -8l-45 49l135 197h62v-64l-74 -104q11 2 31 2zM187.5 854q97.5 76 263.5 76q76 0 147.5 -15.5
t126.5 -42.5v-151q-63 31 -134 47t-138 16q-190 0 -191 -122q0 -43 21.5 -67t47 -32t77.5 -20l124 -27q129 -29 190.5 -98.5t61.5 -167.5q0 -127 -100 -201t-272 -74q-84 0 -162 18.5t-137 47.5v154q74 -39 154.5 -58.5t156.5 -19.5q92 0 139 32.5t47 90.5q0 63 -43 89.5
t-104 39.5l-113 24q-102 20 -181 73.5t-79 180.5q0 131 97.5 207z" />
    <glyph glyph-name="scircumflex.aalt" horiz-adv-x="874" 
d="M367 1315h159l185 -244l-80 -57l-185 186l-184 -186l-82 57zM187.5 854q97.5 76 263.5 76q76 0 147.5 -15.5t126.5 -42.5v-151q-63 31 -134 47t-138 16q-190 0 -191 -122q0 -43 21.5 -67t47 -32t77.5 -20l124 -27q129 -29 190.5 -98.5t61.5 -167.5q0 -127 -100 -201
t-272 -74q-84 0 -162 18.5t-137 47.5v154q74 -39 154.5 -58.5t156.5 -19.5q92 0 139 32.5t47 90.5q0 63 -43 89.5t-104 39.5l-113 24q-102 20 -181 73.5t-79 180.5q0 131 97.5 207z" />
    <glyph glyph-name="uni0219.aalt" horiz-adv-x="872" 
d="M526.5 -127q32.5 -37 32.5 -94q0 -96 -59.5 -151.5t-147.5 -53.5v45q59 6 88 36t29 73q-16 -10 -37 -11q-37 0 -62.5 26t-25.5 64q0 45 29.5 74t75.5 29q45 0 77.5 -37zM187.5 854q97.5 76 263.5 76q76 0 147.5 -15.5t126.5 -42.5v-151q-63 31 -134 47t-138 16
q-190 0 -191 -122q0 -43 21.5 -67t47 -32t77.5 -20l124 -27q129 -29 190.5 -98.5t61.5 -167.5q0 -127 -100 -201t-272 -74q-84 0 -162 18.5t-137 47.5v154q74 -39 154.5 -58.5t156.5 -19.5q92 0 139 32.5t47 90.5q0 63 -43 89.5t-104 39.5l-113 24q-102 20 -181 73.5
t-79 180.5q0 131 97.5 207z" />
    <glyph glyph-name="t.aalt" horiz-adv-x="632" 
d="M47 801l285 334h20v-232h223v-141h-223v-465q0 -82 34 -121t120 -39q23 0 43 3t26 3v-143q-55 -10 -112 -10q-127 0 -188.5 51t-76 114.5t-14.5 139.5v467h-137v39z" />
    <glyph glyph-name="tbar.aalt" horiz-adv-x="622" 
d="M47 801l285 334h20v-232h223v-141h-223v-465q0 -82 34 -121t120 -39q23 0 43 3t26 3v-143q-55 -10 -112 -10q-127 0 -188.5 51t-76 114.5t-14.5 139.5v467h-137v39zM578 420h-523v127h523v-127z" />
    <glyph glyph-name="tcaron.aalt" horiz-adv-x="641" 
d="M553 999h-92v365h131zM47 801l285 334h20v-232h223v-141h-223v-465q0 -82 34 -121t120 -39q23 0 43 3t26 3v-143q-55 -10 -112 -10q-127 0 -188.5 51t-76 114.5t-14.5 139.5v467h-137v39z" />
    <glyph glyph-name="uni0163.salt" horiz-adv-x="632" 
d="M428 -80q63 0 112.5 -39t49.5 -114q0 -86 -62.5 -131.5t-148.5 -45.5q-84 0 -139 37v103q18 -20 51 -32.5t67 -12.5q45 0 76 21.5t31 64.5q0 35 -25.5 56t-66.5 21q-29 0 -54 -8l-45 49l136 197h61v-63l-74 -105q11 2 31 2zM47 801v-39h137v-467q0 -76 14.5 -139.5
t76 -114.5t188.5 -51q57 0 112 10v143q-6 0 -26.5 -3t-42.5 -3q-86 0 -120 39t-34 121v465h223v141h-223v232h-20z" />
    <glyph glyph-name="uni021B.aalt" horiz-adv-x="632" 
d="M489.5 -115q32.5 -37 32.5 -94q0 -96 -59.5 -151.5t-147.5 -53.5v45q59 6 88 36t29 73q-16 -10 -37 -10q-37 0 -62.5 25.5t-25.5 64.5q0 45 30 73.5t75 28.5t77.5 -37zM47 801l285 334h20v-232h223v-141h-223v-465q0 -82 34 -121t120 -39q23 0 43 3t26 3v-143
q-55 -10 -112 -10q-127 0 -188.5 51t-76 114.5t-14.5 139.5v467h-137v39z" />
    <glyph glyph-name="y.salt" horiz-adv-x="997" 
d="M217 903l299 -624l270 624h185l-578 -1306h-178l213 487l-401 819h190z" />
    <glyph glyph-name="yacute.aalt" horiz-adv-x="997" 
d="M438 1040l264 293l99 -96l-309 -250zM217 903l299 -624l270 624h185l-578 -1306h-178l213 487l-401 819h190z" />
    <glyph glyph-name="ycircumflex.aalt" horiz-adv-x="997" 
d="M410 1284h159l185 -244l-80 -57l-185 186l-184 -186l-82 57zM217 903l299 -624l270 624h185l-578 -1306h-178l213 487l-401 819h190z" />
    <glyph glyph-name="ydieresis.aalt" horiz-adv-x="997" 
d="M244.5 1030q-29.5 29 -29.5 72q0 45 29.5 74.5t74.5 29.5t75 -29.5t30 -74.5q0 -43 -29.5 -72t-75.5 -29q-45 0 -74.5 29zM588.5 1030q-29.5 29 -29.5 72q0 45 29.5 74.5t75.5 29.5q43 0 72.5 -29.5t29.5 -74.5q0 -43 -29.5 -72t-72.5 -29q-46 0 -75.5 29zM217 903
l299 -624l270 624h185l-578 -1306h-178l213 487l-401 819h190z" />
    <glyph glyph-name="ygrave.aalt" horiz-adv-x="997" 
d="M184 1237l97 96l266 -293l-55 -53zM217 903l299 -624l270 624h185l-578 -1306h-178l213 487l-401 819h190z" />
    <glyph glyph-name="z.aalt" horiz-adv-x="827" 
d="M750 868l-416 -716h414v-152h-672v31l422 723h-404v149h656v-35z" />
    <glyph glyph-name="zacute.aalt" horiz-adv-x="827" 
d="M369 1040l264 293l98 -96l-309 -250zM750 868l-416 -716h414v-152h-672v31l422 723h-404v149h656v-35z" />
    <glyph glyph-name="zcaron.aalt" horiz-adv-x="827" 
d="M238 1296l184 -188l184 188l82 -59l-186 -244h-160l-186 244zM750 868l-416 -716h414v-152h-672v31l422 723h-404v149h656v-35z" />
    <glyph glyph-name="zdotaccent.aalt" horiz-adv-x="827" 
d="M347 1030q-30 29 -30 72q0 45 30 74.5t75 29.5t74.5 -29.5t29.5 -74.5q0 -43 -29.5 -72t-74.5 -29t-75 29zM750 868l-416 -716h414v-152h-672v31l422 723h-404v149h656v-35z" />
    <glyph glyph-name="a.aalt" horiz-adv-x="966" 
d="M759.5 841q102.5 -89 102.5 -259v-582h-145l-19 131q-43 -74 -123.5 -115t-187.5 -41q-141 0 -223 73t-82 194q0 125 88 201.5t246 88.5l280 25v27q0 111 -59 161t-158 50q-100 0 -160.5 -46.5t-58.5 -130.5h-151q0 141 105 226.5t273 85.5q170 0 272.5 -89zM625.5 184
q70.5 80 70.5 211v43l-243 -18q-98 -8 -148.5 -52t-50.5 -114q0 -74 49 -112t131 -38q121 0 191.5 80z" />
    <glyph glyph-name="aacute.aalt" horiz-adv-x="966" 
d="M434 1067l264 293l99 -96l-310 -250zM759.5 841q102.5 -89 102.5 -259v-582h-145l-19 131q-43 -74 -123.5 -115t-187.5 -41q-141 0 -223 73t-82 194q0 125 88 201.5t246 88.5l280 25v27q0 111 -59 161t-158 50q-100 0 -160.5 -46.5t-58.5 -130.5h-151q0 141 105 226.5
t273 85.5q170 0 272.5 -89zM625.5 184q70.5 80 70.5 211v43l-243 -18q-98 -8 -148.5 -52t-50.5 -114q0 -74 49 -112t131 -38q121 0 191.5 80z" />
    <glyph glyph-name="abreve.aalt" horiz-adv-x="966" 
d="M680 1081.5q-78 -67.5 -191 -67.5q-117 0 -194.5 68.5t-87.5 181.5h129q6 -59 48 -93t105 -34t103.5 34.5t46.5 92.5h129q-10 -115 -88 -182.5zM759.5 841q102.5 -89 102.5 -259v-582h-145l-19 131q-43 -74 -123.5 -115t-187.5 -41q-141 0 -223 73t-82 194
q0 125 88 201.5t246 88.5l280 25v27q0 111 -59 161t-158 50q-100 0 -160.5 -46.5t-58.5 -130.5h-151q0 141 105 226.5t273 85.5q170 0 272.5 -89zM625.5 184q70.5 80 70.5 211v43l-243 -18q-98 -8 -148.5 -52t-50.5 -114q0 -74 49 -112t131 -38q121 0 191.5 80z" />
    <glyph glyph-name="acircumflex.aalt" horiz-adv-x="966" 
d="M406 1311h159l185 -244l-80 -57l-185 186l-184 -186l-82 57zM759.5 841q102.5 -89 102.5 -259v-582h-145l-19 131q-43 -74 -123.5 -115t-187.5 -41q-141 0 -223 73t-82 194q0 125 88 201.5t246 88.5l280 25v27q0 111 -59 161t-158 50q-100 0 -160.5 -46.5t-58.5 -130.5
h-151q0 141 105 226.5t273 85.5q170 0 272.5 -89zM625.5 184q70.5 80 70.5 211v43l-243 -18q-98 -8 -148.5 -52t-50.5 -114q0 -74 49 -112t131 -38q121 0 191.5 80z" />
    <glyph glyph-name="adieresis.aalt" horiz-adv-x="966" 
d="M240.5 1056.5q-29.5 28.5 -29.5 71.5q0 45 29.5 75t74.5 30t75 -29.5t30 -75.5q0 -43 -30 -71.5t-75 -28.5t-74.5 28.5zM584.5 1056.5q-29.5 28.5 -29.5 71.5q0 45 29.5 75t74.5 30q43 0 73 -29.5t30 -75.5q0 -43 -30 -71.5t-73 -28.5q-45 0 -74.5 28.5zM759.5 841
q102.5 -89 102.5 -259v-582h-145l-19 131q-43 -74 -123.5 -115t-187.5 -41q-141 0 -223 73t-82 194q0 125 88 201.5t246 88.5l280 25v27q0 111 -59 161t-158 50q-100 0 -160.5 -46.5t-58.5 -130.5h-151q0 141 105 226.5t273 85.5q170 0 272.5 -89zM625.5 184
q70.5 80 70.5 211v43l-243 -18q-98 -8 -148.5 -52t-50.5 -114q0 -74 49 -112t131 -38q121 0 191.5 80z" />
    <glyph glyph-name="agrave.aalt" horiz-adv-x="966" 
d="M180 1264l96 96l267 -293l-56 -53zM759.5 841q102.5 -89 102.5 -259v-582h-145l-19 131q-43 -74 -123.5 -115t-187.5 -41q-141 0 -223 73t-82 194q0 125 88 201.5t246 88.5l280 25v27q0 111 -59 161t-158 50q-100 0 -160.5 -46.5t-58.5 -130.5h-151q0 141 105 226.5
t273 85.5q170 0 272.5 -89zM625.5 184q70.5 80 70.5 211v43l-243 -18q-98 -8 -148.5 -52t-50.5 -114q0 -74 49 -112t131 -38q121 0 191.5 80z" />
    <glyph glyph-name="amacron.aalt" horiz-adv-x="966" 
d="M735 1161v-127h-495v127h495zM759.5 841q102.5 -89 102.5 -259v-582h-145l-19 131q-43 -74 -123.5 -115t-187.5 -41q-141 0 -223 73t-82 194q0 125 88 201.5t246 88.5l280 25v27q0 111 -59 161t-158 50q-100 0 -160.5 -46.5t-58.5 -130.5h-151q0 141 105 226.5t273 85.5
q170 0 272.5 -89zM625.5 184q70.5 80 70.5 211v43l-243 -18q-98 -8 -148.5 -52t-50.5 -114q0 -74 49 -112t131 -38q121 0 191.5 80z" />
    <glyph glyph-name="aogonek.aalt" horiz-adv-x="966" 
d="M860 0q-57 -27 -84.5 -64.5t-27.5 -74.5q0 -31 19 -49.5t50 -18.5q23 0 53 12v-100q-55 -18 -98 -18q-72 0 -113 38.5t-41 94.5q0 49 34 98t100 82h108zM759.5 841q102.5 -89 102.5 -259v-582h-145l-19 131q-43 -74 -123.5 -115t-187.5 -41q-141 0 -223 73t-82 194
q0 125 88 201.5t246 88.5l280 25v27q0 111 -59 161t-158 50q-100 0 -160.5 -46.5t-58.5 -130.5h-151q0 141 105 226.5t273 85.5q170 0 272.5 -89zM625.5 184q70.5 80 70.5 211v43l-243 -18q-98 -8 -148.5 -52t-50.5 -114q0 -74 49 -112t131 -38q121 0 191.5 80z" />
    <glyph glyph-name="aring.aalt" horiz-adv-x="966" 
d="M327.5 1039.5q-61.5 60.5 -61.5 148.5t61.5 149.5t159.5 61.5t159 -61.5t61 -149.5q0 -86 -61.5 -147.5t-158.5 -61.5q-98 0 -159.5 60.5zM556 1118.5q30 28.5 30 73.5q0 43 -30 71.5t-69 28.5t-68.5 -28.5t-29.5 -71.5q0 -45 28.5 -73.5t69.5 -28.5q39 0 69 28.5z
M759.5 841q102.5 -89 102.5 -259v-582h-145l-19 131q-43 -74 -123.5 -115t-187.5 -41q-141 0 -223 73t-82 194q0 125 88 201.5t246 88.5l280 25v27q0 111 -59 161t-158 50q-100 0 -160.5 -46.5t-58.5 -130.5h-151q0 141 105 226.5t273 85.5q170 0 272.5 -89zM625.5 184
q70.5 80 70.5 211v43l-243 -18q-98 -8 -148.5 -52t-50.5 -114q0 -74 49 -112t131 -38q121 0 191.5 80z" />
    <glyph glyph-name="aringacute.aalt" horiz-adv-x="974" 
d="M386 1218l348 185l60 -125l-376 -129zM327.5 900.5q61.5 -60.5 159.5 -60.5q96 0 158 61.5t62 147.5q0 88 -60.5 149.5t-159.5 61.5q-98 0 -159.5 -61.5t-61.5 -149.5t61.5 -148.5zM556 979q-30 -29 -69 -29q-41 0 -69.5 29t-28.5 74q0 43 30 71.5t68 28.5q39 0 69 -28.5
t30 -71.5q0 -45 -30 -74zM759.5 841q102.5 -89 102.5 -259v-582h-145l-19 131q-43 -74 -123.5 -115t-187.5 -41q-141 0 -223 73t-82 194q0 125 88 201.5t246 88.5l280 25v27q0 111 -59 161t-158 50q-100 0 -160.5 -46.5t-58.5 -130.5h-151q0 141 105 226.5t273 85.5
q170 0 272.5 -89zM625.5 184q70.5 80 70.5 211v43l-243 -18q-98 -8 -148.5 -52t-50.5 -114q0 -74 49 -112t131 -38q121 0 191.5 80z" />
    <glyph glyph-name="atilde.aalt" horiz-adv-x="966" 
d="M231 1085q0 74 38 115t100 41q35 0 63.5 -12t65.5 -35q33 -20 51 -28.5t39 -8.5q33 0 46 22.5t11 63.5h88q6 -27 6 -51q0 -72 -40 -113t-103 -41q-35 0 -63.5 12.5t-71.5 36.5q-20 12 -42 22.5t-40 10.5q-31 0 -44 -25.5t-9 -64.5h-88q-7 30 -7 55zM759.5 841
q102.5 -89 102.5 -259v-582h-145l-19 131q-43 -74 -123.5 -115t-187.5 -41q-141 0 -223 73t-82 194q0 125 88 201.5t246 88.5l280 25v27q0 111 -59 161t-158 50q-100 0 -160.5 -46.5t-58.5 -130.5h-151q0 141 105 226.5t273 85.5q170 0 272.5 -89zM625.5 184
q70.5 80 70.5 211v43l-243 -18q-98 -8 -148.5 -52t-50.5 -114q0 -74 49 -112t131 -38q121 0 191.5 80z" />
    <glyph glyph-name="g.ss02" horiz-adv-x="931" 
d="M903 807h-174q78 -90 78 -219q0 -80 -33 -148.5t-96 -115.5l2 -2l-242 -187q55 10 101 10q156 0 242.5 -74.5t86.5 -195.5q0 -90 -53 -159.5t-148.5 -107.5t-215.5 -38q-188 0 -301 84t-113 217h158q4 -74 71.5 -119t177.5 -45q113 0 181.5 46t68.5 122q0 74 -56 112
t-165 38q-74 0 -138.5 -14.5t-103.5 -37.5l-61 97l238 178q-111 4 -191 52t-121 124t-41 164q0 92 44 171t129 125t202 46q96 0 170 -31l303 51v-143zM279.5 444.5q56.5 -59.5 150.5 -59.5t151.5 59.5t57.5 143.5q0 86 -56.5 144.5t-152.5 58.5q-94 0 -150.5 -58.5
t-56.5 -144.5q0 -84 56.5 -143.5z" />
    <glyph glyph-name="gbreve.ss02" horiz-adv-x="931" 
d="M622.5 1081.5q-77.5 -67.5 -190.5 -67.5q-117 0 -194.5 68.5t-87.5 181.5h129q6 -59 48 -93t105 -34t103 34.5t47 92.5h129q-11 -115 -88.5 -182.5zM903 807h-174q78 -90 78 -219q0 -80 -33 -148.5t-96 -115.5l2 -2l-242 -187q55 10 101 10q156 0 242.5 -74.5
t86.5 -195.5q0 -90 -53 -159.5t-148.5 -107.5t-215.5 -38q-188 0 -301 84t-113 217h158q4 -74 71.5 -119t177.5 -45q113 0 181.5 46t68.5 122q0 74 -56 112t-165 38q-74 0 -138.5 -14.5t-103.5 -37.5l-61 97l238 178q-111 4 -191 52t-121 124t-41 164q0 92 44 171t129 125
t202 46q96 0 170 -31l303 51v-143zM279.5 444.5q56.5 -59.5 150.5 -59.5t151.5 59.5t57.5 143.5q0 86 -56.5 144.5t-152.5 58.5q-94 0 -150.5 -58.5t-56.5 -144.5q0 -84 56.5 -143.5z" />
    <glyph glyph-name="gcircumflex.ss02" horiz-adv-x="931" 
d="M348 1311h160l184 -244l-80 -57l-184 186l-184 -186l-82 57zM903 807h-174q78 -90 78 -219q0 -80 -33 -148.5t-96 -115.5l2 -2l-242 -187q55 10 101 10q156 0 242.5 -74.5t86.5 -195.5q0 -90 -53 -159.5t-148.5 -107.5t-215.5 -38q-188 0 -301 84t-113 217h158
q4 -74 71.5 -119t177.5 -45q113 0 181.5 46t68.5 122q0 74 -56 112t-165 38q-74 0 -138.5 -14.5t-103.5 -37.5l-61 97l238 178q-111 4 -191 52t-121 124t-41 164q0 92 44 171t129 125t202 46q96 0 170 -31l303 51v-143zM279.5 444.5q56.5 -59.5 150.5 -59.5t151.5 59.5
t57.5 143.5q0 86 -56.5 144.5t-152.5 58.5q-94 0 -150.5 -58.5t-56.5 -144.5q0 -84 56.5 -143.5z" />
    <glyph glyph-name="uni0123.ss02" horiz-adv-x="931" 
d="M510 1170.5q25 -25.5 25 -64.5q0 -45 -30 -73.5t-75 -28.5q-49 0 -81 35.5t-32 95.5q0 94 59.5 150t149.5 52v-45q-59 -6 -87.5 -34.5t-30.5 -71.5q14 10 41 10q36 0 61 -25.5zM903 807h-174q78 -90 78 -219q0 -80 -33 -148.5t-96 -115.5l2 -2l-242 -187q55 10 101 10
q156 0 242.5 -74.5t86.5 -195.5q0 -90 -53 -159.5t-148.5 -107.5t-215.5 -38q-188 0 -301 84t-113 217h158q4 -74 71.5 -119t177.5 -45q113 0 181.5 46t68.5 122q0 74 -56 112t-165 38q-74 0 -138.5 -14.5t-103.5 -37.5l-61 97l238 178q-111 4 -191 52t-121 124t-41 164
q0 92 44 171t129 125t202 46q96 0 170 -31l303 51v-143zM279.5 444.5q56.5 -59.5 150.5 -59.5t151.5 59.5t57.5 143.5q0 86 -56.5 144.5t-152.5 58.5q-94 0 -150.5 -58.5t-56.5 -144.5q0 -84 56.5 -143.5z" />
    <glyph glyph-name="gdotaccent.ss02" horiz-adv-x="931" 
d="M355.5 1056.5q-29.5 28.5 -29.5 71.5q0 45 29.5 75t74.5 30t75 -29.5t30 -75.5q0 -43 -30 -71.5t-75 -28.5t-74.5 28.5zM903 807h-174q78 -90 78 -219q0 -80 -33 -148.5t-96 -115.5l2 -2l-242 -187q55 10 101 10q156 0 242.5 -74.5t86.5 -195.5q0 -90 -53 -159.5
t-148.5 -107.5t-215.5 -38q-188 0 -301 84t-113 217h158q4 -74 71.5 -119t177.5 -45q113 0 181.5 46t68.5 122q0 74 -56 112t-165 38q-74 0 -138.5 -14.5t-103.5 -37.5l-61 97l238 178q-111 4 -191 52t-121 124t-41 164q0 92 44 171t129 125t202 46q96 0 170 -31l303 51
v-143zM279.5 444.5q56.5 -59.5 150.5 -59.5t151.5 59.5t57.5 143.5q0 86 -56.5 144.5t-152.5 58.5q-94 0 -150.5 -58.5t-56.5 -144.5q0 -84 56.5 -143.5z" />
    <glyph glyph-name="j.ss02" horiz-adv-x="487" 
d="M167 1164q-36 36 -36 89q0 51 36 86t89 35q55 0 91 -34.5t36 -86.5q0 -53 -36 -89t-91 -36q-53 0 -89 36zM23 -274q70 0 102.5 26.5t40.5 63.5t8 92v995h168v-1012q0 -164 -76 -237.5t-219 -73.5q-43 0 -94 10v140q33 -4 70 -4z" />
    <glyph glyph-name="o.aalt" horiz-adv-x="1128" 
d="M140.5 694.5q62.5 108.5 173 172t249.5 63.5t251 -63.5t174.5 -172t62.5 -241.5q0 -135 -62.5 -245t-174.5 -171.5t-251 -61.5t-249.5 61.5t-173 171t-62.5 245.5q0 133 62.5 241.5z" />
    <glyph glyph-name="germandbls.aalt" horiz-adv-x="1052" 
d="M143 926q0 195 112 304t298 109q109 0 193.5 -37.5t132 -106.5t47.5 -155q0 -156 -156 -256l-106 -71q-41 -27 -60.5 -48.5t-19.5 -50.5t19.5 -47t68.5 -43l116 -59q186 -100 187 -250q0 -109 -84 -174.5t-211 -65.5q-121 0 -195.5 60.5t-74.5 167.5l133 20
q-2 -57 32.5 -91t96.5 -34q61 0 100 30t39 81q0 53 -33 81.5t-98 63.5l-119 60q-61 33 -104 79t-43 119q0 109 116 181l125 79q98 59 99 154q0 78 -56.5 125t-146.5 47q-109 0 -173.5 -72.5t-64.5 -187.5v-938h-170v926z" />
    <glyph glyph-name="y.ss03" horiz-adv-x="970" 
d="M944 903l-375 -897v-127q0 -152 -77.5 -225.5t-217.5 -73.5q-45 0 -96 10v140q55 -6 72 -6q70 0 102.5 27.5t39.5 65.5t7 91v98l-372 897h182l121 -311q115 -293 157 -416q33 113 150 408l129 319h178z" />
    <glyph glyph-name="c_h.dlig" horiz-adv-x="2134" 
d="M1911 832.5q90 -97.5 90 -273.5v-559h-170v520q0 139 -59.5 197.5t-147.5 58.5q-102 0 -175 -62.5t-73 -178.5v-533h-170v1092q0 63 -28.5 94t-77.5 31q-57 0 -86 -35t-29 -94v-490h-174q-20 84 -91 132t-173 48q-131 0 -212 -88t-81 -241q0 -147 78 -236.5t215 -89.5
q102 0 174 49t90 129h174q-25 -147 -144.5 -237.5t-289.5 -90.5q-139 0 -245.5 59.5t-165 168t-58.5 250.5q0 141 59.5 249.5t165 168t242.5 59.5q180 0 303 -96v266q0 125 72.5 197.5t195.5 72.5q119 0 187.5 -70.5t68.5 -195.5v-324q41 70 120 110t171 40q154 0 244 -97.5
z" />
    <glyph glyph-name="c_k.dlig" horiz-adv-x="2043" 
d="M1675 567l312 -567h-191l-240 442l-180 -186v-256h-170v1094q0 63 -28.5 94t-77.5 31q-57 0 -86 -35t-29 -94v-490h-174q-20 84 -91 132t-173 48q-131 0 -212 -88t-81 -241q0 -147 78 -236.5t215 -89.5q102 0 174 49t90 129h174q-25 -147 -144.5 -237.5t-289.5 -90.5
q-139 0 -245.5 59.5t-165 168t-58.5 250.5q0 141 59.5 249.5t165 168t242.5 59.5q180 0 303 -96v266q0 125 72.5 197.5t195.5 72.5q119 0 187.5 -70.5t68.5 -195.5v-637l416 434h207z" />
    <glyph glyph-name="c_t.dlig" horiz-adv-x="1660" 
d="M1614 762h-176v-762h-170v762h-148v141h148v162q0 76 -34 117t-104 41q-74 0 -109.5 -42t-35.5 -118v-461v-2h-174q-20 84 -91 132t-173 48q-131 0 -212 -88t-81 -241q0 -147 78 -236.5t215 -89.5q102 0 174 49t90 129h174q-25 -147 -144.5 -237.5t-289.5 -90.5
q-139 0 -245.5 59.5t-165 168t-58.5 250.5q0 141 59.5 249.5t165 168t242.5 59.5q180 0 303 -96v225q0 145 80 224t217 79t213 -78t76 -217v-164h176v-141z" />
    <glyph glyph-name="c_t_i.dlig" horiz-adv-x="2121" 
d="M1982.5 1339.5q34.5 -34.5 34.5 -86.5q0 -53 -34.5 -89t-90.5 -36q-55 0 -91 36t-36 89q0 51 36 86t91 35q56 0 90.5 -34.5zM1438 903h538v-903h-170v762h-368v-762h-170v762h-150v141h150v162q0 76 -34 117t-104 41q-74 0 -109.5 -42t-35.5 -118v-463h-174
q-20 84 -91 132t-173 48q-131 0 -212 -88t-81 -241q0 -147 78 -236.5t215 -89.5q102 0 174 49t90 129h174q-25 -147 -144.5 -237.5t-289.5 -90.5q-139 0 -245.5 59.5t-165 168t-58.5 250.5q0 141 59.5 249.5t165 168t242.5 59.5q180 0 303 -96v225q0 145 80 224t217 79
t213 -78t76 -217v-164z" />
    <glyph glyph-name="c_t_t.dlig" horiz-adv-x="2168" 
d="M2122 762h-178v-762h-170v762h-336v-762h-170v762h-148v141h148v162q0 76 -34 117t-104 41q-74 0 -109.5 -42t-35.5 -118v-461v-2h-174q-20 84 -91 132t-173 48q-131 0 -212 -88t-81 -241q0 -147 78 -236.5t215 -89.5q102 0 174 49t90 129h174q-25 -147 -144.5 -237.5
t-289.5 -90.5q-139 0 -245.5 59.5t-165 168t-58.5 250.5q0 141 59.5 249.5t165 168t242.5 59.5q180 0 303 -96v225q0 145 80 224t217 79t213 -78t76 -217v-164h336v240h170v-240h178v-141z" />
    <glyph glyph-name="f_f_b.dlig" horiz-adv-x="2404" 
d="M2111.5 870.5q98.5 -59.5 154.5 -168t56 -249.5t-55 -250t-154.5 -168.5t-226.5 -59.5q-117 0 -208 50.5t-138 136.5l-14 -162h-140v1042q0 117 -61 178.5t-170 61.5q-111 0 -170 -63.5t-59 -174.5v-141h334v-141h-334v-762h-170v762h-424v-762h-168v762h-123v141h123
v162q0 166 101.5 266.5t264.5 100.5q102 0 183.5 -39t124.5 -109q51 70 135 109t192 39q180 0 283.5 -104.5t103.5 -285.5v-274q47 76 136.5 119t197.5 43q127 0 225.5 -59.5zM756 1073q0 100 -54.5 154.5t-150.5 54.5q-100 0 -159.5 -56.5t-59.5 -158.5v-164h424v170z
M2069.5 218q80.5 89 80.5 235q0 145 -80.5 234t-214.5 89q-131 0 -210.5 -86t-79.5 -233q0 -150 79.5 -239t213.5 -89q131 0 211.5 89z" />
    <glyph glyph-name="f_f_h.dlig" horiz-adv-x="2310" 
d="M2088 833.5q89 -96.5 89 -274.5v-559h-170v520q0 139 -58.5 197.5t-148.5 58.5q-102 0 -175 -62.5t-73 -178.5v-535h-168l-2 1042q0 117 -59 178.5t-168 61.5q-111 0 -170 -63.5t-59 -174.5v-141h334v-141h-334v-762h-170v762h-424v-762h-168v762h-123v141h123v162
q0 166 101.5 266.5t264.5 100.5q102 0 183.5 -39t124.5 -109q51 70 135 109t192 39q180 0 283.5 -104.5t103.5 -285.5v-262q41 70 121 110t176 40q150 0 239 -96.5zM756 1073q0 100 -54.5 154.5t-150.5 54.5q-100 0 -159.5 -56.5t-59.5 -158.5v-164h424v170z" />
    <glyph glyph-name="w_w_w.dlig" horiz-adv-x="3840" 
d="M2611 903l94 -301q88 -276 113 -379q33 113 186 594l23 70h178q29 -86 98 -310q70 -224 109 -360q39 152 104 352l109 334h178l-309 -903h-168q-92 281 -146 462t-63 218q-57 -203 -213 -680h-172l-303 903h182zM1415 903l94 -301q88 -276 113 -379q33 113 186 594l23 70
h178q29 -86 98 -310q70 -224 109 -360q39 152 104 352l109 334h178l-309 -903h-168q-92 281 -147 462q-54 181 -62 218q-57 -203 -213 -680h-172l-303 903h182zM219 903l94 -301q88 -276 113 -379q33 113 186 594l23 70h178q29 -86 98 -310q70 -224 109 -360q39 152 104 352
l109 334h178l-309 -903h-168q-92 281 -147 462q-54 181 -62 218q-57 -203 -213 -680h-172l-303 903h182z" />
    <glyph glyph-name="c_h.dlig.salt" horiz-adv-x="1970" 
d="M1747 832.5q90 -97.5 90 -273.5v-559h-170v520q0 139 -58.5 197.5t-148.5 58.5q-102 0 -175 -62.5t-73 -178.5v-533h-170v1092q0 63 -28.5 94t-77.5 31q-55 0 -85 -35t-30 -94v-369q-51 29 -115.5 43t-121.5 14q-154 0 -242 -89t-88 -236q0 -152 88 -239t240 -87
q68 0 137 16.5t117 38.5v-153q-55 -27 -129 -40.5t-146 -13.5q-219 0 -349 128t-130 346q0 143 59.5 251.5t169 169t254.5 60.5q55 0 123 -10v180q0 125 73 197.5t195 72.5q119 0 187.5 -70.5t68.5 -195.5v-324q41 70 120 110t171 40q154 0 244 -97.5z" />
    <glyph glyph-name="c_k.dlig.salt" horiz-adv-x="1880" 
d="M1513 567l310 -567h-191l-239 442l-181 -186v-256h-170v1094q0 63 -28.5 94t-77.5 31q-55 0 -85 -35t-30 -94v-369q-51 29 -115.5 43t-121.5 14q-154 0 -242 -89t-88 -236q0 -152 88 -239t240 -87q68 0 137 16.5t117 38.5v-153q-55 -27 -129 -40.5t-146 -13.5
q-219 0 -349 128t-130 346q0 143 59.5 251.5t169 169t254.5 60.5q55 0 123 -10v180q0 125 73 197.5t195 72.5q119 0 187.5 -70.5t68.5 -195.5v-637l416 434h209z" />
    <glyph glyph-name="c_t.dlig.salt" horiz-adv-x="1556" 
d="M1276 297q0 -82 32.5 -121t118.5 -39q23 0 44.5 3t25.5 3v-143q-55 -10 -111 -10q-127 0 -189 51t-76.5 114.5t-14.5 139.5v467h-135v39l135 166v98q0 74 -35 116t-104 42q-74 0 -110 -42t-36 -118v-342q-51 29 -115.5 43t-121.5 14q-154 0 -242 -89t-88 -236
q0 -152 88 -239t240 -87q68 0 137 16.5t117 38.5v-153q-55 -27 -129 -40.5t-146 -13.5q-219 0 -349 128t-130 346q0 143 59.5 251.5t169 169t254.5 60.5q55 0 123 -10v139q0 145 80 224t217 79t214 -78t77 -217v-164h221v-141h-221v-465z" />
    <glyph glyph-name="c_t_i.dlig.salt" horiz-adv-x="2013" 
d="M1872 1335q35 -35 35 -86t-35 -88t-90 -37q-53 0 -89 36t-36 89q0 51 36 86t89 35q55 0 90 -35zM1868 0h-170v762h-422v-465q0 -82 32.5 -121t118.5 -39q23 0 44.5 3t25.5 3v-143q-55 -10 -111 -10q-127 0 -189 51t-76.5 114.5t-14.5 139.5v467h-135v39l135 166v98
q0 74 -35 116t-104 42q-74 0 -110 -42t-36 -118v-342q-51 29 -115.5 43t-121.5 14q-154 0 -242 -89t-88 -236q0 -152 88 -239t240 -87q68 0 137 16.5t117 38.5v-153q-55 -27 -129 -40.5t-146 -13.5q-219 0 -349 128t-130 346q0 143 59.5 251.5t169 169t254.5 60.5
q55 0 123 -10v139q0 145 80 224t217 79t214 -78t77 -217v-164h592v-903z" />
    <glyph glyph-name="c_t_t.dlig.salt" horiz-adv-x="2107" 
d="M1837 762v-465q0 -82 34 -121t120 -39q23 0 43 3t26 3v-143q-55 -10 -110 -10q-127 0 -189.5 51t-77 114.5t-14.5 139.5v467h-395v-465q0 -82 32.5 -121t118.5 -39q23 0 44.5 3t27.5 3v-143q-55 -10 -113 -10q-127 0 -188 51t-75.5 114.5t-14.5 139.5v348h-2v119h-135v39
l135 160v104q0 76 -34 117t-103 41q-74 0 -110 -42t-36 -118v-342q-51 29 -115.5 43t-121.5 14q-154 0 -242 -89t-88 -236q0 -152 88 -239t240 -87q68 0 137 16.5t117 38.5v-153q-55 -27 -129 -40.5t-146 -13.5q-219 0 -349 128t-130 346q0 143 59.5 251.5t169 169
t254.5 60.5q55 0 123 -10v139q0 145 80 224t217 79q135 0 212 -78t77 -217v-164h346l197 232h20v-232h223v-141h-223z" />
    <glyph glyph-name="f_t.liga.salt" horiz-adv-x="1185" 
d="M905 762v-465q0 -45 8.5 -78t42 -57.5t103.5 -24.5q23 0 43 3t26 3v-143q-55 -10 -110 -10q-127 0 -189.5 51t-77 113.5t-14.5 136.5v471h-362v-762h-170v762h-164v141h164v213q0 297 295 297q55 0 96 -8v-141q-23 6 -66 6q-72 0 -105.5 -28t-41.5 -65.5t-8 -93.5v-180
h313l197 232h20v-232h223v-141h-223z" />
    <glyph glyph-name="f_y.liga.salt" horiz-adv-x="1675" 
d="M895 903l299 -624l270 624h185l-578 -1306h-178l213 487l-401 819h190zM425 1242q-34 -28 -42 -65q-8 -38 -8 -94v-180h221v-141h-221v-762h-170v762h-164v141h164v213q0 297 295 297q55 0 96 -8v-141q-23 6 -66 6q-71 0 -105 -28z" />
    <glyph glyph-name="glyph581" horiz-adv-x="1556" 
d="M147 903h461v201q0 309 295 309q55 0 96 -8v-141q-27 6 -69 6q-70 0 -103.5 -28t-42 -64.5t-8.5 -92.5v-182h279l200 232h21v-232h223v-141h-223v-465q0 -82 33.5 -121t120.5 -39q23 0 43 3t26 3v-143q-55 -10 -113 -10q-127 0 -188 51t-75.5 114.5t-14.5 139.5v467h-332
v-762h-168v762h-291v-762h-170v903zM142 1335q36 35 89 35q55 0 90 -35t35 -86t-34.5 -88t-90.5 -37q-53 0 -89 36t-36 89q0 51 36 86z" />
    <glyph glyph-name="i_t_i.liga.salt" horiz-adv-x="1515" 
d="M321.5 1161q-34.5 -37 -90.5 -37q-53 0 -89 36t-36 89q0 51 36 86t89 35q55 0 90 -35t35 -86t-34.5 -88zM1374 1335q35 -35 35 -86t-35 -88t-90 -37t-91 36t-36 89q0 51 36 86t91 35t90 -35zM1370 0h-172v762h-430v-465q0 -45 8 -78t41 -57.5t103 -24.5q23 0 44 3t25 3
v-143q-55 -10 -110 -10q-127 0 -188.5 51t-76 113.5t-14.5 136.5v471h-283v-762h-170v903h404l197 232h20v-232h602v-903z" />
    <glyph glyph-name="i_t_y.liga.salt" horiz-adv-x="1921" 
d="M321.5 1161q-34.5 -37 -90.5 -37q-53 0 -89 36t-36 89q0 51 36 86t89 35q55 0 90 -35t35 -86t-34.5 -88zM1894 903l-577 -1306h-178l215 487l-334 678h-260v-465q0 -45 8 -78t42 -57.5t103 -24.5q23 0 43.5 3t26.5 3v-143q-55 -10 -111 -10q-127 0 -189 51t-76.5 113.5
t-14.5 136.5v471h-275v-762h-170v903h396l196 232h21v-232h381l299 -624l270 624h184z" />
    <glyph glyph-name="t_i.liga.salt" horiz-adv-x="1091" 
d="M950 1335q35 -35 35 -86t-35 -88t-90 -37q-53 0 -90 36t-37 89q0 51 37 86t90 35q55 0 90 -35zM946 903v-903h-172v762h-422v-465q0 -45 8.5 -78t42 -57.5t103.5 -24.5q23 0 43 3t26 3v-143q-55 -10 -112 -10q-127 0 -188.5 51t-76 113.5t-14.5 136.5v471h-137v39
l285 334h20v-232h594z" />
    <glyph glyph-name="t_t.liga.salt" horiz-adv-x="1198" 
d="M918 762v-465q0 -82 32.5 -121t118.5 -39q23 0 44.5 3t25.5 3v-143q-55 -10 -111 -10q-127 0 -188.5 51t-75.5 114.5t-14 139.5v467h-398v-465q0 -82 34 -121t120 -39q23 0 43 3t26 3v-143q-55 -10 -112 -10q-127 0 -188.5 51t-76 114.5t-14.5 139.5v467h-137v39l285 334
h20v-232h348l197 232h21v-232h221v-141h-221z" />
    </font>
</defs>
</svg>
