<svg xmlns="http://www.w3.org/2000/svg" xmlns:xlink="http://www.w3.org/1999/xlink" viewBox="0 0 2785.09 521.82"><defs><style>.a{fill:#3c4043;}.b{fill-rule:evenodd;fill:url(#a);}.c{fill:none;}.d{fill:#fff;}</style><linearGradient id="a" x1="275.54" y1="531.58" x2="275.54" y2="9.76" gradientTransform="matrix(1, 0, 0, -1, 0, 540)" gradientUnits="userSpaceOnUse"><stop offset="0" stop-color="#f452ff"/><stop offset="1" stop-color="#832bc1"/></linearGradient></defs><title>ApplePodcast</title><path class="a" d="M767.63,301.66H682.56L662.14,362h-36L706.67,138.8H744.1L824.68,362H788Zm-76.27-27.82H758.8l-33.25-97.92h-.93Z" transform="translate(-14.63 -8.42)"/><path class="a" d="M1002.76,280.64c0,50.57-27.08,83.05-67.91,83.05-23.2,0-41.59-10.36-51.19-28.47h-.77V415.8H849.47V199.25h32.32v27.08h.61c9.27-17.48,29.08-28.76,51.83-28.76C975.54,197.57,1002.76,230.22,1002.76,280.64Zm-34.33,0c0-32.95-17-54.59-43-54.59-25.52,0-42.69,22.11-42.69,54.59,0,32.79,17.17,54.77,42.69,54.77C951.42,335.38,968.43,313.87,968.43,280.64Z" transform="translate(-14.63 -8.42)"/><path class="a" d="M1183.12,280.64c0,50.57-27.08,83.05-67.9,83.05-23.21,0-41.6-10.36-51.2-28.47h-.77V415.8h-33.41V199.25h32.32v27.08h.6c9.28-17.48,29.09-28.76,51.83-28.76C1155.88,197.57,1183.12,230.22,1183.12,280.64Zm-34.35,0c0-32.95-17-54.59-43-54.59-25.52,0-42.69,22.11-42.69,54.59,0,32.79,17.17,54.77,42.69,54.77C1131.76,335.38,1148.77,313.87,1148.77,280.64Z" transform="translate(-14.63 -8.42)"/><path class="a" d="M1211.41,138.8h33.42V362h-33.42Z" transform="translate(-14.63 -8.42)"/><path class="a" d="M1425.56,314.2c-4.47,29.55-33.25,49.8-70.07,49.8-47.33,0-76.71-31.72-76.71-82.59,0-51,29.55-84.14,75.31-84.14,45,0,73.31,30.92,73.31,80.27V289H1312.48v2c0,27.85,17.47,46.09,43.76,46.09,18.55,0,33.09-8.81,37.59-22.88Zm-112.9-48.56H1394c-.77-24.91-16.71-41.3-39.89-41.3S1314.34,241,1312.66,265.64Z" transform="translate(-14.63 -8.42)"/><path class="a" d="M1617.86,138.8c43.29,0,73.47,29.85,73.47,73.31,0,43.62-30.78,73.61-74.54,73.61h-48V362h-34.65V138.8Zm-49,117.87h39.75c30.16,0,47.33-16.25,47.33-44.4s-17.17-44.22-47.16-44.22h-39.9v88.62Z" transform="translate(-14.63 -8.42)"/><path class="a" d="M1707,280.64c0-51.19,30.15-83.37,77.18-83.37s77.18,32.15,77.18,83.37S1831.5,364,1784.17,364,1707,332,1707,280.64Zm120.34,0c0-35.11-16.08-55.83-43.16-55.83S1741,245.69,1741,280.64c0,35.26,16.08,55.84,43.16,55.84S1827.33,315.9,1827.33,280.64Z" transform="translate(-14.63 -8.42)"/><path class="a" d="M1884.49,280.64c0-50.26,27.68-83,68-83,23.35,0,41.76,10.82,51,28.76h.61V138.8h33.56V362h-32.49V334.31h-.6c-9.6,18.55-28.15,29.38-51.83,29.38C1912.17,363.69,1884.49,330.91,1884.49,280.64Zm34.16,0c0,33.42,17,54.77,43,54.77,25.68,0,42.83-21.65,42.83-54.77,0-32.78-17.17-54.59-42.83-54.59C1935.66,226,1918.65,247.53,1918.65,280.64Z" transform="translate(-14.63 -8.42)"/><path class="a" d="M2182.72,255.27c-2.94-17.18-16.41-30-38.36-30-25.68,0-42.69,21.51-42.69,55.37,0,34.65,17.17,55.53,43,55.53,20.74,0,34.35-10.37,38.06-29.22h32.18c-3.73,34.18-31.09,57.07-70.54,57.07-46.4,0-76.71-31.72-76.71-83.38,0-50.57,30.31-83.38,76.41-83.38,41.75,0,67.74,26.29,70.53,58h-31.87Z" transform="translate(-14.63 -8.42)"/><path class="a" d="M2236,315.43c0-28.45,21.81-45.16,62.34-47.63l43.29-2.47V253c0-18.41-12.21-28.29-33.41-28.29-17.48,0-30.32,9-32.95,22.88h-31.25c.93-29.08,28.15-50.26,65.13-50.26,39.89,0,65.71,20.88,65.71,53.2V362h-32V335.27h-.77c-9.14,17.47-29.41,29.08-51.36,29.08C2258.45,364.32,2236,344.35,2236,315.43Zm105.63-14.37V288.52l-39,2.47c-21.65,1.24-33.09,9.6-33.09,23.68,0,13.6,11.91,23.21,30.48,23.21C2323.72,337.85,2341.66,322.1,2341.66,301.06Z" transform="translate(-14.63 -8.42)"/><path class="a" d="M2472.6,197.41c36,0,61.85,19.94,62.64,48.72h-31.39c-1.42-14.38-13.61-23.21-32.18-23.21-18.08,0-30.15,8.35-30.15,21.05,0,9.74,8,16.24,24.88,20.41l27.38,6.34c32.79,7.87,45.16,19.94,45.16,43.76,0,29.38-27.84,49.49-67.6,49.49-38.35,0-64.17-19.64-66.64-49.35h33.09c2.33,15.61,14.86,24,35.11,24,19.95,0,32.51-8.2,32.51-21.18,0-10.07-6.2-15.48-23.21-19.81l-29.08-7.11c-29.38-7.13-44.23-22.11-44.23-44.69C2408.87,217.07,2434.69,197.41,2472.6,197.41Z" transform="translate(-14.63 -8.42)"/><path class="a" d="M2612.84,160.77v38.5h30.92v26.45h-30.92v89.71c0,13.94,6.2,20.42,19.8,20.42a104,104,0,0,0,11-.77v26.28c-3.71.94-11.14,1.54-18.55,1.54-33,0-45.79-12.37-45.79-43.92V225.72h-23.67V199.27h23.67v-38.5Z" transform="translate(-14.63 -8.42)"/><path class="a" d="M2733.38,197.41c36,0,61.85,19.94,62.64,48.72h-31.39c-1.42-14.38-13.61-23.21-32.18-23.21-18.08,0-30.15,8.35-30.15,21.05,0,9.74,8,16.24,24.88,20.41l27.38,6.34c32.79,7.87,45.17,19.94,45.17,43.76,0,29.38-27.85,49.49-67.61,49.49-38.35,0-64.17-19.64-66.64-49.35h33.09c2.33,15.61,14.86,24,35.11,24,20,0,32.51-8.2,32.51-21.18,0-10.07-6.2-15.48-23.21-19.81l-29.08-7.11c-29.38-7.13-44.23-22.11-44.23-44.69C2669.65,217.07,2695.47,197.41,2733.38,197.41Z" transform="translate(-14.63 -8.42)"/><path class="b" d="M526.15,460.7c-5.08,12.89-16.78,31-33.37,43.81A109.1,109.1,0,0,1,456,523.6c-16.75,5-37.38,6.64-63.06,6.64H158.15c-25.68,0-46.3-1.68-63.06-6.64a109.89,109.89,0,0,1-36.74-19.09C41.75,491.74,30,473.59,25,460.7c-10.23-26-10.35-55.41-10.35-74h0V151.92h0c0-18.55.09-48,10.32-74,5.08-12.89,16.78-31,33.37-43.81A109.22,109.22,0,0,1,95.07,15.06c16.76-5,37.38-6.64,63.06-6.64H393c25.68,0,46.3,1.68,63.06,6.64a110,110,0,0,1,36.75,19.09C509.35,46.92,521.07,65.07,526.12,78c10.21,26,10.33,55.41,10.33,74V386.74C536.47,405.29,536.35,434.74,526.15,460.7Z" transform="translate(-14.63 -8.42)"/><path class="c" d="M526.15,460.7c-5.08,12.89-16.78,31-33.37,43.81A109.1,109.1,0,0,1,456,523.6c-16.75,5-37.38,6.64-63.06,6.64H158.15c-25.68,0-46.3-1.68-63.06-6.64a109.89,109.89,0,0,1-36.74-19.09C41.75,491.74,30,473.59,25,460.7c-10.23-26-10.35-55.41-10.35-74h0V151.92h0c0-18.55.09-48,10.32-74,5.08-12.89,16.78-31,33.37-43.81A109.22,109.22,0,0,1,95.07,15.06c16.76-5,37.38-6.64,63.06-6.64H393c25.68,0,46.3,1.68,63.06,6.64a110,110,0,0,1,36.75,19.09C509.35,46.92,521.07,65.07,526.12,78c10.21,26,10.33,55.41,10.33,74V386.74C536.47,405.29,536.35,434.74,526.15,460.7Z" transform="translate(-14.63 -8.42)"/><path class="d" d="M313.39,308.35c-7.83-8.25-21.57-13.56-37.82-13.56s-30,5.29-37.82,13.56a24.08,24.08,0,0,0-6.92,15c-1.33,12.19-.58,22.7.84,39.48,1.35,16,3.94,37.33,7.32,59.05,2.4,15.44,4.36,23.79,6.13,29.78,2.86,9.67,13.63,18.15,30.45,18.15s27.57-8.46,30.46-18.15c1.77-6,3.73-14.31,6.13-29.78,3.38-21.72,6-43.05,7.32-59.05,1.42-16.78,2.16-27.29.84-39.48A24,24,0,0,0,313.39,308.35Zm-80.48-73.57a42.71,42.71,0,1,0,42.71-42.71A42.71,42.71,0,0,0,232.91,234.78ZM275.08,66.24c-99.87.28-181.71,81.3-182.94,181.17-1,80.91,50.63,150.12,122.75,175.47a2.48,2.48,0,0,0,3.27-2.68c-1-6.29-1.84-12.58-2.66-18.8a6.26,6.26,0,0,0-3.71-5c-57-24.92-96.79-82.08-96.17-148.28.84-86.9,71.8-157.74,158.7-158.44,88.83-.72,161.34,71.36,161.34,160,0,65.56-39.63,122-96.19,146.72a6.23,6.23,0,0,0-3.7,5c-.82,6.2-1.71,12.52-2.66,18.78a2.45,2.45,0,0,0,3.24,2.68c71.42-25.12,122.78-93.25,122.78-173.16C459.13,148.38,376.52,66,275.08,66.24Zm-3.3,84.19a99.38,99.38,0,0,1,71.93,171.83,7.68,7.68,0,0,0-2.4,6,182.16,182.16,0,0,1-.21,20.95,2.42,2.42,0,0,0,3.78,2.14,122.89,122.89,0,0,0,53.73-101.55c0-69.4-57.81-125.56-127.79-122.83-65,2.52-117.24,56.14-118,121.24A122.9,122.9,0,0,0,206.5,351.34a2.41,2.41,0,0,0,3.76-2.14,169.88,169.88,0,0,1-.21-21,7.64,7.64,0,0,0-2.4-6,99.06,99.06,0,0,1-31.39-75.15C177.66,195,219.67,152.46,271.78,150.43Z" transform="translate(-14.63 -8.42)"/></svg>