<svg xmlns="http://www.w3.org/2000/svg" viewBox="0 0 2932.51 540.71"><defs><style>.a{fill:#fab911;}.b{fill:#2d64ad;}.c{fill:#527bbd;}.d{fill:#e84436;}.e{fill:#34a953;}.f{fill:none;}.g{fill:#3d4043;}</style></defs><title>GooglePodcast</title><path class="a" d="M236.23,172V368.5h67.55V172Z" transform="translate(0.36 0)"/><circle class="b" cx="33.9" cy="251.81" r="33.9"/><circle class="b" cx="33.9" cy="288.66" r="33.9"/><path class="b" d="M-.11,251.81H67.45v36.85H-.11Z" transform="translate(0.36 0)"/><circle class="c" cx="506.81" cy="288.66" r="33.9"/><circle class="c" cx="506.81" cy="251.81" r="33.9"/><path class="c" d="M472.79,251.81h67.56v36.85H472.79Z" transform="translate(0.36 0)"/><circle class="d" cx="150.6" cy="362.35" r="33.9"/><circle class="d" cx="150.6" cy="399.2" r="33.9"/><path class="d" d="M116.33,362.36H183.9v36.86H116.33Z" transform="translate(0.36 0)"/><circle class="d" cx="150.6" cy="141.26" r="33.9"/><circle class="d" cx="150.6" cy="261.14" r="33.9"/><path class="d" d="M116.33,141.27H183.9V261.89H116.33Z" transform="translate(0.36 0)"/><circle class="e" cx="390.12" cy="178.11" r="33.9"/><circle class="e" cx="390.12" cy="141.26" r="33.9"/><path class="e" d="M356.06,141.27h67.56v36.85H356.06Z" transform="translate(0.36 0)"/><circle class="a" cx="270.49" cy="70.75" r="33.9"/><circle class="a" cx="270.49" cy="33.9" r="33.9"/><path class="a" d="M236.23,33.91h67.55V70.76H236.23Z" transform="translate(0.36 0)"/><circle class="a" cx="270.49" cy="506.81" r="33.9"/><circle class="a" cx="270.49" cy="469.96" r="33.9"/><path class="a" d="M236.23,470h67.55v36.85H236.23Z" transform="translate(0.36 0)"/><circle class="e" cx="390.12" cy="399.2" r="33.9"/><circle class="e" cx="390.12" cy="279.57" r="33.9"/><path class="e" d="M356.06,279.6h67.56V399.5H356.06Z" transform="translate(0.36 0)"/><circle class="a" cx="270.49" cy="171.97" r="33.9"/><circle class="a" cx="270.49" cy="368.5" r="33.9"/><path class="f" d="M0,93.6H2297.2V447.12H0Z" transform="translate(0.36 0)"/><path class="g" d="M1775,375.76h-28.74v-225h76.64a70.92,70.92,0,0,1,49.38,19.16c14,12.53,20.89,28.5,20.89,47.9,0,19.17-6.88,35.14-20.89,47.91a71.15,71.15,0,0,1-49.37,18.91H1775v91.12Zm0-118.64h48.39c12.29,0,22.12-4.18,29.48-12.29,7.13-8.35,10.81-17.19,10.81-27s-3.68-18.92-11-27c-7.37-8.36-17.2-12.28-29.24-12.28H1775Zm142.24-16.71q22.11-23.58,56.75-23.59c23.09,0,42,7.86,57,23.34,14.73,15.72,22.11,35.13,22.11,58.71,0,23.35-7.38,43-22.11,58.48-14.74,15.72-33.91,23.34-57,23.34s-41.76-7.61-56.75-23.34c-14.74-15.47-22.36-35.13-22.36-58.48,0-23.58,7.37-43,22.11-58.46Zm21.37,99a48.64,48.64,0,0,0,68.76,2h0c.68-.63,1.35-1.31,2-2q14.76-15.48,14.74-40.54t-14.74-40.52c-9.82-9.83-21.62-15.23-35.38-15.23-13.5,0-25.3,5.15-35.37,15.23q-14.73,15.47-14.73,40.52t14.73,40.54Zm201.69,41.28c-19.65,0-36.85-7.86-51.6-23.35a83.05,83.05,0,0,1-21.61-58.47c0-23.33,7.36-42.74,21.61-58.47a67.83,67.83,0,0,1,83.29-16,53.64,53.64,0,0,1,20.89,18.67h1.23l-1.23-21.38v-71h28.74v225h-27.51V354.38h-1.23A58.06,58.06,0,0,1,2172,373.3q-14,7.38-31.69,7.38Zm4.91-26.28a45,45,0,0,0,34.39-15c9.83-10.07,14.49-23.59,14.49-40.53,0-17.2-4.91-30.46-14.24-40.53-9.83-10.08-21.14-15.23-34.88-15.23-13.26,0-24.82,4.91-34.4,15.23-9.82,10.07-14.74,23.58-14.74,40.28q0,25.44,14.74,40.53c9.58,10.07,21.13,15.23,34.4,15.23Zm176.88,26.28c-23.1,0-42-7.61-57-23.35-14.74-15.47-22.12-35.12-22.12-58.47,0-23.58,7.37-43,22.12-58.71,14.73-15.47,33.9-23.34,57-23.34A69.75,69.75,0,0,1,2389.66,261l-26.53,11a43,43,0,0,0-43-29c-12.77,0-24.08,5.41-33.9,15.72-9.83,10.56-14.49,23.84-14.49,40,0,16,4.92,29.48,14.73,39.8,9.83,10.55,20.89,15.72,33.66,15.72,21.62,0,36.36-9.83,44.7-29l25.8,11.05A71.18,71.18,0,0,1,2322.11,380.69Zm137.08,0c-16.46,0-30.21-4.67-41-14a46.69,46.69,0,0,1-16.46-37.34c0-16.71,6.38-30,19.41-39.3a79.06,79.06,0,0,1,48.14-14.49c17,0,30.72,3.19,41.76,9.33v-4.42c0-11.3-3.92-20.15-11.79-27a41.77,41.77,0,0,0-28.49-10.32,43.05,43.05,0,0,0-22.85,6.14,30.08,30.08,0,0,0-14,16.22l-26.34-11.33c3.44-9.1,10.56-17.7,21.14-25.55q15.47-11.81,41.27-11.79c19.64,0,36.1,5.64,49.13,17.19s19.66,27.76,19.66,48.65v93.1H2511V354.4h-1.23a56.76,56.76,0,0,1-50.86,26.3h.28Zm4.67-26.28q17.68,0,32.43-13.26Q2511,327.52,2511,309.46c-8.34-6.63-20.65-9.82-36.84-9.82-14,0-24.58,2.95-31.94,8.84-6.88,6.14-10.56,13.26-10.56,21.37,0,7.61,3.44,13.51,9.83,17.94a38.35,38.35,0,0,0,22.1,6.63h.25Zm159.19,26.28a69.31,69.31,0,0,1-67.07-44l25.81-10.56c8.1,19.17,22.1,29,41.76,29,8.83,0,16.21-2.21,22.11-6.14a18.36,18.36,0,0,0,8.59-15.72c0-9.82-7.11-16.71-21.13-20.4l-31-7.36a74,74,0,0,1-28-14.49,34.4,34.4,0,0,1-13.26-28.25c0-13.76,6.14-24.57,18.19-33.17a77.23,77.23,0,0,1,79.33-3.44,51.57,51.57,0,0,1,22.9,26.53L2656.22,263c-5.65-13.51-17.46-20.39-35.14-20.39-8.59,0-16,1.72-21.86,5.4-5.65,3.44-8.59,8.35-8.59,14.25,0,8.85,6.62,14.74,20.39,17.94l30.47,7.36c14.23,3.19,25,9.08,31.93,17.2a41.37,41.37,0,0,1,10.32,27.77c0,13.74-5.65,25.3-17,34.39-11.3,9.32-25.8,13.74-43.73,13.74Zm147.39-2.46c-16.21,0-28.49-4.17-37.09-12.77a49.59,49.59,0,0,1-12.78-36.62V248.27h-27V221.74h27V174.82h29v46.92h37.58v26.53h-37.58v78.61q0,25.08,20.64,25.06a33.64,33.64,0,0,0,13.26-2.45l9.82,24.56c-6.14,2.95-13.74,4.18-23.09,4.18Zm101,2.46a69.29,69.29,0,0,1-67.06-44l25.79-10.56c8.11,19.17,22.12,29,41.77,29,8.83,0,16.21-2.21,22.1-6.14a18.36,18.36,0,0,0,8.6-15.72c0-9.82-7.12-16.71-21.13-20.4l-31-7.36a74,74,0,0,1-28-14.49,34.44,34.44,0,0,1-13.26-28.25c0-13.76,6.14-24.57,18.19-33.17a77.27,77.27,0,0,1,79.35-3.44,51.66,51.66,0,0,1,22.84,26.53l-25,10.31c-5.65-13.51-17.45-20.39-35.13-20.39-8.6,0-16,1.72-21.87,5.4-5.9,3.44-8.6,8.35-8.6,14.25,0,8.85,6.64,14.74,20.4,17.94l30.46,7.36c14.24,3.19,25.06,9.08,31.94,17.2a41.41,41.41,0,0,1,10.31,27.77c0,13.74-5.65,25.3-17,34.39-11.29,9.32-25.78,13.74-43.72,13.74ZM648.65,252c0-71.24,59.45-129,130.69-129a122.85,122.85,0,0,1,88.44,35.63l-25.06,24.57A92.36,92.36,0,0,0,687,251.46c0,51.83,40.53,93.6,92.37,93.6a86,86,0,0,0,65.1-25.8c9.83-9.82,16.7-24.58,19.16-44.22H779.34V239.92H898a116.26,116.26,0,0,1,2,22.1,115.37,115.37,0,0,1-30.46,82.3,118.56,118.56,0,0,1-90.16,36.11A130.44,130.44,0,0,1,648.65,252ZM994.3,216.33a81.81,81.81,0,0,1,83.27,80.33v2.5a81.82,81.82,0,0,1-80.56,83h-2.73a81.82,81.82,0,0,1-83-80.56v-2.49a81.57,81.57,0,0,1,80.29-82.79c.91,0,1.82,0,2.73,0Zm0,132.9c25,0,46.91-20.64,46.91-50.37,0-30-21.86-50.36-46.67-50.36-25.55,0-46.92,20.39-46.92,50.36,0,29.74,21.62,50.37,46.68,50.37Zm181.78-132.9a81.81,81.81,0,0,1,83,80.57v2.22a81.82,81.82,0,0,1-80.56,83H1176a81.82,81.82,0,0,1-83.28-80.32v-2.73a81.57,81.57,0,0,1,80.31-82.8c1,0,2,0,3,.06Zm0,132.9c25.06,0,46.68-20.64,46.68-50.37,0-30-21.38-50.36-46.68-50.36s-46.92,20.39-46.92,50.36c0,29.73,21.87,50.37,46.67,50.37ZM1398.91,219h34.88V367.91c0,61.41-36.11,86.48-78.85,86.48a79.1,79.1,0,0,1-73.7-49.13L1313.18,392c5.4,13.5,19.16,29.48,41.51,29.48,27,0,44.22-17.2,44.22-48.64v-12h-1.23A56.51,56.51,0,0,1,1354,379.69a82.3,82.3,0,0,1-79.59-82.79c0-46.67,38.08-83.29,79.59-83.29,19.66,0,35.62,8.85,43.73,18.67h1.23V219Zm-41.77,128c24.56,0,44.22-20.89,44.22-50.12s-19.66-50.37-44.22-50.37c-25.06,0-46.18,21.13-46.18,50.37,0,29,21.12,50.11,46.18,50.11Zm101.43,29.48V132.81h36.11v243.7Zm136.11-27c18.67,0,31.44-9.34,41-23.1l28.25,18.92a83,83,0,0,1-69.27,36.85,81,81,0,0,1-82.06-79.92v-3.14c0-49.13,35.62-82.79,78.6-82.79,42.75,0,63.87,33.9,70.75,52.57l3.69,9.34-111,45.93c8.6,16.46,21.62,25.06,40.29,25.06Zm-2.46-101.46c-18.92,0-44.71,16.46-43.73,48.39l74.19-30.7c-3.93-10.32-16.21-17.45-30.71-17.45Z" transform="translate(0.36 0)"/></svg>