<svg xmlns="http://www.w3.org/2000/svg" viewBox="0 0 2942.59 540.71"><defs><style>.a{fill:#fab911;}.b{fill:#2d64ad;}.c{fill:#527bbd;}.d{fill:#e84436;}.e{fill:#34a953;}.f{fill:none;}.g{fill:#3d4043;}</style></defs><title>google-podcasts-logo</title><path class="a" d="M2667.17,190.37V386.9h67.55V190.37Z" transform="translate(-28.71 -18.4)"/><circle class="b" cx="2435.77" cy="251.81" r="33.9"/><circle class="b" cx="2435.77" cy="288.66" r="33.9"/><path class="b" d="M2430.83,270.21h67.56v36.85h-67.56Z" transform="translate(-28.71 -18.4)"/><circle class="c" cx="2908.68" cy="288.66" r="33.9"/><circle class="c" cx="2908.68" cy="251.81" r="33.9"/><path class="c" d="M2903.73,270.21h67.56v36.85h-67.56V270.21Z" transform="translate(-28.71 -18.4)"/><circle class="d" cx="2552.47" cy="362.35" r="33.9"/><circle class="d" cx="2552.47" cy="399.2" r="33.9"/><path class="d" d="M2547.27,380.76h67.57v36.85h-67.57Z" transform="translate(-28.71 -18.4)"/><circle class="d" cx="2552.47" cy="141.26" r="33.9"/><circle class="d" cx="2552.47" cy="261.14" r="33.9"/><path class="d" d="M2547.27,159.67h67.57V280.29h-67.57Z" transform="translate(-28.71 -18.4)"/><circle class="e" cx="2791.99" cy="178.11" r="33.9"/><circle class="e" cx="2791.99" cy="141.26" r="33.9"/><path class="e" d="M2787,159.67h67.56v36.85H2787Z" transform="translate(-28.71 -18.4)"/><circle class="a" cx="2672.36" cy="70.75" r="33.9"/><circle class="a" cx="2672.36" cy="33.9" r="33.9"/><path class="a" d="M2667.17,52.31h67.55V89.16h-67.55Z" transform="translate(-28.71 -18.4)"/><circle class="a" cx="2672.36" cy="506.81" r="33.9"/><circle class="a" cx="2672.36" cy="469.96" r="33.9"/><path class="a" d="M2667.17,488.36h67.55v36.85h-67.55Z" transform="translate(-28.71 -18.4)"/><circle class="e" cx="2791.99" cy="399.2" r="33.9"/><circle class="e" cx="2791.99" cy="279.57" r="33.9"/><path class="e" d="M2787,298h67.56v119.9H2787Z" transform="translate(-28.71 -18.4)"/><circle class="a" cx="2672.36" cy="171.97" r="33.9"/><circle class="a" cx="2672.36" cy="368.5" r="33.9"/><path class="f" d="M28.71,112h2297.2V465.52H28.71Z" transform="translate(-28.71 -18.4)"/><path class="g" d="M1162.45,377.07h-28.74v-225h76.64a70.9,70.9,0,0,1,49.38,19.16c14,12.53,20.89,28.5,20.89,47.9,0,19.17-6.88,35.14-20.89,47.91a71.22,71.22,0,0,1-49.37,18.91h-47.91v91.14Zm0-118.64h48.39c12.29,0,22.12-4.18,29.48-12.29,7.13-8.35,10.81-17.19,10.81-27s-3.68-18.92-11.05-27c-7.37-8.36-17.2-12.28-29.24-12.28h-48.39Zm142.24-16.71q22.1-23.58,56.75-23.59c23.09,0,42,7.86,57,23.34,14.73,15.72,22.11,35.13,22.11,58.71,0,23.35-7.38,43-22.11,58.48-14.74,15.72-33.91,23.34-57,23.34s-41.76-7.61-56.75-23.34c-14.74-15.47-22.36-35.13-22.36-58.48,0-23.58,7.37-43,22.11-58.46Zm21.37,99a48.64,48.64,0,0,0,68.76,2c.68-.63,1.35-1.31,2-2q14.75-15.48,14.74-40.54t-14.74-40.52c-9.82-9.83-21.62-15.23-35.38-15.23-13.5,0-25.3,5.15-35.37,15.23q-14.73,15.46-14.73,40.52t14.73,40.54ZM1527.75,382c-19.65,0-36.85-7.86-51.6-23.35a83.05,83.05,0,0,1-21.61-58.47c0-23.33,7.36-42.74,21.61-58.47a67.82,67.82,0,0,1,83.29-16,53.69,53.69,0,0,1,20.89,18.67h1.23L1580.33,223V152h28.74v225h-27.51V355.69h-1.23a58.16,58.16,0,0,1-20.89,18.92q-14,7.38-31.69,7.38Zm4.91-26.28a45.05,45.05,0,0,0,34.39-15c9.83-10.07,14.49-23.59,14.49-40.53,0-17.2-4.91-30.46-14.24-40.53-9.83-10.08-21.14-15.23-34.88-15.23-13.26,0-24.82,4.91-34.4,15.23-9.82,10.07-14.74,23.58-14.74,40.28q0,25.44,14.74,40.53c9.58,10.07,21.13,15.23,34.4,15.23ZM1709.54,382c-23.1,0-42-7.61-57-23.35-14.74-15.47-22.12-35.12-22.12-58.47,0-23.58,7.37-43,22.12-58.71,14.73-15.47,33.9-23.34,57-23.34a69.75,69.75,0,0,1,67.55,44.22l-26.53,11.05a43,43,0,0,0-43-29c-12.77,0-24.08,5.41-33.9,15.72-9.83,10.56-14.49,23.84-14.49,40,0,16,4.92,29.48,14.73,39.8,9.83,10.55,20.89,15.72,33.66,15.72,21.62,0,36.36-9.83,44.7-29l25.8,11.05A71.19,71.19,0,0,1,1709.54,382Zm137.08,0c-16.46,0-30.21-4.67-41-14a46.65,46.65,0,0,1-16.46-37.34c0-16.71,6.38-30,19.41-39.3a79,79,0,0,1,48.14-14.49c17,0,30.72,3.19,41.76,9.33v-4.42c0-11.3-3.92-20.15-11.79-27a41.77,41.77,0,0,0-28.49-10.32,43,43,0,0,0-22.85,6.14,30,30,0,0,0-14,16.22L1795,255.49c3.44-9.1,10.56-17.7,21.14-25.55q15.46-11.81,41.27-11.79c19.64,0,36.1,5.64,49.13,17.19s19.66,27.76,19.66,48.65v93.1h-27.77V355.71h-1.23a56.76,56.76,0,0,1-50.86,26.3h.25v0Zm4.67-26.28q17.68,0,32.43-13.26,14.73-13.63,14.73-31.69c-8.34-6.63-20.65-9.82-36.84-9.82-14,0-24.58,2.95-31.94,8.84-6.88,6.14-10.56,13.26-10.56,21.37,0,7.61,3.44,13.51,9.83,17.94a38.39,38.39,0,0,0,22.1,6.63h.25ZM2010.48,382a69.29,69.29,0,0,1-67.07-44l25.81-10.56c8.1,19.17,22.1,29,41.76,29,8.83,0,16.21-2.21,22.11-6.14a18.41,18.41,0,0,0,8.59-15.72c0-9.82-7.11-16.71-21.13-20.4l-31-7.36a73.94,73.94,0,0,1-28-14.49,34.37,34.37,0,0,1-13.26-28.25c0-13.76,6.14-24.57,18.19-33.17a77.22,77.22,0,0,1,79.33-3.44A51.58,51.58,0,0,1,2068.71,254l-25.06,10.31c-5.65-13.51-17.46-20.39-35.14-20.39-8.59,0-16,1.72-21.86,5.4-5.65,3.44-8.59,8.35-8.59,14.25,0,8.85,6.62,14.74,20.39,17.94l30.47,7.36c14.23,3.19,25,9.08,31.93,17.2a41.41,41.41,0,0,1,10.32,27.77c0,13.74-5.65,25.3-17,34.39-11.3,9.32-25.8,13.74-43.73,13.74Zm147.39-2.46c-16.21,0-28.49-4.17-37.09-12.77A49.56,49.56,0,0,1,2108,330.15V249.58h-27V223.05h27V176.13h29v46.92h37.58v26.53H2137v78.61q0,25.08,20.64,25.06a33.7,33.7,0,0,0,13.26-2.45l9.82,24.56c-6.14,2.95-13.74,4.18-23.09,4.18h.24Zm101,2.46a69.27,69.27,0,0,1-67.06-44l25.79-10.56c8.11,19.17,22.12,29,41.77,29,8.83,0,16.21-2.21,22.1-6.14a18.39,18.39,0,0,0,8.6-15.72c0-9.82-7.12-16.71-21.13-20.4l-31-7.36a74,74,0,0,1-28-14.49,34.42,34.42,0,0,1-13.26-28.25c0-13.76,6.14-24.57,18.19-33.17a77.26,77.26,0,0,1,79.35-3.44A51.63,51.63,0,0,1,2317.06,254l-25,10.31c-5.65-13.51-17.45-20.39-35.13-20.39-8.6,0-16,1.72-21.87,5.4-5.9,3.44-8.6,8.35-8.6,14.25,0,8.85,6.64,14.74,20.4,17.94l30.46,7.36c14.24,3.19,25.06,9.08,31.94,17.2a41.45,41.45,0,0,1,10.31,27.77c0,13.74-5.65,25.3-17,34.39-11.29,9.32-25.78,13.74-43.72,13.74ZM36.08,253.26c0-71.24,59.45-129,130.69-129a122.87,122.87,0,0,1,88.44,35.63l-25.06,24.57A92.36,92.36,0,0,0,74.41,252.77c0,51.83,40.53,93.6,92.37,93.6a86,86,0,0,0,65.1-25.8c9.83-9.82,16.7-24.58,19.16-44.22H166.77V241.23H285.43a117,117,0,0,1,2,22.1,115.43,115.43,0,0,1-30.46,82.3,118.6,118.6,0,0,1-90.16,36.11A130.43,130.43,0,0,1,36.08,253.26Zm345.65-35.62A81.81,81.81,0,0,1,465,298c0,.83,0,1.64,0,2.47a81.82,81.82,0,0,1-80.56,83h-2.73a81.82,81.82,0,0,1-83-80.56c0-.84,0-1.66,0-2.49A81.56,81.56,0,0,1,379,217.63C379.91,217.62,380.82,217.63,381.73,217.64Zm0,132.9c25,0,46.91-20.64,46.91-50.37,0-30-21.86-50.36-46.67-50.36-25.55,0-46.92,20.39-46.92,50.36C335,329.91,356.67,350.54,381.73,350.54Zm181.78-132.9a81.81,81.81,0,0,1,83,80.57c0,.74,0,1.48,0,2.22a81.82,81.82,0,0,1-80.56,83h-2.48a81.82,81.82,0,0,1-83.28-80.32c0-.9,0-1.82,0-2.73a81.57,81.57,0,0,1,80.31-82.8C561.53,217.62,562.52,217.62,563.51,217.64Zm0,132.9c25.06,0,46.68-20.64,46.68-50.37,0-30-21.38-50.36-46.68-50.36s-46.92,20.39-46.92,50.36c0,29.73,21.87,50.37,46.67,50.37Zm222.83-130.2h34.88V369.22c0,61.41-36.11,86.48-78.85,86.48a79.1,79.1,0,0,1-73.7-49.13l31.94-13.26c5.4,13.5,19.16,29.48,41.51,29.48,27,0,44.22-17.2,44.22-48.64v-12h-1.23A56.54,56.54,0,0,1,741.38,381a82.3,82.3,0,0,1-79.59-82.79c0-46.67,38.08-83.29,79.59-83.29,19.66,0,35.62,8.85,43.73,18.67h1.23V220.34Zm-41.77,128c24.56,0,44.22-20.89,44.22-50.12s-19.66-50.37-44.22-50.37c-25.06,0-46.18,21.13-46.18,50.37C698.4,327.21,719.51,348.33,744.57,348.33ZM846,377.82V134.12h36.11v243.7Zm136.11-27c18.67,0,31.44-9.34,41-23.1l28.25,18.92a83,83,0,0,1-69.27,36.85,81,81,0,0,1-82.07-80.06c0-1,0-2,0-3,0-49.13,35.62-82.79,78.6-82.79,42.75,0,63.87,33.9,70.75,52.57l3.69,9.34-111,45.93c8.6,16.46,21.62,25.06,40.29,25.06Zm-2.46-101.46c-18.92,0-44.71,16.46-43.73,48.39l74.19-30.7c-3.93-10.32-16.21-17.45-30.71-17.45Z" transform="translate(-28.71 -18.4)"/></svg>