<svg id="Layer_1" data-name="Layer 1" xmlns="http://www.w3.org/2000/svg" viewBox="0 0 1080 453.6"><defs><style>.cls-1{fill:#fff;}</style></defs><title>SocialChainLogo</title><path class="cls-1" d="M551.92,134.26a26.2,26.2,0,0,1,11.45-9.61,40.82,40.82,0,0,1,17.15-3.39,40.17,40.17,0,0,1,16.82,3.32,27.28,27.28,0,0,1,11.45,9.34A24.22,24.22,0,0,1,613,148H594.33a10.36,10.36,0,0,0-4.19-8.39c-2.71-2.08-6.26-3.11-10.62-3.11-4,0-7.14.92-9.5,2.77a8.9,8.9,0,0,0-3.51,7.31q0,4.6,3,6.74a24.69,24.69,0,0,0,8.59,3.41l14.3,3.46q10.81,2.37,16.85,8.94t6,16.44a26.42,26.42,0,0,1-4.23,15,27.05,27.05,0,0,1-12,9.78,44.48,44.48,0,0,1-18,3.42q-15.37,0-25-7.45T545.73,186h18.55a11.42,11.42,0,0,0,4.83,9.15c3.06,2.2,7.08,3.31,12.09,3.31,4.69,0,8.39-1,11.06-2.91a9.29,9.29,0,0,0,4-8,7.89,7.89,0,0,0-2.71-6.5,19.4,19.4,0,0,0-7.37-3.51l-14.69-3.6q-11.65-2.64-17.63-9.11a22.61,22.61,0,0,1-6-16,26.29,26.29,0,0,1,4-14.56"/><path class="cls-1" d="M710.23,152.1a25.66,25.66,0,0,0-10-10.42,30.33,30.33,0,0,0-29.11.06A26.76,26.76,0,0,0,661,152.17a31.06,31.06,0,0,0-3.7,15.4,31.58,31.58,0,0,0,3.62,15.36A25.91,25.91,0,0,0,671,193.26,28.8,28.8,0,0,0,685.57,197a28.08,28.08,0,0,0,14.55-3.76,26.93,26.93,0,0,0,10.06-10.46,31.27,31.27,0,0,0,3.68-15.29,31.69,31.69,0,0,0-3.63-15.34m16.64,39.43A42.35,42.35,0,0,1,710,207.91a53.85,53.85,0,0,1-48.74,0,42.43,42.43,0,0,1-16.82-16.31,46.89,46.89,0,0,1-6.09-24,47,47,0,0,1,6.09-24,43,43,0,0,1,16.82-16.42,49.7,49.7,0,0,1,24.34-5.89,50.49,50.49,0,0,1,24.4,5.83,42.47,42.47,0,0,1,16.9,16.35,50.51,50.51,0,0,1,0,48.09"/><path class="cls-1" d="M778.62,208a41,41,0,0,1-16.42-16.25q-5.88-10.48-5.88-24.29t5.75-24.21A40.21,40.21,0,0,1,778.35,127a49.72,49.72,0,0,1,24.26-5.76,54,54,0,0,1,20.66,3.86,39.08,39.08,0,0,1,15.51,11.21,35.15,35.15,0,0,1,7.64,17.22h-20.1a19.47,19.47,0,0,0-8.33-11.3,27.2,27.2,0,0,0-15.65-4.4q-12.45,0-19.75,8.13t-7.32,21.59q0,13.6,7.41,21.49T802.34,197a27.65,27.65,0,0,0,15.45-4.3,19.65,19.65,0,0,0,8.53-11.41h20.1a33.87,33.87,0,0,1-7.35,16.93,39.9,39.9,0,0,1-15.46,11.47,52.45,52.45,0,0,1-21,4.1,49.15,49.15,0,0,1-24-5.76"/><rect class="cls-1" x="874.77" y="123.02" width="18.08" height="88.89"/><path class="cls-1" d="M969.31,177.53l-4.6-13q-2.1-5.69-3.76-10.83t-2.2-7c-.36,1.22-1.21,3.78-2.58,7.66s-2.6,7.31-3.78,10.29l-4.88,12.87ZM949.62,123h17.87l33,88.89h-19l-7-19.43H942.24l-7,19.43H916.57Z"/><polygon class="cls-1" points="1025.37 123.02 1025.37 211.91 1080 211.91 1080 195.66 1043.59 195.66 1043.59 123.02 1025.37 123.02"/><path class="cls-1" d="M568,326.57a40.72,40.72,0,0,1-15.86-16.32,49.39,49.39,0,0,1-5.69-24A50.11,50.11,0,0,1,552,262.15a40.4,40.4,0,0,1,15.88-16.28,46.47,46.47,0,0,1,23.39-5.82,50.24,50.24,0,0,1,19.22,3.59,38.94,38.94,0,0,1,14.7,10.25,34.26,34.26,0,0,1,7.84,15.54H619.72a24,24,0,0,0-10.32-13.14A33,33,0,0,0,591,251.22a31.55,31.55,0,0,0-16.68,4.4A29.84,29.84,0,0,0,563,267.91a44.23,44.23,0,0,0,0,36.89,28.74,28.74,0,0,0,11.32,12.12A32.49,32.49,0,0,0,591,321.15a33.52,33.52,0,0,0,18.25-4.94,23.91,23.91,0,0,0,10.45-13.27h13.33a33.31,33.31,0,0,1-7.65,15.4,39,39,0,0,1-14.68,10.36,50.08,50.08,0,0,1-19.43,3.69A46.24,46.24,0,0,1,568,326.57"/><polygon class="cls-1" points="662.83 241.81 674.88 241.81 674.88 280.53 719.22 280.53 719.22 241.81 731.26 241.81 731.26 330.7 719.22 330.7 719.22 290.89 674.88 290.89 674.88 330.7 662.83 330.7 662.83 241.81"/><path class="cls-1" d="M811.82,298.54l-8.06-22.07q-3.85-11-5.28-14.69l-2.09-5.95q.27,0-7.44,20.91l-8.34,21.8Zm-22.2-56.73H803l33.11,88.89H823.33l-8.06-22.21h-38.1l-8.34,22.21H756.65Z"/><rect class="cls-1" x="861.97" y="241.81" width="12.05" height="88.89"/><polygon class="cls-1" points="977.44 241.81 977.44 330.7 965.93 330.7 920.45 262.59 920.45 330.7 908.4 330.7 908.4 241.81 919.91 241.81 965.34 310.19 965.34 241.81 977.44 241.81"/><path class="cls-1" d="M327.44,199.91a51.5,51.5,0,0,0-6.15-8.19q-.51-.25-.51-.51a53.28,53.28,0,0,0-91.68,34.65v.51c-.34,2-.34,4.1-.51,5.81a.59.59,0,0,1-.34-.17c-5.12-5.12-9.9-10.07-14.51-14A176.15,176.15,0,0,0,191,200.42,95.2,95.2,0,0,1,278.1,132h4.61a94.35,94.35,0,0,1,80.58,45.41ZM283.56,321.8H282.2a125.79,125.79,0,0,1-34.14-4.43,91.25,91.25,0,0,1-27.15-12.64c-1.37-1-2.56-1.87-3.75-2.73a18.14,18.14,0,0,1-2.06-1.7c-7.85-6.32-14.84-13.66-21.85-21.17-6.82-7.52-13.82-14.85-21.5-21-1.71-1.54-3.42-2.73-5.13-4.1a98.21,98.21,0,0,0-10.07-6c-17.24-8.53-35.17-16.55-47.63-32.26-7.51-9.39-11.27-19.63-11.27-31.07,0-14.51,5.63-27.15,16.9-37.22a56.88,56.88,0,0,1,19.13-11.78A69.54,69.54,0,0,1,157.23,132a72.52,72.52,0,0,1,17.25,1.87,70.38,70.38,0,0,1,16,6,47.64,47.64,0,0,1,8.71,5c.85.68,4.44,3.24,7.51,5.46A107.84,107.84,0,0,0,182,187.62c-5.29-3.59-12.46-8-14.5-8.88a24.17,24.17,0,0,0-9.91-2.39c-4.43,0-10.41,1.2-12.8,5.64-1.71,2.9-.68,6,1.37,8.36a20.55,20.55,0,0,0,4.09,3.08c6.49,3.92,13.49,7.16,20.32,10.58,2.39,1,4.61,2.22,6.83,3.24.34.17.68.52,1,.68a34.67,34.67,0,0,1,5.47,3.08l.5.17c.86.68,1.88,1.37,2.74,2a1.45,1.45,0,0,1,.85.51c.17,0,.17,0,.34.17a175.53,175.53,0,0,1,17.08,13.66c.33.34.85.68,1.19,1l.34.34c.34.35.51.35.85.69l.86.85.51.51c.34.34.85.69,1.19,1,.18.17.18.34.52.51.34.51.85.68,1.19,1,.17.33.17.51.52.51a4,4,0,0,0,1.19,1.19.54.54,0,0,0,.51.51,9.75,9.75,0,0,0,1,1.37,1.31,1.31,0,0,1,.69.68,7.46,7.46,0,0,1,1.2,1c.85.68,1.53,1.53,2.38,2.22v.17c2.22,2.39,4.61,4.61,7,7l8.71,8.71c3.93,4.61,12.81,14.86,27,20.49a2.25,2.25,0,0,1,1.2.51,54.13,54.13,0,0,0,63.5-20.83l34.32,22.2a94.8,94.8,0,0,1-77.68,42.5m-101.91-4.26A80.79,80.79,0,0,1,155,321.8c-13.15,0-25.11-2.55-35.69-7.85-12.12-6-20.65-14.17-28.85-24.75l30.22-32.95c3.24,3.58,6,6.83,9.9,9.9A59.61,59.61,0,0,0,140,272.3a49.65,49.65,0,0,0,9.39,4.1,27.8,27.8,0,0,0,8,1.19c4.61,0,9.22-1.19,12.64-4.1,4.6,4.44,9.22,9.22,14,14.17l.17.34c5.63,6,11.43,12.3,17.75,17.93a52.48,52.48,0,0,1-20.31,11.61M226.89,0C117.11,0,0,17.59,0,226.89S117.11,453.6,226.89,453.6,453.6,436.19,453.6,226.89,336.66,0,226.89,0"/></svg>