<?xml version="1.0" encoding="utf-8"?>
<!-- Generator: Adobe Illustrator 23.0.4, SVG Export Plug-In . SVG Version: 6.00 Build 0)  -->
<svg version="1.1" id="Layer_1" xmlns="http://www.w3.org/2000/svg" xmlns:xlink="http://www.w3.org/1999/xlink" x="0px" y="0px"
	 viewBox="0 0 550 80" style="enable-background:new 0 0 550 80;" xml:space="preserve">
<style type="text/css">
	.st0{fill:#FFFFFF;}
</style>
<g>
	<path class="st0" d="M19.04,55.63l6.47-1.8c1.43,7.66,8.6,13.93,16.71,13.93c7.41,0,14.75-3.81,14.75-12
		c0-7.74-6.92-10.69-11.72-11.63l-8.73-1.72c-2.95-0.57-7.7-2.25-11.14-5.57c-2.7-2.62-4.59-6.31-4.59-11.35
		c0-11.22,9.91-18.31,20.85-18.31c14.13,0,20.32,8.68,21.67,15.73l-6.27,1.97c-1.15-4.67-5.37-11.35-15.57-11.35
		c-7.05,0-13.76,4.59-13.76,11.63c0,4.83,2.91,9.05,9.54,10.36l8.36,1.64c4.59,0.9,9.09,2.34,12.74,5.74
		C62.86,47.08,64,52.2,64,54.98c0,11.8-9.5,19.25-21.79,19.25C29.37,74.23,19.99,64.93,19.04,55.63z"/>
	<path class="st0" d="M72.87,51.33c0-13.23,10-23.35,23.19-23.35c12.94,0,23.1,10.16,23.1,23.02c0,13.23-10.16,23.35-23.27,23.35
		C82.95,74.35,72.87,64.11,72.87,51.33z M112.48,51.33c0-9.42-6.84-17.57-16.59-17.57c-9.67,0-16.35,7.87-16.35,17.25
		c0,9.42,6.76,17.53,16.51,17.53C105.64,68.54,112.48,60.67,112.48,51.33z"/>
	<path class="st0" d="M150.34,68.54c9.87,0,13.64-7.37,14.95-10.77l6.06,2.05c-2.01,6.72-9.34,14.54-21.1,14.54
		c-12.99,0-22.82-9.63-22.82-23.02c0-13.6,10.45-23.35,23.1-23.35c10.45,0,18.72,6.72,20.56,14.3l-6.02,1.97
		c-1.02-3.48-5.49-10.45-14.79-10.45c-9.5,0-16.18,7.78-16.18,17.16C134.11,60.26,140.18,68.54,150.34,68.54z"/>
	<path class="st0" d="M185.57,7.83c2.74,0,4.92,2.17,4.92,4.92c0,2.7-2.17,4.92-4.92,4.92s-4.92-2.21-4.92-4.92
		C180.65,10,182.82,7.83,185.57,7.83z M188.84,28.8v44.77h-6.55V28.8H188.84z"/>
	<path class="st0" d="M230.67,44.7c0-7.17-3.97-10.86-11.39-10.86c-7.58,0-11.06,4.83-11.8,9.14l-6.27-1.35
		c0.37-3.77,5.33-13.64,18.23-13.64c9.46,0,14.13,4.3,16.3,9.26c1.07,2.42,1.35,5.98,1.35,7.41v12.62c0,7.58,0.08,11.84,0.74,16.3
		h-6.55c-0.37-1.93-0.57-5.61-0.57-7.87h-0.04c-3.56,5.49-8.4,8.64-15.12,8.64c-9.05,0-15.03-5.65-15.03-13.19v-0.49
		c0-9.71,9.75-12.94,17.74-12.94h12.41L230.67,44.7L230.67,44.7z M218.17,53.13c-4.83,0-11.06,1.52-11.06,7.5
		c0,5.08,4.26,7.95,9.59,7.95c7.99,0,13.97-5.69,13.97-13.89v-1.56H218.17z"/>
	<path class="st0" d="M257.91,5.2v68.37h-6.55V5.2H257.91z"/>
	<path class="st0" d="M332.59,28.76l-18.64,44.82h-9.05l-18.48-44.49h-0.12v44.49h-13.31V7.87h18.35l18.11,43.71l17.82-43.71h18.84
		v65.71h-13.4V28.76H332.59z"/>
	<path class="st0" d="M366.26,5c4.59,0,8.23,3.65,8.23,8.15c0,4.47-3.65,8.11-8.23,8.11c-4.38,0-8.03-3.65-8.03-8.11
		C358.23,8.65,361.88,5,366.26,5z M359.83,73.58h13.11V28.8h-13.11V73.58z"/>
	<path class="st0" d="M413.95,48.71c0-5-2.38-8.68-7.78-8.68c-5.53,0-8.07,4.1-8.07,8.68v24.87h-13.03V28.8h12.94v5.82h0.12
		c3.44-6.02,10.94-6.72,12.66-6.72c11.39,0,16.22,8.6,16.22,17.82v27.86h-13.07V48.71H413.95z"/>
	<path class="st0" d="M471.38,67.88h-0.16c-4.18,6.14-10.94,6.55-13.93,6.55c-12.99,0-21.34-11.22-21.34-23.31
		c0-11.35,8.64-23.23,21.55-23.23c2.54,0,8.81,0.53,13.35,6.02h0.16V5.25h13.07v68.33h-12.7V67.88z M460.32,39.74
		c-6.14,0-11.1,4.63-11.1,11.39c0,6.8,4.96,11.43,11.06,11.43c6.14,0,11.1-4.63,11.1-11.43C471.38,44.37,466.46,39.74,460.32,39.74z
		"/>
	<path class="st0" d="M493.3,60.79l11.51-2.46c0.29,3.03,2.91,6.1,7.25,6.1c3.73,0,5.24-2.21,5.24-3.85c0-1.47-0.98-3.07-4.38-3.85
		l-5.61-1.27c-8.68-1.97-12.94-6.68-12.94-13.07c0-8.07,7.33-14.71,17.12-14.71c12.04,0,17.25,7.78,17.94,12.86L518.04,43
		c-0.57-3.07-2.74-5.28-6.47-5.28c-2.95,0-4.96,1.76-4.96,3.77c0,1.64,1.23,2.83,3.52,3.28l6.23,1.27
		c8.93,1.8,13.64,7.05,13.64,13.68c0,7.37-5.9,14.83-17.78,14.83C498.91,74.56,493.7,65.71,493.3,60.79z"/>
</g>
</svg>
