<svg xmlns="http://www.w3.org/2000/svg" viewBox="0 0 24.06 26.52"><defs><style>.cls-1{fill:#fff;}</style></defs><title>SocialMindsHOME</title><g id="Episode"><path class="cls-1" d="M3.52,6,4.94,7.39a10,10,0,1,0,7.27-2.93V6.91L7.09,3.45,12.21,0V2.46A12,12,0,1,1,3.52,6Z"/><path class="cls-1" d="M11,14.14a1.57,1.57,0,0,1,.46,1.17,1.71,1.71,0,0,1-.25.93,1.56,1.56,0,0,1-.69.63,2.18,2.18,0,0,1-2,0,1.57,1.57,0,0,1-.67-.63,1.78,1.78,0,0,1-.23-.93h.72a1.13,1.13,0,0,0,1.16,1.15,1.15,1.15,0,0,0,.85-.33,1.1,1.1,0,0,0,.33-.83,1,1,0,0,0-.27-.75,1.19,1.19,0,0,0-.72-.34,4.47,4.47,0,0,0-.58,0H8.89v-.52l1.51-1.5H8.05v-.65h3.21v.69L9.84,13.64A1.76,1.76,0,0,1,11,14.14Z"/><path class="cls-1" d="M12.86,16.35a3.57,3.57,0,0,1-.53-2.08,3.63,3.63,0,0,1,.53-2.09,1.83,1.83,0,0,1,3,0,3.61,3.61,0,0,1,.52,2.09,3.5,3.5,0,0,1-.53,2.08,1.84,1.84,0,0,1-3,0Zm2.42-.47a3.37,3.37,0,0,0,.32-1.61,3.37,3.37,0,0,0-.32-1.61,1.06,1.06,0,0,0-1.87,0,3.27,3.27,0,0,0-.33,1.62,3.37,3.37,0,0,0,.32,1.61,1,1,0,0,0,.94.57A1,1,0,0,0,15.28,15.88Z"/></g></svg>