<svg xmlns="http://www.w3.org/2000/svg" viewBox="0 0 1751.44 525.29"><defs><style>.a{fill:#1ed760;}</style></defs><title>Spotify</title><path class="a" d="M302.84,9.1C157.78,9.1,40.19,126.69,40.19,271.75S157.78,534.39,302.84,534.39,565.49,416.81,565.49,271.75,447.91,9.11,302.83,9.11ZM423.29,387.91a16.37,16.37,0,0,1-22.52,5.43C339.1,355.67,261.47,347.14,170,368a16.37,16.37,0,0,1-7.28-31.93c100.05-22.86,185.87-13,255.1,29.29A16.38,16.38,0,0,1,423.29,387.91Zm32.14-71.51a20.48,20.48,0,0,1-28.16,6.75c-70.6-43.4-178.22-56-261.73-30.62a20.47,20.47,0,1,1-11.9-39.18c95.39-28.94,214-14.92,295.05,34.9a20.46,20.46,0,0,1,6.74,28.15Zm2.76-74.47C373.54,191.65,233.88,187,153.06,211.55a24.56,24.56,0,1,1-14.26-47c92.77-28.17,247-22.72,344.47,35.13a24.57,24.57,0,0,1-25.06,42.26Zm296.58,9.63c-45.35-10.81-53.41-18.4-53.41-34.35,0-15.07,14.17-25.21,35.28-25.21,20.45,0,40.71,7.7,62,23.55a3,3,0,0,0,4.2-.66L825,183.67a3,3,0,0,0-.56-4c-25.31-20.3-53.79-30.17-87.1-30.17-49,0-83.18,29.39-83.18,71.43,0,45.09,29.52,61.05,80.51,73.37,43.38,10,50.72,18.37,50.72,33.34,0,16.59-14.8,26.91-38.64,26.91-26.47,0-48.08-8.94-72.23-29.83a3.1,3.1,0,0,0-2.17-.72,2.9,2.9,0,0,0-2,1l-24.85,29.54a3,3,0,0,0,.29,4.14c28.1,25.09,62.66,38.33,100,38.33,52.76,0,86.85-28.83,86.85-73.46.1-37.66-22.46-58.51-77.69-72Zm197.15-44.72c-22.86,0-41.62,9-57.11,27.46V213.53a3,3,0,0,0-2.95-3H851.24a3,3,0,0,0-2.94,3V444.37a3,3,0,0,0,2.94,3h40.62a3,3,0,0,0,2.95-3V371.51c15.49,17.34,34.25,25.84,57.11,25.84,42.5,0,85.53-32.71,85.53-95.25s-43-95.27-85.5-95.27Zm38.3,95.26c0,31.83-19.61,54.07-47.71,54.07-27.75,0-48.71-23.24-48.71-54.07s21-54.06,48.71-54.06,47.71,22.73,47.71,54.06Zm157.47-95.26c-54.73,0-97.6,42.14-97.6,95.94,0,53.23,42.59,94.92,97,94.92,54.91,0,97.91-42,97.91-95.6,0-53.41-42.71-95.26-97.26-95.26Zm0,149.65c-29.1,0-51.06-23.4-51.06-54.4s21.21-53.74,50.41-53.74,51.37,23.39,51.37,54.42S1177.08,356.49,1147.69,356.49Zm214.13-145.94h-44.7V164.86a3,3,0,0,0-2.95-3h-40.61a3,3,0,0,0-3,3v45.69h-19.51a3,3,0,0,0-3,3v34.89a3,3,0,0,0,3,3h19.51v90.31c0,36.48,18.16,55,54,55,14.55,0,26.62-3,38-9.47a2.89,2.89,0,0,0,1.5-2.57V351.4a2.94,2.94,0,0,0-1.41-2.5,2.86,2.86,0,0,0-2.88-.13,51.28,51.28,0,0,1-23.84,5.74c-13,0-18.85-5.93-18.85-19.16V251.42h44.69a3,3,0,0,0,3-3v-34.9a2.86,2.86,0,0,0-2.91-3l0,0Zm155.68.18v-5.61c0-16.51,6.34-23.87,20.52-23.87,8.47,0,15.27,1.68,22.89,4.22a3,3,0,0,0,3.89-2.83V148.42a2.94,2.94,0,0,0-2.1-2.85,111.36,111.36,0,0,0-33.75-4.85c-37.48,0-57.33,21.12-57.33,61.06v8.59h-19.51a3,3,0,0,0-3,3v35.07a3,3,0,0,0,3,3h19.51V390.67a3,3,0,0,0,3,3h40.58a3,3,0,0,0,3-3V251.41h37.92l58.09,139.26c-6.59,14.62-13.08,17.53-21.93,17.53-7.15,0-14.7-2.13-22.39-6.36a3.21,3.21,0,0,0-2.35-.22,2.93,2.93,0,0,0-1.76,1.6L1552,433.42a3,3,0,0,0,1.29,3.86c14.36,7.78,27.32,11.1,43.34,11.1,30,0,46.58-14,61.16-51.56l70.45-182a3,3,0,0,0-2.73-4H1683.2a3,3,0,0,0-2.82,2l-43.32,123.68-47.42-123.76a3,3,0,0,0-2.76-1.91H1517.5Zm-90.26-.18h-40.62a3,3,0,0,0-3,3V390.67a3,3,0,0,0,3,3h40.62a3,3,0,0,0,3-3V213.54a3,3,0,0,0-3-3Zm-20.07-80.67a29.13,29.13,0,1,0,29.1,29.11A29.13,29.13,0,0,0,1407.17,129.88ZM1762.9,267.51a28.66,28.66,0,1,1,28.72-28.74A28.48,28.48,0,0,1,1762.9,267.51Zm.15-54.46a25.8,25.8,0,1,0,25.56,25.72A25.55,25.55,0,0,0,1763.05,213.05Zm6.34,28.66,8.09,11.31h-6.84l-7.27-10.38h-6.25V253h-5.7V223h13.36c7,0,11.57,3.56,11.57,9.57,0,4.91-2.82,7.92-6.93,9.11Zm-4.83-13.54h-7.44v9.49h7.44c3.7,0,5.93-1.82,5.93-4.75S1768.26,228.17,1764.56,228.17Z" transform="translate(-40.19 -9.1)"/></svg>